<svg width="53" height="15" viewBox="0 0 53 15" fill="none" xmlns="http://www.w3.org/2000/svg">
<g clip-path="url(#clip0_401_315)">
<path d="M37.5851 4.10146C37.3191 3.66435 36.9413 3.30248 36.489 3.0514C36.0266 2.79025 35.5647 2.65967 34.862 2.65967H31.0732C31.0579 2.65963 31.0427 2.66254 31.0285 2.66823C31.0144 2.67392 31.0015 2.68227 30.9908 2.69282C30.9799 2.70337 30.9712 2.71591 30.9653 2.72971C30.9594 2.74352 30.9565 2.75832 30.9564 2.77328V11.627C30.9565 11.6419 30.9594 11.6568 30.9653 11.6705C30.9712 11.6844 30.9799 11.6969 30.9908 11.7075C31.0015 11.718 31.0144 11.7264 31.0285 11.7321C31.0427 11.7378 31.0579 11.7406 31.0732 11.7406H32.0057C32.021 11.7406 32.0362 11.7378 32.0503 11.7321C32.0645 11.7264 32.0774 11.718 32.0882 11.7075C32.0991 11.6969 32.1077 11.6844 32.1136 11.6705C32.1195 11.6568 32.1225 11.6419 32.1225 11.627V8.54468C32.1225 8.53204 32.1251 8.51953 32.13 8.50786C32.135 8.49619 32.1423 8.48558 32.1515 8.47666C32.1606 8.46773 32.1715 8.46067 32.1834 8.45586C32.1954 8.45106 32.2081 8.4486 32.2211 8.44864H34.9674C35.502 8.45337 36.0279 8.3161 36.489 8.05146C36.943 7.79506 37.3208 7.42727 37.5851 6.98443C37.8506 6.54858 37.9899 6.05028 37.9879 5.54294C37.9919 5.03535 37.8525 4.53654 37.5851 4.10146ZM36.3024 6.89929C35.9567 7.25134 35.5685 7.42706 34.862 7.42706H32.2214C32.2084 7.42709 32.1957 7.42464 32.1836 7.41984C32.1717 7.41503 32.1608 7.40797 32.1517 7.39905C32.1425 7.39013 32.1352 7.37954 32.1301 7.36787C32.1252 7.35619 32.1226 7.34367 32.1225 7.33102V3.77759C32.1225 3.76492 32.1252 3.75236 32.1301 3.74066C32.1351 3.72895 32.1424 3.71831 32.1516 3.70936C32.1607 3.70041 32.1716 3.69332 32.1836 3.6885C32.1956 3.68368 32.2084 3.68122 32.2214 3.68125H34.862C35.5437 3.68125 35.9567 3.85363 36.3024 4.1978C36.6483 4.54196 36.8214 4.99065 36.8214 5.54294C36.8214 6.09524 36.6486 6.54756 36.3024 6.89929Z" fill="#EFF0F8"/>
<path d="M39.0823 2.77328C39.0823 2.75832 39.0853 2.74352 39.0912 2.72971C39.0972 2.71591 39.1057 2.70337 39.1166 2.69282C39.1274 2.68227 39.1403 2.67392 39.1545 2.66823C39.1686 2.66254 39.1838 2.65963 39.199 2.65967H40.1319C40.1628 2.65967 40.1924 2.67163 40.2142 2.69292C40.236 2.71422 40.2483 2.74313 40.2485 2.77328V10.6233C40.2486 10.6487 40.2589 10.6731 40.2773 10.691C40.2957 10.709 40.3206 10.719 40.3466 10.719H44.2945C44.3097 10.719 44.3248 10.7219 44.3389 10.7276C44.3531 10.7333 44.3658 10.7416 44.3767 10.752C44.3875 10.7626 44.3961 10.7752 44.402 10.7889C44.4078 10.8026 44.4109 10.8174 44.4109 10.8324V11.627C44.4109 11.6419 44.408 11.6567 44.402 11.6705C44.3962 11.6844 44.3876 11.6969 44.3768 11.7075C44.366 11.718 44.3532 11.7264 44.339 11.7321C44.3249 11.7378 44.3097 11.7406 44.2945 11.7406H39.2003C39.185 11.7406 39.1699 11.7378 39.1557 11.7321C39.1416 11.7264 39.1287 11.718 39.1178 11.7075C39.107 11.6969 39.0983 11.6844 39.0925 11.6705C39.0866 11.6568 39.0835 11.6419 39.0834 11.627L39.0823 2.77328Z" fill="#EFF0F8"/>
<path d="M29.4931 4.10146C29.2271 3.66435 28.8493 3.30248 28.3969 3.0514C27.9347 2.79025 27.4727 2.65967 26.77 2.65967H22.9811C22.9658 2.65963 22.9507 2.66254 22.9366 2.66823C22.9224 2.67392 22.9095 2.68227 22.8987 2.69282C22.8878 2.70337 22.8793 2.71591 22.8733 2.72971C22.8674 2.74352 22.8644 2.75832 22.8644 2.77328V11.627C22.8644 11.6419 22.8674 11.6568 22.8733 11.6705C22.8793 11.6844 22.8878 11.6969 22.8987 11.7075C22.9095 11.718 22.9224 11.7264 22.9366 11.7321C22.9507 11.7378 22.9658 11.7406 22.9811 11.7406H23.9137C23.929 11.7406 23.9441 11.7378 23.9584 11.7321C23.9725 11.7264 23.9854 11.718 23.9962 11.7075C24.007 11.6969 24.0157 11.6844 24.0216 11.6705C24.0274 11.6568 24.0305 11.6419 24.0306 11.627V8.54468C24.0306 8.53204 24.0331 8.51953 24.038 8.50786C24.043 8.49619 24.0503 8.48558 24.0594 8.47666C24.0685 8.46773 24.0794 8.46067 24.0913 8.45586C24.1033 8.45106 24.1161 8.4486 24.129 8.44864H26.8751C27.4096 8.45337 27.9355 8.3161 28.3966 8.05146C28.8507 7.79506 29.2285 7.42727 29.4928 6.98443C29.7583 6.54858 29.8975 6.05028 29.8955 5.54294C29.8996 5.03539 29.7603 4.53657 29.4931 4.10146ZM28.2104 6.89929C27.8646 7.25134 27.4668 7.42706 26.77 7.42706H24.1293C24.1165 7.42709 24.1036 7.42464 24.0917 7.41984C24.0796 7.41503 24.0688 7.40797 24.0596 7.39905C24.0504 7.39013 24.0431 7.37954 24.0382 7.36787C24.0332 7.35619 24.0306 7.34367 24.0306 7.33102V3.77759C24.0306 3.76492 24.0331 3.75236 24.038 3.74066C24.043 3.72895 24.0503 3.71831 24.0595 3.70936C24.0687 3.70041 24.0795 3.69332 24.0916 3.6885C24.1036 3.68368 24.1164 3.68122 24.1293 3.68125H26.77C27.4516 3.68125 27.8646 3.85363 28.2104 4.1978C28.5562 4.54196 28.7293 4.99065 28.7293 5.54294C28.7293 6.09524 28.5565 6.54756 28.2104 6.89929Z" fill="#EFF0F8"/>
<path d="M0.119904 8.91337H1.05248C1.13015 8.91337 1.16908 8.95115 1.16929 9.02668C1.20028 9.69319 1.45846 10.1605 1.94385 10.4285C2.42925 10.6965 3.10354 10.8308 3.96671 10.8314C4.72868 10.8314 5.32768 10.6934 5.76371 10.4173C6.19974 10.1412 6.41734 9.74954 6.41651 9.24238C6.41651 8.87883 6.33874 8.59698 6.18322 8.39683C6.02769 8.19667 5.76733 8.0358 5.40214 7.91421C5.03696 7.79302 4.48898 7.67578 3.7582 7.56247C2.93406 7.43402 2.26938 7.27324 1.76416 7.08016C1.25893 6.88708 0.878051 6.62784 0.621514 6.30246C0.364977 5.97708 0.236708 5.55708 0.236708 5.04245C0.236708 4.65647 0.357128 4.27272 0.597967 3.8912C0.838805 3.50967 1.22216 3.18995 1.74804 2.93203C2.27248 2.67471 2.93509 2.54605 3.73589 2.54605C4.53669 2.54605 5.2052 2.68229 5.7414 2.95475C6.27844 3.227 6.67687 3.56945 6.93671 3.98208C7.19655 4.39472 7.33835 4.82038 7.36211 5.25906C7.36211 5.33481 7.32327 5.37267 7.24561 5.37267H6.31118C6.23351 5.37267 6.19468 5.33481 6.19468 5.25906C6.1637 4.78241 5.95766 4.38139 5.57657 4.05601C5.19549 3.73062 4.58141 3.56783 3.73434 3.56763C2.89491 3.56763 2.29592 3.71144 1.93735 3.99905C1.57877 4.28666 1.4 4.63476 1.40104 5.04336C1.40104 5.36874 1.47106 5.62979 1.6111 5.82651C1.75114 6.02323 1.99983 6.18602 2.35716 6.31488C2.7147 6.44374 3.24337 6.56493 3.94316 6.67843C4.79808 6.81476 5.4797 6.9718 5.98803 7.14954C6.49634 7.32728 6.88879 7.58085 7.16537 7.91027C7.44111 8.23928 7.57909 8.68363 7.57929 9.2433C7.57929 9.7656 7.41602 10.2253 7.08946 10.6224C6.76291 11.0195 6.32564 11.324 5.77765 11.5361C5.22967 11.7478 4.6253 11.8537 3.96455 11.8539C3.32668 11.8584 2.6918 11.7685 2.08142 11.5873C1.49419 11.4093 1.00642 11.1085 0.618105 10.6848C0.229788 10.261 0.0237534 9.70864 0 9.02759C0.00206551 8.95144 0.042034 8.91337 0.119904 8.91337Z" fill="#EFF0F8"/>
<path d="M8.95096 2.65967H9.88386C9.96132 2.65967 10.0004 2.69754 10.0004 2.77328V11.627C10.0004 11.7027 9.96132 11.7406 9.88386 11.7406H8.95096C8.87331 11.7406 8.83447 11.7027 8.83447 11.627V2.77328C8.83447 2.69754 8.87331 2.65967 8.95096 2.65967Z" fill="#EFF0F8"/>
<path d="M11.5861 2.77329C11.5861 2.75833 11.5891 2.74353 11.595 2.72972C11.6009 2.71591 11.6096 2.70338 11.6204 2.69283C11.6312 2.68227 11.6441 2.67392 11.6582 2.66824C11.6724 2.66255 11.6876 2.65964 11.7029 2.65968H13.8249C13.8536 2.65855 13.8818 2.6669 13.9051 2.68338C13.9283 2.69987 13.9453 2.72354 13.9531 2.75057L16.2997 10.65C16.3056 10.6697 16.3178 10.687 16.3346 10.6995C16.3512 10.712 16.3717 10.7188 16.3927 10.719H16.5268C16.5479 10.7188 16.5683 10.712 16.585 10.6995C16.6018 10.687 16.6139 10.6697 16.6198 10.65L18.9664 2.75057C18.9742 2.72354 18.9912 2.69987 19.0144 2.68338C19.0378 2.6669 19.0659 2.65855 19.0947 2.65968H21.2167C21.232 2.65964 21.2472 2.66255 21.2613 2.66824C21.2755 2.67392 21.2883 2.68227 21.2992 2.69283C21.31 2.70338 21.3186 2.71591 21.3245 2.72972C21.3304 2.74353 21.3335 2.75833 21.3335 2.77329V11.6271C21.3335 11.6419 21.3304 11.6568 21.3245 11.6705C21.3186 11.6844 21.31 11.6969 21.2992 11.7075C21.2883 11.718 21.2755 11.7264 21.2613 11.7321C21.2472 11.7378 21.232 11.7406 21.2167 11.7406H20.2842C20.2688 11.7406 20.2537 11.7378 20.2395 11.7321C20.2254 11.7264 20.2125 11.718 20.2016 11.7075C20.1909 11.6969 20.1822 11.6844 20.1763 11.6705C20.1704 11.6568 20.1673 11.6419 20.1673 11.6271V3.7773C20.1673 3.76466 20.1648 3.75215 20.1598 3.74048C20.1549 3.7288 20.1476 3.71821 20.1384 3.70928C20.1293 3.70036 20.1185 3.69329 20.1064 3.68849C20.0945 3.68368 20.0817 3.68122 20.0688 3.68126H19.9139C19.8925 3.68126 19.8717 3.68802 19.8547 3.70053C19.8376 3.71304 19.8251 3.73062 19.8191 3.75064L17.4728 11.6497C17.4649 11.6767 17.4479 11.7003 17.4246 11.7168C17.4014 11.7332 17.3731 11.7417 17.3444 11.7406H15.5739C15.5451 11.7418 15.5169 11.7334 15.4935 11.7169C15.4703 11.7004 15.4534 11.6768 15.4455 11.6497L13.0992 3.75064C13.0932 3.73064 13.0807 3.71309 13.0636 3.70059C13.0465 3.68809 13.0258 3.68131 13.0045 3.68126H12.8495C12.8366 3.68122 12.8238 3.68368 12.8119 3.68849C12.7999 3.69329 12.7891 3.70036 12.7799 3.70928C12.7707 3.71821 12.7634 3.7288 12.7585 3.74048C12.7535 3.75215 12.751 3.76466 12.751 3.7773V11.6271C12.751 11.6419 12.7479 11.6568 12.742 11.6705C12.7361 11.6844 12.7275 11.6969 12.7167 11.7075C12.7058 11.718 12.6929 11.7264 12.6788 11.7321C12.6646 11.7378 12.6494 11.7406 12.6341 11.7406H11.7029C11.6876 11.7406 11.6724 11.7378 11.6582 11.7321C11.6441 11.7264 11.6312 11.718 11.6204 11.7075C11.6096 11.6969 11.6009 11.6844 11.595 11.6705C11.5891 11.6568 11.5861 11.6419 11.5861 11.6271V2.77329Z" fill="#EFF0F8"/>
<path d="M52.7456 11.6043L50.5768 8.41531C50.5691 8.40408 50.564 8.3914 50.5617 8.37809C50.5595 8.36478 50.5601 8.35116 50.5637 8.33812C50.5672 8.32508 50.5737 8.31293 50.5823 8.30247C50.5911 8.29202 50.6019 8.2835 50.6143 8.27746C50.7855 8.21719 50.9506 8.14153 51.1075 8.05146C51.5615 7.79488 51.9392 7.42713 52.2037 6.98443C52.4691 6.54851 52.6083 6.05025 52.6065 5.54294C52.6103 5.03538 52.471 4.53658 52.2037 4.10146C51.9375 3.6645 51.5598 3.30266 51.1075 3.0514C50.6449 2.79025 50.1833 2.65967 49.4803 2.65967H45.6905C45.6752 2.65963 45.6601 2.66254 45.646 2.66823C45.6318 2.67393 45.6189 2.68228 45.6082 2.69284C45.5973 2.70339 45.5887 2.71593 45.5828 2.72973C45.577 2.74354 45.574 2.75833 45.574 2.77328V11.627C45.574 11.6419 45.577 11.6567 45.5828 11.6705C45.5887 11.6844 45.5973 11.6969 45.6082 11.7075C45.6189 11.718 45.6318 11.7264 45.646 11.7321C45.6601 11.7378 45.6752 11.7406 45.6905 11.7406H46.6234C46.6386 11.7406 46.6538 11.7378 46.668 11.7321C46.6821 11.7264 46.6949 11.718 46.7057 11.7075C46.7165 11.6969 46.7252 11.6844 46.731 11.6705C46.7369 11.6567 46.7398 11.6419 46.7398 11.627V8.54468C46.7399 8.53203 46.7425 8.51951 46.7475 8.50784C46.7525 8.49615 46.7598 8.48556 46.769 8.47664C46.7781 8.46772 46.789 8.46066 46.8009 8.45586C46.813 8.45105 46.8257 8.4486 46.8387 8.44864H49.2055C49.2217 8.44866 49.2378 8.45263 49.2521 8.4602C49.2665 8.46775 49.2786 8.47867 49.2876 8.49196L51.4391 11.6731C51.4554 11.6942 51.4765 11.7113 51.5008 11.7231C51.525 11.7349 51.5517 11.7411 51.5788 11.7412H52.6749C52.6875 11.7421 52.7002 11.7406 52.7122 11.7367C52.7243 11.7328 52.7354 11.7266 52.745 11.7184C52.7517 11.7128 52.7573 11.7059 52.7612 11.6981C52.7652 11.6903 52.7676 11.6817 52.7682 11.6731C52.7656 11.6488 52.7579 11.6254 52.7456 11.6043ZM46.7398 7.33102V3.77759C46.7398 3.76492 46.7425 3.75236 46.7474 3.74066C46.7524 3.72895 46.7597 3.71831 46.7689 3.70936C46.778 3.70041 46.7889 3.69332 46.8009 3.6885C46.8129 3.68368 46.8257 3.68122 46.8387 3.68125H49.4793C50.13 3.68125 50.574 3.85363 50.92 4.1978C51.2662 4.54196 51.4391 4.99065 51.4391 5.54294C51.4391 6.09524 51.2659 6.54756 50.92 6.89929C50.71 7.11581 50.4439 7.27282 50.1501 7.35374L50.1474 7.35071C49.9736 7.39888 49.7919 7.42311 49.4793 7.42311L46.8387 7.42645C46.8127 7.42653 46.7876 7.41654 46.7692 7.39866C46.7506 7.38078 46.7402 7.35647 46.7398 7.33102Z" fill="#EFF0F8"/>
<path d="M22.8644 0.218438C22.8644 0.142698 22.9031 0.104828 22.9811 0.104828H44.2972C44.3747 0.104828 44.4137 0.142698 44.4137 0.218438V1.0128C44.4137 1.08854 44.3747 1.12641 44.2972 1.12641H22.9811C22.9031 1.12641 22.8644 1.08854 22.8644 1.0128V0.218438Z" fill="#EFF0F8"/>
<path d="M22.8644 13.3866C22.8644 13.3109 22.9031 13.273 22.9811 13.273H44.2972C44.3747 13.273 44.4137 13.3109 44.4137 13.3866V14.1809C44.4137 14.2567 44.3747 14.2946 44.2972 14.2946H22.9811C22.9031 14.2946 22.8644 14.2567 22.8644 14.1809V13.3866Z" fill="#EFF0F8"/>
</g>
<defs>
<clipPath id="clip0_401_315">
<rect width="52.7682" height="14.457" fill="white"/>
</clipPath>
</defs>
</svg>
