<svg id="Layer_1" enable-background="new 0 0 72 72" height="512" viewBox="0 0 72 72" width="512" xmlns="http://www.w3.org/2000/svg"><g><g><path d="m34 24-5.4-5.4c-.9-.9-2.4-1-3.4 0-.4.4-.6.9-.7 1.4l11.7 11.7c-.9-2.5-1.9-5.3-2.2-7.7z"/><path d="m53.4 50c.8-5-.9-12.5-6.8-18.5-1.1-1.1-2.6-3.8-4-6.2-1.1-2-2-3.8-2.2-4.3-.4-1-1.5-1.7-2.4-1.7-4.8.2.1 12.5 2.1 16.2.2.4.1 1-.3 1.3s-1 .3-1.3-.1l-15.7-15.6s0 0-.1-.1l-2.5-2.5c-.9-.9-2.4-1-3.4 0-.5.5-.7 1.1-.7 1.7s.2 1.2.7 1.7l12.3 12.3c.4.4.4 1 0 1.4s-1 .4-1.4 0l-12.2-12.2-2.5-2.5c-1-1-2.6-.9-3.5.1-.8.9-.7 2.5.3 3.4l3.7 3.7 11 11c.4.4.4 1 0 1.4s-1 .4-1.4 0l-11-11c-1-.9-2.6-.9-3.5.1-.8.9-.7 2.5.3 3.4l5 5 5.9 5.9c.4.4.4 1 0 1.4s-1 .4-1.4 0l-5.9-5.9c-.4-.4-1-.7-1.7-.7-.6 0-1.2.2-1.7.7s-.7 1.1-.7 1.7.2 1.2.7 1.7c7 7 7.7 7.6 9.3 9.6 2.4 3.1 10.8 13.4 17.5 13.8.7 0 1.3-.2 1.8-.7l15.1-14.1c.2-.4.5-.8.6-1.4z"/><path d="m48.7 21.1c-.4-1-1.4-1.7-2.4-1.7-1.1 0-2.7 1.3-1.9 5 1.2 2.3 2.7 4.8 3.6 5.7 6.1 6.2 8.2 14.2 7.3 20.2-.1 1-.6 1.9-1.4 2.6l-13.3 12.4c1.7.8 3.9 1.4 5.1.2l15.1-14.1c.4-.4.7-.9.8-1.4.8-5.3-1.1-12.7-6.8-18.5-1.9-1.9-5.6-9.2-6.1-10.4z"/></g><g><g><path d="m24.1 16.3c-.4-.3-.5-1-.2-1.4l3.9-5.1c.3-.4 1-.5 1.4-.2s.5 1 .2 1.4l-3.9 5.1c-.3.4-1 .5-1.4.2z"/></g><g><path d="m18 14.1-1-7.2c-.1-.5.3-1.1.9-1.1.6-.1 1.1.3 1.1.8l1 7.2c.1.5-.3 1.1-.9 1.1-.5.2-1-.2-1.1-.8z"/></g><g><path d="m13.3 17.8-6.4-4.9c-.4-.3-.5-1-.2-1.4s1-.5 1.4-.2l6.4 4.9c.4.3.5 1 .2 1.4s-.9.5-1.4.2z"/></g></g><g><g><path d="m64.5 26.4h-6.5c-.6 0-1-.4-1-1s.4-1 1-1h6.4c.6 0 1 .4 1 1s-.4 1-.9 1z"/></g><g><path d="m55.1 20.7c-.4-.4-.4-1 0-1.4l5.1-5.1c.4-.4 1-.4 1.4 0s.4 1 0 1.4l-5.1 5.1c-.4.4-1 .4-1.4 0z"/></g><g><path d="m50.3 18.8c-.6 0-1-.4-1-1v-8c0-.6.4-1 1-1s1 .4 1 1v8c0 .5-.4 1-1 1z"/></g></g></g></svg>