<svg id="Capa_1" enable-background="new 0 0 512 512" height="512" viewBox="0 0 512 512" width="512" xmlns="http://www.w3.org/2000/svg"><g id="XMLID_1189_"><path id="XMLID_1839_" d="m512 346.427-55.77-55.771-14.72-34.257c1.807-49.237-16.994-97.213-51.904-132.123l-46.158-46.158c-7.972-7.973-18.57-12.362-29.845-12.362s-21.873 4.39-29.845 12.362c-2.976 2.977-5.419 6.292-7.322 9.825l-69.861-69.861c-7.971-7.972-18.57-12.362-29.845-12.362-11.274 0-21.873 4.39-29.845 12.362-3.007 3.007-5.464 6.358-7.372 9.929-7.742-6.925-17.629-10.711-28.1-10.711-11.274 0-21.873 4.39-29.844 12.362-4.158 4.157-7.331 9.034-9.424 14.343-14.585-4.668-31.221-1.236-42.774 10.315-7.972 7.973-12.361 18.572-12.361 29.846 0 8.025 2.225 15.709 6.382 22.346-3.852 1.958-7.453 4.536-10.639 7.724-7.972 7.972-12.362 18.571-12.362 29.846 0 11.273 4.391 21.873 12.362 29.844l9.445 9.446c-3.581 1.931-6.899 4.395-9.856 7.352-16.456 16.457-16.456 43.233 0 59.688l142.217 142.216 108.296 62.578 56.3 56.301 38.204-37.703 12.903 13.182zm-141.42 97.937-25.176-25.722 98.164-98.164 25.859 25.86zm-267.77-393.46c2.298-2.298 5.353-3.563 8.604-3.563 3.25 0 6.305 1.266 8.603 3.563l119.345 119.344 21.241-21.241-92.477-92.476c-4.744-4.744-4.744-12.463 0-17.207 2.298-2.298 5.354-3.563 8.604-3.563 3.249 0 6.305 1.266 8.603 3.563l97.414 97.412 61.101 61.101 21.241-21.24-60.68-60.681c-4.171-4.804-3.932-12.033.592-16.558 2.298-2.298 5.353-3.563 8.603-3.563s6.305 1.266 8.604 3.563l46.158 46.159c29.716 29.716 45.384 70.822 42.984 112.777l-.202 3.534 14.603 33.984-103.94 103.942-96.604-55.82-139.809-139.844c-2.048-2.245-3.181-5.124-3.181-8.182 0-3.251 1.266-6.307 3.563-8.604 4.743-4.742 12.463-4.742 17.208 0l59.66 59.659 21.241-21.241-59.659-59.659-38.038-38.037c-2.298-2.298-3.564-5.354-3.564-8.604 0-3.249 1.266-6.305 3.564-8.604 4.102-4.103 10.559-4.696 15.321-1.524l99.402 99.402 21.241-21.24-100.307-100.307-5.94-5.939.019-.019-13.498-13.499c-2.05-2.245-3.184-5.125-3.184-8.185.001-3.25 1.265-6.305 3.564-8.603zm-52.199 24.658c4.745-4.743 12.465-4.742 17.207 0l6.805 6.805c-3.488 1.889-6.755 4.291-9.675 7.211-3.015 3.015-5.515 6.406-7.461 10.067l-6.875-6.875c-2.298-2.298-3.563-5.354-3.563-8.604s1.264-6.306 3.562-8.604zm-16.618 59.915c4.103-4.102 10.559-4.695 15.321-1.523l24.751 24.752.161-.161.179.179c-3.547 1.903-6.877 4.35-9.867 7.34-2.95 2.951-5.406 6.263-7.335 9.833l-23.212-23.213c-2.298-2.297-3.563-5.353-3.563-8.602.001-3.252 1.267-6.308 3.565-8.605zm-.41 93.694c-4.744-4.743-4.744-12.464 0-17.208 2.298-2.298 5.354-3.563 8.604-3.563 3.236 0 6.28 1.255 8.574 3.534l.028.028 3.337-3.338-3.336 3.337 12.965 12.965c.261.275.516.555.784.824l142.217 142.217 75.611 43.69-12.756 12.756-96.605-55.821zm285.712 239.992-25.975-25.975 15.972-15.972 5.689 3.287 21.365 21.83z"/><path id="XMLID_1848_" d="m7.203 398.738 44.734-29.751 16.641 25.021-44.734 29.752z"/><path id="XMLID_1849_" d="m59.873 459.491 29.752-44.735 25.023 16.642-29.752 44.735z"/><path id="XMLID_1850_" d="m129.212 501.4 10.914-54.349 29.469 5.918-10.914 54.348z"/><path id="XMLID_1851_" d="m372.908 45.052 29.752-44.736 25.022 16.642-29.751 44.735z"/><path id="XMLID_1852_" d="m418.982 82.76 44.734-29.751 16.642 25.021-44.734 29.752z"/><path id="XMLID_1853_" d="m451.251 133.018 54.348-10.914 5.918 29.468-54.349 10.914z"/></g></svg>