<svg width="72" height="72" viewBox="0 0 72 72" fill="none" xmlns="http://www.w3.org/2000/svg">
<path d="M61.4317 24.9743C61.4317 24.9743 54.3476 20.01 53.2206 12.1477L51.8789 12.9259L51.9862 14.9116C50.1347 16.8973 46.8878 15.9044 45.573 15.3946L44.9826 15.1531L43.6409 15.9313L48.1222 18.8562L48.5515 18.5341C49.8395 20.01 51.1812 21.942 52.1204 24.2497L51.9326 24.7327L51.8252 28.7847L53.1669 28.0065C53.6499 25.2426 55.1795 24.3034 56.8163 24.1156L60.0364 25.8061L61.3781 25.0279L61.4317 24.9743Z" fill="url(#paint0_linear_187_5557)"/>
<path d="M61.4317 24.9743C61.4317 24.9743 54.3476 20.01 53.2206 12.1477L51.8789 12.9259L51.9862 14.9116C50.1347 16.8973 46.8878 15.9044 45.573 15.3946L44.9826 15.1531L43.6409 15.9313L48.1222 18.8562L48.5515 18.5341C49.8395 20.01 51.1812 21.942 52.1204 24.2497L51.9326 24.7327L51.8252 28.7847L53.1669 28.0065C53.6499 25.2426 55.1795 24.3034 56.8163 24.1156L60.0364 25.8061L61.3781 25.0279L61.4317 24.9743Z" fill="white" fill-opacity="0.2"/>
<path d="M51.8798 28.7016L53.2215 27.9234C53.463 26.5281 53.9728 25.5889 54.6168 24.9985C53.3556 25.401 52.2554 26.4476 51.8798 28.7016Z" fill="url(#paint1_linear_187_5557)"/>
<path d="M51.8783 12.8972C50.7512 19.4178 43.6671 15.8758 43.6671 15.8758C43.6671 15.8758 50.7512 20.84 51.8783 28.7023C53.0053 22.1817 60.0894 25.7238 60.0894 25.7238C60.0894 25.7238 53.0053 20.7595 51.8783 12.8972Z" fill="url(#paint2_linear_187_5557)"/>
<path d="M48.6776 28.2898C48.6776 28.2898 46.161 26.5264 45.7607 23.7334L45.2841 24.0098L45.3222 24.7152C44.6645 25.4206 43.5111 25.0679 43.044 24.8868L42.8343 24.801L42.3577 25.0774L43.9496 26.1165L44.1021 26.0021C44.5596 26.5263 45.0362 27.2127 45.3699 28.0324L45.3031 28.204L45.265 29.6434L45.7416 29.367C45.9132 28.3851 46.4565 28.0515 47.038 27.9848L48.1819 28.5853L48.6585 28.3089L48.6776 28.2898Z" fill="url(#paint3_linear_187_5557)"/>
<path d="M48.6776 28.2898C48.6776 28.2898 46.161 26.5264 45.7607 23.7334L45.2841 24.0098L45.3222 24.7152C44.6645 25.4206 43.5111 25.0679 43.044 24.8868L42.8343 24.801L42.3577 25.0774L43.9496 26.1165L44.1021 26.0021C44.5596 26.5263 45.0362 27.2127 45.3699 28.0324L45.3031 28.204L45.265 29.6434L45.7416 29.367C45.9132 28.3851 46.4565 28.0515 47.038 27.9848L48.1819 28.5853L48.6585 28.3089L48.6776 28.2898Z" fill="white" fill-opacity="0.2"/>
<path d="M45.2849 29.614L45.7615 29.3376C45.8473 28.8419 46.0284 28.5083 46.2571 28.2986C45.8091 28.4416 45.4183 28.8133 45.2849 29.614Z" fill="url(#paint4_linear_187_5557)"/>
<path d="M45.2842 23.9998C44.8839 26.3161 42.3674 25.0578 42.3674 25.0578C42.3674 25.0578 44.8839 26.8213 45.2842 29.6143C45.6846 27.2979 48.2011 28.5562 48.2011 28.5562C48.2011 28.5562 45.6846 26.7927 45.2842 23.9998Z" fill="url(#paint5_linear_187_5557)"/>
<g opacity="0.1" filter="url(#filter0_f_187_5557)">
<path d="M49.9021 61.2012C50.9856 61.7365 50.8379 63.3259 49.6743 63.6517L43.5353 67.8191C43.1967 67.9138 42.8345 67.8695 42.5289 67.6956L28.9462 61.2502L39.8678 57.2424L49.9021 61.2012Z" fill="url(#paint6_linear_187_5557)"/>
</g>
<path d="M42.6178 57.1919C42.6178 56.0694 41.8929 54.9703 40.4198 54.1051C37.4735 52.4214 32.7266 52.4214 29.7804 54.1051C28.3072 54.9469 27.5589 56.0694 27.5823 57.1919V58.6417C27.5823 59.7642 28.3072 60.8867 29.7804 61.7285C32.7266 63.4356 37.4735 63.4356 40.4198 61.7285C41.8929 60.8867 42.6178 59.7642 42.6178 58.6651V57.1919Z" fill="#E2E1FF"/>
<path d="M39.0174 53.4766L33.8029 56.4932C33.078 56.9141 33.078 57.5689 33.8029 57.9898C34.5278 58.4108 35.6735 58.4108 36.3984 57.9898L41.5895 54.9966C41.2622 54.6926 40.888 54.3886 40.4204 54.108C39.9761 53.8507 39.5084 53.6403 39.0174 53.4766Z" fill="black"/>
<path d="M33.8014 57.9432C34.5263 58.3641 35.6954 58.3641 36.3969 57.9432C36.7477 57.7327 36.9347 57.4521 36.9347 57.1949C36.9347 56.9143 36.7477 56.657 36.3969 56.4466C35.672 56.0256 34.5029 56.0256 33.778 56.4466C33.4272 56.657 33.2402 56.9376 33.2402 57.1949C33.2402 57.4755 33.4272 57.7327 33.778 57.9432H33.8014Z" fill="#EDEDEF"/>
<path d="M33.264 49.4075C33.264 49.1269 33.451 48.8697 33.8018 48.6592C34.5267 48.2383 35.6958 48.2383 36.4207 48.6592C36.7715 48.8697 36.9585 49.1269 36.9585 49.4075V57.2181C36.9585 57.4987 36.7715 57.7559 36.4207 57.9664C35.6958 58.3873 34.5267 58.3873 33.8018 57.9664C33.451 57.7559 33.264 57.4753 33.264 57.2181V49.4075Z" fill="url(#paint7_linear_187_5557)"/>
<g opacity="0.5" style="mix-blend-mode:overlay">
<path d="M35.1125 50.4827C35.5802 50.4827 36.0479 50.3892 36.422 50.1787C36.7728 49.9683 36.9598 49.6877 36.9598 49.4304V57.241C36.9598 57.5216 36.7728 57.7788 36.422 57.9893C36.0713 58.1998 35.5802 58.2933 35.1125 58.2933V50.4827Z" fill="black"/>
</g>
<path d="M42.1041 40.6146C42.1041 40.0768 41.917 39.726 41.613 39.5389L40.8414 39.0946C40.5374 38.9309 40.1399 38.9543 39.6722 39.2115C38.7603 39.7494 38.012 41.0356 38.012 42.0879V43.0467V47.0221C38.012 47.4664 37.9652 47.864 37.8717 48.2147C37.5209 48.1212 37.1468 47.9575 36.7727 47.747C34.2473 46.2972 32.2129 42.7427 32.2129 39.8429V35.8675V34.9087C32.2129 34.3709 32.0259 34.0201 31.7219 33.833L30.9502 33.3887C30.6462 33.225 30.2487 33.2484 29.7811 33.5056C28.8691 34.0435 28.1208 35.3297 28.1208 36.382V37.3408V41.3162C28.1208 44.707 30.5059 48.8461 33.4522 50.5532C34.902 51.3951 36.2349 51.4886 37.1936 50.9508H37.217L40.5374 49.0332C41.4961 48.472 42.1041 47.2793 42.1041 45.5956V41.6202V40.6614V40.6146Z" fill="url(#paint8_linear_187_5557)"/>
<path d="M42.1041 40.6146C42.1041 40.0768 41.917 39.726 41.613 39.5389L40.8414 39.0946C40.5374 38.9309 40.1399 38.9543 39.6722 39.2115C38.7603 39.7494 38.012 41.0356 38.012 42.0879V43.0467V47.0221C38.012 47.4664 37.9652 47.864 37.8717 48.2147C37.5209 48.1212 37.1468 47.9575 36.7727 47.747C34.2473 46.2972 32.2129 42.7427 32.2129 39.8429V35.8675V34.9087C32.2129 34.3709 32.0259 34.0201 31.7219 33.833L30.9502 33.3887C30.6462 33.225 30.2487 33.2484 29.7811 33.5056C28.8691 34.0435 28.1208 35.3297 28.1208 36.382V37.3408V41.3162C28.1208 44.707 30.5059 48.8461 33.4522 50.5532C34.902 51.3951 36.2349 51.4886 37.1936 50.9508H37.217L40.5374 49.0332C41.4961 48.472 42.1041 47.2793 42.1041 45.5956V41.6202V40.6614V40.6146Z" fill="url(#paint9_linear_187_5557)"/>
<path d="M42.1041 40.6146C42.1041 40.0768 41.917 39.726 41.613 39.5389L40.8414 39.0946C40.5374 38.9309 40.1399 38.9543 39.6722 39.2115C38.7603 39.7494 38.012 41.0356 38.012 42.0879V43.0467V47.0221C38.012 47.4664 37.9652 47.864 37.8717 48.2147C37.5209 48.1212 37.1468 47.9575 36.7727 47.747C34.2473 46.2972 32.2129 42.7427 32.2129 39.8429V35.8675V34.9087C32.2129 34.3709 32.0259 34.0201 31.7219 33.833L30.9502 33.3887C30.6462 33.225 30.2487 33.2484 29.7811 33.5056C28.8691 34.0435 28.1208 35.3297 28.1208 36.382V37.3408V41.3162C28.1208 44.707 30.5059 48.8461 33.4522 50.5532C34.902 51.3951 36.2349 51.4886 37.1936 50.9508H37.217L40.5374 49.0332C41.4961 48.472 42.1041 47.2793 42.1041 45.5956V41.6202V40.6614V40.6146Z" fill="black" fill-opacity="0.2"/>
<path d="M40.4662 41.8297C40.4662 44.7995 38.0577 47.1848 35.1114 47.1848C32.1417 47.1848 29.7332 44.7762 29.7332 41.8297V26.1618C29.7332 23.1919 32.1417 20.8066 35.1114 20.8066C38.0811 20.8066 40.4662 23.2153 40.4662 26.1618V41.8297Z" fill="url(#paint10_radial_187_5557)"/>
<path d="M35.9532 20.8759C37.4965 21.7178 38.5487 23.3781 38.5487 25.2489V39.8177C38.5487 42.5771 36.3039 44.7987 33.5681 44.7987C32.1417 44.7987 30.8322 44.1907 29.9203 43.2085C30.5516 45.4768 32.6094 47.1605 35.088 47.1605C38.0577 47.1605 40.4428 44.7519 40.4428 41.8054V26.1375C40.4428 23.4716 38.4786 21.2501 35.9298 20.8525L35.9532 20.8759Z" fill="black"/>
<path d="M40.8157 34.7684C40.8157 34.3943 40.6987 33.9967 40.4649 33.6226V34.7684C40.4649 35.5635 39.9505 36.3586 38.8982 36.9666C36.7937 38.1826 33.4032 38.1826 31.2987 36.9666C30.2464 36.3586 29.732 35.5869 29.732 34.7918V33.6693C29.4981 34.0435 29.3812 34.4176 29.3812 34.8152V40.3574C29.3812 41.1993 29.9424 42.0645 31.0648 42.6959C33.2862 43.9821 36.9107 43.9821 39.1555 42.6959C40.2779 42.0411 40.839 41.1993 40.839 40.3574V34.7918L40.8157 34.7684Z" fill="url(#paint11_linear_187_5557)"/>
<path d="M40.8157 34.7684C40.8157 34.3943 40.6987 33.9967 40.4649 33.6226V34.7684C40.4649 35.5635 39.9505 36.3586 38.8982 36.9666C36.7937 38.1826 33.4032 38.1826 31.2987 36.9666C30.2464 36.3586 29.732 35.5869 29.732 34.7918V33.6693C29.4981 34.0435 29.3812 34.4176 29.3812 34.8152V40.3574C29.3812 41.1993 29.9424 42.0645 31.0648 42.6959C33.2862 43.9821 36.9107 43.9821 39.1555 42.6959C40.2779 42.0411 40.839 41.1993 40.839 40.3574V34.7918L40.8157 34.7684Z" fill="url(#paint12_linear_187_5557)"/>
<g opacity="0.2" style="mix-blend-mode:overlay">
<path d="M40.818 34.7688C40.818 35.6107 40.2568 36.4525 39.1344 37.1073C38.9239 37.2242 38.6901 37.3411 38.4562 37.4347V43.0003C38.6901 42.9067 38.9239 42.7898 39.1344 42.6729C40.2568 42.0181 40.818 41.1763 40.818 40.3344V34.7688Z" fill="black"/>
</g>
<g opacity="0.4" style="mix-blend-mode:overlay">
<path d="M31.0637 37.1069C33.2851 38.3931 36.9095 38.3931 39.1543 37.1069C40.2767 36.4521 40.8379 35.6103 40.8379 34.7684C40.8379 34.3943 40.721 33.9967 40.4871 33.6226V34.7684C40.4871 35.5635 39.9727 36.3586 38.9205 36.9666C36.816 38.1826 33.4254 38.1826 31.3209 36.9666C30.2686 36.3586 29.7542 35.5869 29.7542 34.7918V33.6693C29.5204 34.0435 29.4034 34.4176 29.4034 34.8152C29.4034 35.657 29.9646 36.4989 31.087 37.1303L31.0637 37.1069Z" fill="white"/>
</g>
<path d="M42.1038 40.6133C42.1038 40.0755 41.9167 39.7247 41.6127 39.5376L40.8411 39.0933C40.5371 38.9296 40.1396 38.953 39.6719 39.2102C38.76 39.7481 38.0117 41.0342 38.0117 42.0866V43.0453V47.0208C38.0117 49.0553 37.0062 50.2245 35.5565 50.2713V51.2534C36.2112 51.3002 36.7958 51.1599 37.2868 50.8559C37.2634 50.8559 37.2401 50.9027 37.2167 50.9027L40.5371 48.9851C41.4958 48.4239 42.1038 47.2312 42.1038 45.5475V41.5721V40.6133Z" fill="url(#paint13_linear_187_5557)"/>
<path d="M40.8414 39.0922C40.5374 38.9285 40.1399 38.9519 39.6722 39.2091C38.7603 39.747 38.012 41.0332 38.012 42.0855V43.0443V47.0197C38.012 47.2535 38.012 47.4874 37.9652 47.6979C37.9652 47.8615 37.9185 48.0252 37.8717 48.1889C37.8717 48.1889 37.8717 48.1889 37.8717 48.2123C37.3806 50.2234 35.5801 50.8782 33.4522 49.6622C30.9268 48.2123 28.8925 44.6578 28.8925 41.7581V37.7827V36.8239C28.8925 36.286 29.0796 35.678 29.4069 35.1636V34.7894C29.4069 34.3919 29.5238 34.0177 29.7577 33.6435V33.5266C28.8691 34.0645 28.1208 35.3272 28.1208 36.3796V37.3383V41.3138C28.1208 44.7046 30.5059 48.8437 33.4522 50.5508C34.8085 51.3225 36.0478 51.4628 36.9831 51.0419C37.1 50.9951 37.1936 50.9484 37.3105 50.8782C38.2224 50.2936 38.7836 49.1243 38.7836 47.4874V43.512V42.5532C38.7836 41.5009 39.5319 40.2147 40.4439 39.6768C40.8881 39.4196 41.309 39.3962 41.613 39.5599L40.8414 39.1156V39.0922Z" fill="url(#paint14_linear_187_5557)"/>
<path d="M40.8414 39.0922C40.5374 38.9285 40.1399 38.9519 39.6722 39.2091C38.7603 39.747 38.012 41.0332 38.012 42.0855V43.0443V47.0197C38.012 47.2535 38.012 47.4874 37.9652 47.6979C37.9652 47.8615 37.9185 48.0252 37.8717 48.1889C37.8717 48.1889 37.8717 48.1889 37.8717 48.2123C37.3806 50.2234 35.5801 50.8782 33.4522 49.6622C30.9268 48.2123 28.8925 44.6578 28.8925 41.7581V37.7827V36.8239C28.8925 36.286 29.0796 35.678 29.4069 35.1636V34.7894C29.4069 34.3919 29.5238 34.0177 29.7577 33.6435V33.5266C28.8691 34.0645 28.1208 35.3272 28.1208 36.3796V37.3383V41.3138C28.1208 44.7046 30.5059 48.8437 33.4522 50.5508C34.8085 51.3225 36.0478 51.4628 36.9831 51.0419C37.1 50.9951 37.1936 50.9484 37.3105 50.8782C38.2224 50.2936 38.7836 49.1243 38.7836 47.4874V43.512V42.5532C38.7836 41.5009 39.5319 40.2147 40.4439 39.6768C40.8881 39.4196 41.309 39.3962 41.613 39.5599L40.8414 39.1156V39.0922Z" fill="white" fill-opacity="0.2"/>
<path d="M27.5809 57.189V57.6814C27.5809 58.804 28.3056 59.9271 29.7789 60.7692C32.7261 62.4767 37.4748 62.4767 40.422 60.7692C41.8874 59.9318 42.6121 58.8169 42.6201 57.7234V58.6432C42.6201 59.7426 41.8948 60.866 40.4212 61.708C37.4741 63.4153 32.7261 63.4153 29.7789 61.708C28.3054 60.866 27.5801 59.7429 27.5801 58.6202V57.1699C27.5801 57.1763 27.5808 57.1826 27.5809 57.189Z" fill="url(#paint15_linear_187_5557)"/>
<defs>
<filter id="filter0_f_187_5557" x="28.4462" y="56.7424" width="22.6906" height="11.6255" filterUnits="userSpaceOnUse" color-interpolation-filters="sRGB">
<feFlood flood-opacity="0" result="BackgroundImageFix"/>
<feBlend mode="normal" in="SourceGraphic" in2="BackgroundImageFix" result="shape"/>
<feGaussianBlur stdDeviation="0.25" result="effect1_foregroundBlur_187_5557"/>
</filter>
<linearGradient id="paint0_linear_187_5557" x1="43.6409" y1="12.1477" x2="62.3581" y2="13.265" gradientUnits="userSpaceOnUse">
<stop stop-color="#E5686C"/>
<stop offset="1" stop-color="#6366F1"/>
</linearGradient>
<linearGradient id="paint1_linear_187_5557" x1="52.1803" y1="25.4033" x2="55.2926" y2="20.341" gradientUnits="userSpaceOnUse">
<stop stop-color="#6366F1"/>
<stop offset="1" stop-color="#E5686C"/>
</linearGradient>
<linearGradient id="paint2_linear_187_5557" x1="45.4705" y1="14.6249" x2="60.8576" y2="15.5217" gradientUnits="userSpaceOnUse">
<stop stop-color="#E5686C"/>
<stop offset="0.83345" stop-color="#6366F1"/>
</linearGradient>
<linearGradient id="paint3_linear_187_5557" x1="42.3577" y1="23.7334" x2="49.0066" y2="24.1303" gradientUnits="userSpaceOnUse">
<stop stop-color="#E5686C"/>
<stop offset="1" stop-color="#6366F1"/>
</linearGradient>
<linearGradient id="paint4_linear_187_5557" x1="45.3916" y1="28.4424" x2="46.4972" y2="26.6441" gradientUnits="userSpaceOnUse">
<stop stop-color="#6366F1"/>
<stop offset="1" stop-color="#E5686C"/>
</linearGradient>
<linearGradient id="paint5_linear_187_5557" x1="43.008" y1="24.6135" x2="48.474" y2="24.9321" gradientUnits="userSpaceOnUse">
<stop stop-color="#E5686C"/>
<stop offset="0.83345" stop-color="#6366F1"/>
</linearGradient>
<linearGradient id="paint6_linear_187_5557" x1="34.966" y1="57.717" x2="42.2194" y2="68.9019" gradientUnits="userSpaceOnUse">
<stop/>
<stop offset="1" stop-opacity="0"/>
</linearGradient>
<linearGradient id="paint7_linear_187_5557" x1="33.264" y1="53.3362" x2="36.9352" y2="53.3362" gradientUnits="userSpaceOnUse">
<stop stop-color="#F8F7FF"/>
<stop offset="0.7" stop-color="#D8D8FF"/>
</linearGradient>
<linearGradient id="paint8_linear_187_5557" x1="28.0975" y1="42.275" x2="42.1041" y2="42.275" gradientUnits="userSpaceOnUse">
<stop stop-color="#4BD6ED"/>
<stop offset="1" stop-color="#1A50B2"/>
</linearGradient>
<linearGradient id="paint9_linear_187_5557" x1="28.1208" y1="33.2849" x2="42.8569" y2="33.9239" gradientUnits="userSpaceOnUse">
<stop stop-color="#6366F1"/>
<stop offset="1" stop-color="#E5686C"/>
</linearGradient>
<radialGradient id="paint10_radial_187_5557" cx="0" cy="0" r="1" gradientUnits="userSpaceOnUse" gradientTransform="translate(33.6616 25.5772) scale(10.0782 10.0789)">
<stop offset="0.25" stop-color="#F8F7FF"/>
<stop offset="0.85" stop-color="#D8D8FF"/>
</radialGradient>
<linearGradient id="paint11_linear_187_5557" x1="29.3812" y1="38.6503" x2="40.8157" y2="38.6503" gradientUnits="userSpaceOnUse">
<stop stop-color="#4BD6ED"/>
<stop offset="1" stop-color="#1A50B2"/>
</linearGradient>
<linearGradient id="paint12_linear_187_5557" x1="29.3812" y1="33.6226" x2="41.4297" y2="34.3902" gradientUnits="userSpaceOnUse">
<stop stop-color="#E5686C"/>
<stop offset="1" stop-color="#6366F1"/>
</linearGradient>
<linearGradient id="paint13_linear_187_5557" x1="35.5565" y1="38.9895" x2="42.4631" y2="39.1952" gradientUnits="userSpaceOnUse">
<stop stop-color="#E5686C"/>
<stop offset="1" stop-color="#6366F1"/>
</linearGradient>
<linearGradient id="paint14_linear_187_5557" x1="28.1208" y1="42.4159" x2="41.613" y2="42.4159" gradientUnits="userSpaceOnUse">
<stop stop-color="#2D72D9"/>
<stop offset="0.68" stop-color="#7F55D5"/>
</linearGradient>
<linearGradient id="paint15_linear_187_5557" x1="27.5801" y1="60.0792" x2="42.6201" y2="60.0792" gradientUnits="userSpaceOnUse">
<stop stop-color="#F3F3FF"/>
<stop offset="1" stop-color="#8585DA"/>
</linearGradient>
</defs>
</svg>
