<svg width="72" height="72" viewBox="0 0 72 72" fill="none" xmlns="http://www.w3.org/2000/svg">
<g opacity="0.5" filter="url(#filter0_f_187_4956)">
<path fill-rule="evenodd" clip-rule="evenodd" d="M46.7325 30.2024C47.3554 29.8465 48.223 29.624 49.1128 29.624C50.0027 29.624 50.8703 29.8242 51.4932 30.2024L61.4597 35.9643C62.0826 36.3202 62.4608 36.8319 62.4608 37.3436C62.4608 37.8553 62.1048 38.3669 61.4597 38.7229L36.343 53.1868C35.7201 53.5427 34.8525 53.7652 33.9626 53.7652C33.0728 53.7652 32.4327 53.819 31.5382 53.4573C30.6436 53.0957 27.2913 51.3897 27.2913 51.3897L21.0377 47.7995C20.4148 47.4435 20.0588 46.9318 20.0588 46.4202C20.0588 45.9085 20.4148 45.3968 21.0377 45.0409L46.7325 30.2024Z" fill="url(#paint0_linear_187_4956)"/>
</g>
<path fill-rule="evenodd" clip-rule="evenodd" d="M16.3158 42.8969C16.4493 42.7634 16.605 42.6521 16.8052 42.5409L43.1452 27.3243C43.7681 26.9683 44.6357 26.7458 45.5255 26.7458C46.4154 26.7458 47.283 26.9461 47.9059 27.3243L58.4508 33.4198C58.5843 33.5088 58.7177 33.5755 58.829 33.6868L59.4519 33.2863V34.8658C59.4519 35.3553 59.0737 35.8447 58.473 36.2006L32.1331 51.4173C31.5102 51.7732 30.6426 51.9957 29.7527 51.9957C28.8629 51.9957 27.9953 51.7955 27.3723 51.4173L16.8275 45.3217C16.2268 44.9658 15.8709 44.4986 15.8486 44.0092V42.4297L16.3381 42.9191L16.3158 42.8969Z" fill="url(#paint1_linear_187_4956)"/>
<path fill-rule="evenodd" clip-rule="evenodd" d="M16.3153 42.8966C16.4488 42.7631 16.6045 42.6519 16.8047 42.5407L43.1447 27.324C43.7676 26.9681 44.6352 26.7456 45.525 26.7456C46.4149 26.7456 47.2825 26.9458 47.9054 27.324L58.4503 33.4196C58.5838 33.5086 58.7173 33.5753 58.8285 33.6865L59.4514 33.2861V34.8656C59.4514 35.355 59.0732 35.8444 58.4725 36.2004L32.1326 51.417C31.5097 51.773 30.6421 51.9955 29.7522 51.9955C28.8624 51.9955 27.9948 51.7952 27.3719 51.417L16.827 45.3215C16.2263 44.9655 15.8704 44.4984 15.8481 44.0089V42.4294L16.3376 42.9189L16.3153 42.8966Z" fill="#5979F1"/>
<path fill-rule="evenodd" clip-rule="evenodd" d="M43.1445 25.8348C43.7674 25.4788 44.635 25.2563 45.5248 25.2563C46.4147 25.2563 47.2823 25.4566 47.9052 25.8348L58.4501 31.9303C59.073 32.2863 59.4512 32.7979 59.4512 33.3096C59.4512 33.8213 59.0952 34.3329 58.4723 34.6889L32.1324 49.9055C31.5095 50.2615 30.6419 50.4839 29.752 50.4839C28.8622 50.4839 27.9945 50.2837 27.3716 49.9055L16.8268 43.81C16.2039 43.454 15.8257 42.9424 15.8257 42.4307C15.8257 41.919 16.1816 41.4073 16.8045 41.0514L43.1445 25.8348Z" fill="#262523"/>
<path fill-rule="evenodd" clip-rule="evenodd" d="M43.1212 25.9021C43.7441 25.5462 44.6117 25.3237 45.5016 25.3237C46.3915 25.3237 47.2591 25.5239 47.882 25.9021L58.3379 31.9532C58.9608 32.3092 59.3389 32.8208 59.3389 33.3325C59.3389 33.8442 58.983 34.3558 58.3601 34.7118L32.1092 49.8617C31.4863 50.2176 30.6186 50.4401 29.7288 50.4401C28.8389 50.4401 27.9713 50.2399 27.3484 49.8617L16.8925 43.8106C16.2696 43.4547 15.8914 42.943 15.8914 42.4313C15.8914 41.9197 16.2474 41.408 16.8703 41.052L43.1212 25.9021Z" fill="#829BF5"/>
<path opacity="0.43" fill-rule="evenodd" clip-rule="evenodd" d="M57.6064 35.1339L54.6031 33.3987C54.6031 33.3987 54.5586 33.3542 54.6031 33.332L57.6954 31.5522L57.8288 31.619L54.8033 33.3765L57.7399 35.0672L57.6064 35.1339Z" fill="#1C358F"/>
<path fill-rule="evenodd" clip-rule="evenodd" d="M43.1002 26.0345C43.7232 25.6785 44.5908 25.4561 45.4806 25.4561C46.3705 25.4561 47.2381 25.6563 47.861 26.0345L58.1167 31.9521C58.7396 32.308 59.1178 32.8197 59.1178 33.3313C59.1178 33.843 58.7618 34.3547 58.1389 34.7106L32.1772 49.7048C31.5543 50.0607 30.6867 50.2832 29.7968 50.2832C28.9069 50.2832 28.0393 50.083 27.4164 49.7048L17.1608 43.7872C16.5379 43.4313 16.1597 42.9196 16.1597 42.4079C16.1597 41.8963 16.5156 41.3846 17.1385 41.0286L43.1002 26.0345Z" fill="#1C358F"/>
<path opacity="0.43" fill-rule="evenodd" clip-rule="evenodd" d="M17.6525 40.6069L20.6557 42.3422C20.6557 42.3422 20.7002 42.3867 20.6557 42.4089L17.5635 44.1886L17.43 44.1219L20.4555 42.3644L17.519 40.6737L17.6525 40.6069Z" fill="#35342F"/>
<path opacity="0.43" fill-rule="evenodd" clip-rule="evenodd" d="M33.0455 49.3265L20.9434 42.3411L20.8099 42.4078L32.9121 49.3932L33.0455 49.3265Z" fill="#35342F"/>
<path opacity="0.43" fill-rule="evenodd" clip-rule="evenodd" d="M54.5574 33.2645L42.4553 26.2791L42.3218 26.3458L54.4239 33.3312L54.5574 33.2645Z" fill="#35342F"/>
<path fill-rule="evenodd" clip-rule="evenodd" d="M43.1206 26.1687C43.7435 25.8128 44.6111 25.5903 45.501 25.5903C46.3908 25.5903 47.2584 25.7906 47.8813 26.1687L57.8478 31.9306C58.4707 32.2865 58.8489 32.7982 58.8489 33.3099C58.8489 33.8216 58.493 34.3332 57.8478 34.6892L32.153 49.5276C31.5301 49.8836 30.6625 50.106 29.7726 50.106C28.8828 50.106 28.0152 49.9058 27.3923 49.5276L17.4258 43.7658C16.8029 43.4098 16.447 42.8982 16.447 42.3865C16.447 41.8748 16.8029 41.3631 17.4258 41.0072L43.1206 26.1687Z" fill="black"/>
<path fill-rule="evenodd" clip-rule="evenodd" d="M57.5829 32.1529L47.5275 26.3466C46.4597 25.7237 44.7022 25.7237 43.6343 26.3466L17.7394 41.2963C16.6715 41.9192 16.6715 42.9203 17.7394 43.5432L27.7948 49.3495C28.8626 49.9724 30.6201 49.9724 31.6879 49.3495L57.5829 34.3998C58.6508 33.7769 58.6508 32.7758 57.5829 32.1529Z" fill="white"/>
<path fill-rule="evenodd" clip-rule="evenodd" d="M54.5797 30.0394L51.176 28.0817C51.176 28.0817 51.1092 27.9927 51.176 27.9482L54.8022 30.0394C54.8022 30.0394 54.6464 30.0839 54.5797 30.0394Z" fill="#161616"/>
<path fill-rule="evenodd" clip-rule="evenodd" d="M54.5797 30.0394L51.176 28.0817C51.176 28.0817 51.1092 27.9927 51.176 27.9482L54.8022 30.0394C54.8022 30.0394 54.6464 30.0839 54.5797 30.0394Z" fill="#A6A5A0"/>
<mask id="mask0_187_4956" style="mask-type:luminance" maskUnits="userSpaceOnUse" x="51" y="27" width="4" height="4">
<path d="M51.2 27.9482C51.2 27.9482 51.1333 28.0372 51.2 28.0817L54.6037 30.0394C54.6037 30.0394 54.7595 30.0839 54.8262 30.0394L51.2 27.9482Z" fill="white"/>
</mask>
<g mask="url(#mask0_187_4956)">
<path fill-rule="evenodd" clip-rule="evenodd" d="M54.6037 30.0394L51.2 28.0817C51.2 28.0817 51.1333 27.9927 51.2 27.9482L54.8262 30.0394C54.8262 30.0394 54.6705 30.0839 54.6037 30.0394Z" fill="#161616"/>
</g>
<path fill-rule="evenodd" clip-rule="evenodd" d="M43.1421 26.1582C43.765 25.8023 44.6326 25.5798 45.5225 25.5798C46.4124 25.5798 47.28 25.7801 47.9029 26.1582L57.8693 31.9201C58.4923 32.276 58.8704 32.7877 58.8704 33.2994C58.8704 33.8111 58.5145 34.3227 57.8693 34.6787L32.1746 49.5171C31.5517 49.8731 30.6841 50.0955 29.7942 50.0955C28.9043 50.0955 28.0367 49.8953 27.4138 49.5171L17.4474 43.7553C16.8245 43.3993 16.4685 42.8877 16.4685 42.376C16.4685 41.8643 16.8245 41.3526 17.4474 40.9967L43.1421 26.1582Z" fill="#2F58EE" fill-opacity="0.2"/>
<path fill-rule="evenodd" clip-rule="evenodd" d="M52.2221 31.2622L49.0853 29.4603C48.7294 29.26 48.7294 28.9263 49.0853 28.7039C49.4413 28.5037 50.0197 28.5037 50.3756 28.7039L53.5124 30.5058C53.8683 30.7061 53.8683 31.0398 53.5124 31.2622C53.1564 31.4624 52.578 31.4624 52.2221 31.2622Z" fill="black"/>
<path fill-rule="evenodd" clip-rule="evenodd" d="M53.2214 30.6625C53.4216 30.7738 53.4216 30.9517 53.2214 31.0852C53.0212 31.1964 52.7098 31.1964 52.5095 31.0852C52.3093 30.974 52.3093 30.796 52.5095 30.6625C52.7098 30.5513 53.0212 30.5513 53.2214 30.6625Z" fill="#131416"/>
<path fill-rule="evenodd" clip-rule="evenodd" d="M53.0876 30.7286C53.2211 30.7954 53.2211 30.9288 53.0876 31.0178C52.9541 31.0846 52.7316 31.1068 52.5982 31.0178C52.4647 30.9511 52.4647 30.8176 52.5982 30.7286C52.7316 30.6619 52.9541 30.6396 53.0876 30.7286Z" fill="#252628"/>
<path fill-rule="evenodd" clip-rule="evenodd" d="M53.0647 30.7512C53.1759 30.818 53.1759 30.9292 53.0647 30.9959C52.9535 31.0627 52.7755 31.0627 52.642 30.9959C52.5308 30.9292 52.5308 30.818 52.642 30.7512C52.7533 30.6845 52.9312 30.6845 53.0647 30.7512Z" fill="#04132A"/>
<path fill-rule="evenodd" clip-rule="evenodd" d="M53.0447 30.8189C53.0447 30.8189 53.0669 30.9079 53.0002 30.9524C52.9334 30.9969 52.8222 31.0414 52.7555 30.9746C52.7332 30.9301 52.9557 30.7966 53.0447 30.8189Z" fill="#002599"/>
<path fill-rule="evenodd" clip-rule="evenodd" d="M52.9537 30.7518C52.9537 30.7518 52.9315 30.7963 52.8425 30.863C52.7535 30.9075 52.7312 30.9965 52.6423 30.9298C52.5533 30.8853 52.5978 30.8408 52.6867 30.7741C52.7757 30.7296 52.8647 30.6851 52.9537 30.7518Z" fill="#04132A"/>
<path opacity="0.43" fill-rule="evenodd" clip-rule="evenodd" d="M33.0448 49.3489L32.9335 49.4156V50.9284L33.0448 50.8616V49.3489Z" fill="#35342F"/>
<path opacity="0.43" fill-rule="evenodd" clip-rule="evenodd" d="M57.7598 35.0884L57.6263 35.1551V36.6679L57.7598 36.6011V35.0884Z" fill="#1C358F"/>
<path opacity="0.43" fill-rule="evenodd" clip-rule="evenodd" d="M17.564 44.2321L17.4305 44.1431V45.6558L17.564 45.7226V44.2321Z" fill="#35342F"/>
<path fill-rule="evenodd" clip-rule="evenodd" d="M59.4519 33.4206C59.4519 33.91 59.0737 34.3994 58.473 34.7554L32.1331 49.972C31.5102 50.3279 30.6426 50.5504 29.7527 50.5504C28.8629 50.5504 27.9953 50.3502 27.3723 49.972L16.8275 43.8764C16.2268 43.5205 15.8709 43.0533 15.8486 42.5639V42.4527C15.8709 42.9421 16.2268 43.4093 16.8275 43.7652L27.3723 49.8608C27.9953 50.2167 28.8629 50.4392 29.7527 50.4392C30.6426 50.4392 31.5102 50.239 32.1331 49.8608L58.473 34.6441C59.0959 34.2882 59.4296 33.821 59.4519 33.3093V33.4206Z" fill="#262523"/>
<path fill-rule="evenodd" clip-rule="evenodd" d="M52.044 39.0259L51.9773 38.9814C51.9551 38.9814 51.9106 38.9814 51.8661 38.9814L48.7738 40.7612C48.7738 40.7612 48.5958 40.9836 48.5958 41.1171C48.5958 41.1839 48.5958 41.2283 48.6403 41.2506C48.6403 41.2506 48.6403 41.2506 48.6626 41.2506L48.7293 41.2951V41.2506H48.7738L51.8661 39.4709C51.8661 39.4709 52.044 39.2484 52.044 39.1149C52.044 39.0927 52.044 39.0704 52.044 39.0482V39.0037V39.0259Z" fill="url(#paint2_linear_187_4956)"/>
<path fill-rule="evenodd" clip-rule="evenodd" d="M52.1098 39.1826C52.1098 39.0491 52.0208 38.9824 51.9318 39.0491L48.8395 40.8289C48.8395 40.8289 48.6616 41.0513 48.6616 41.1848C48.6616 41.3183 48.7505 41.385 48.8395 41.3183L51.9318 39.5386C51.9318 39.5386 52.1098 39.3161 52.1098 39.1826Z" fill="#605F5A"/>
<path fill-rule="evenodd" clip-rule="evenodd" d="M23.5236 48.3045C23.5236 48.3045 23.6571 48.4379 23.6571 48.5269C23.6571 48.6159 23.6126 48.6382 23.5236 48.5937C23.4569 48.5492 23.3901 48.4602 23.3901 48.3712C23.3901 48.2822 23.4346 48.26 23.5236 48.3045Z" fill="black"/>
<path fill-rule="evenodd" clip-rule="evenodd" d="M20.3878 46.7905C20.3878 46.7905 20.2543 46.657 20.2543 46.568C20.2543 46.479 20.2988 46.4568 20.3878 46.5013C20.4545 46.5457 20.5212 46.6347 20.5212 46.7237C20.5212 46.8127 20.4767 46.835 20.3878 46.7905Z" fill="black"/>
<path fill-rule="evenodd" clip-rule="evenodd" d="M24.4149 48.8152C24.4149 48.8152 24.5484 48.9487 24.5484 49.0377C24.5484 49.1267 24.5039 49.1489 24.4149 49.1044C24.3482 49.0599 24.2814 48.9709 24.2814 48.882C24.2814 48.793 24.3259 48.7707 24.4149 48.8152Z" fill="black"/>
<path fill-rule="evenodd" clip-rule="evenodd" d="M19.4965 46.2582C19.4965 46.2582 19.363 46.1248 19.363 46.0358C19.363 45.9468 19.4075 45.9245 19.4965 45.969C19.5632 46.0135 19.6299 46.1025 19.6299 46.1915C19.6299 46.2805 19.5854 46.3027 19.4965 46.2582Z" fill="black"/>
<path fill-rule="evenodd" clip-rule="evenodd" d="M25.1712 49.2608C25.1712 49.2608 25.3047 49.3943 25.3047 49.4832C25.3047 49.5722 25.2602 49.5945 25.1712 49.55C25.1045 49.5055 25.0377 49.4165 25.0377 49.3275C25.0377 49.2385 25.0822 49.2163 25.1712 49.2608Z" fill="black"/>
<path fill-rule="evenodd" clip-rule="evenodd" d="M18.7402 45.8351C18.7402 45.8351 18.6067 45.7017 18.6067 45.6127C18.6067 45.5237 18.6512 45.5014 18.7402 45.5459C18.8069 45.5904 18.8736 45.6794 18.8736 45.7684C18.8736 45.8574 18.8292 45.8796 18.7402 45.8351Z" fill="black"/>
<path fill-rule="evenodd" clip-rule="evenodd" d="M24.7922 49.0393C24.7922 49.0393 24.9257 49.1728 24.9257 49.2618C24.9257 49.3508 24.8812 49.373 24.7922 49.3285C24.7255 49.284 24.6588 49.1951 24.6588 49.1061C24.6588 49.0171 24.7032 48.9948 24.7922 49.0393Z" fill="black"/>
<path fill-rule="evenodd" clip-rule="evenodd" d="M19.1174 46.0566C19.1174 46.0566 18.9839 45.9231 18.9839 45.8341C18.9839 45.7451 19.0284 45.7229 19.1174 45.7674C19.1842 45.8119 19.2509 45.9008 19.2509 45.9898C19.2509 46.0788 19.2064 46.1011 19.1174 46.0566Z" fill="black"/>
<path fill-rule="evenodd" clip-rule="evenodd" d="M25.5277 49.4822C25.5277 49.4822 25.6612 49.6157 25.6612 49.7047C25.6612 49.7937 25.6167 49.8159 25.5277 49.7714C25.461 49.7269 25.3942 49.6379 25.3942 49.5489C25.3942 49.46 25.4387 49.4377 25.5277 49.4822Z" fill="black"/>
<path fill-rule="evenodd" clip-rule="evenodd" d="M25.905 49.6839C25.905 49.6839 26.0385 49.8173 26.0385 49.9063C26.0385 49.9953 25.994 50.0176 25.905 49.9731C25.8383 49.9286 25.7715 49.8396 25.7715 49.7506C25.7715 49.6616 25.816 49.6394 25.905 49.6839Z" fill="black"/>
<path fill-rule="evenodd" clip-rule="evenodd" d="M23.1652 48.2374C23.1652 48.015 23.0317 47.748 22.8537 47.659L21.0295 46.6134C20.8516 46.5245 20.7181 46.6134 20.7181 46.8359C20.7181 47.0584 20.8516 47.3253 21.0295 47.4143L22.8537 48.4599C23.0317 48.5489 23.1652 48.4599 23.1652 48.2374Z" fill="black"/>
<g opacity="0.3" filter="url(#filter1_f_187_4956)">
<path d="M39.6104 40.8039C42.89 40.8039 45.5486 39.5471 45.5486 37.9967C45.5486 36.4463 42.89 35.1895 39.6104 35.1895C36.3308 35.1895 33.6722 36.4463 33.6722 37.9967C33.6722 39.5471 36.3308 40.8039 39.6104 40.8039Z" fill="url(#paint3_linear_187_4956)"/>
</g>
<path d="M33.554 25.1172C33.554 27.1416 34.9555 29.5665 36.713 30.5898C37.5806 31.0793 38.3815 31.146 38.9599 30.8123L40.8064 29.7445C40.228 30.0782 39.4271 30.0337 38.5595 29.522C36.802 28.4987 35.3782 26.0515 35.3782 24.0493C35.3782 23.0482 35.7342 22.3586 36.3126 22.0249L34.4661 23.0927C33.91 23.4264 33.554 24.1161 33.554 25.1172Z" fill="#DE4351"/>
<path d="M34.6944 19.1965L32.8479 20.2643C33.849 19.6859 35.2283 19.7749 36.741 20.6425L38.5875 19.5747C37.0747 18.6848 35.6732 18.6181 34.6944 19.1965Z" fill="#CE3E50"/>
<path d="M36.6934 39.8846L38.5398 38.8168C38.8068 38.5053 44.0347 32.521 44.0347 29.0283C44.0347 25.5356 41.6098 21.3087 38.5843 19.5735L36.7379 20.6413C39.7634 22.3766 42.1883 26.6256 42.1883 30.0961C42.1883 33.5666 36.9603 39.5731 36.6934 39.8846Z" fill="#DE4351"/>
<path d="M31.2454 23.78C31.2454 27.2727 36.4288 39.2636 36.6958 39.8865C36.9627 39.575 42.1907 33.5907 42.1907 30.098C42.1907 26.6275 39.7658 22.3785 36.7403 20.6432C33.7147 18.8857 31.2454 20.3095 31.2454 23.78ZM33.559 25.1148C33.559 23.1126 34.9828 22.2895 36.7403 23.3128C38.4755 24.3139 39.8993 26.761 39.8993 28.7632C39.8993 30.7877 38.4755 31.5885 36.718 30.5874C34.9605 29.5641 33.559 27.117 33.559 25.1148Z" fill="#F1565D"/>
<g opacity="0.5">
<path d="M42.1556 30.1283C42.1556 28.4153 41.5772 26.5244 40.5984 24.8336C40.5984 24.8114 40.5761 24.7669 40.5539 24.7447C40.3759 24.3887 40.1757 24.0328 39.931 23.6991C39.3303 22.8537 38.6184 22.0751 37.7953 21.4299C37.7063 21.3409 37.6173 21.2742 37.5283 21.2075C37.4393 21.1407 37.3504 21.074 37.2614 21.0295C37.2169 21.0295 37.1946 20.985 37.1724 20.9627C37.1057 20.9183 37.0167 20.8738 36.9499 20.8293C36.8832 20.7625 36.7942 20.718 36.7052 20.6958C36.594 20.629 36.4827 20.5623 36.3715 20.5178C36.1713 20.4066 35.9488 20.3176 35.7264 20.2286C35.6374 20.1841 35.5484 20.1619 35.4594 20.1396C35.4372 20.1396 35.3927 20.1396 35.3704 20.1174C35.2814 20.0951 35.1924 20.0729 35.1035 20.0506C34.9922 20.0284 34.9032 20.0061 34.792 19.9839C34.7253 19.9839 34.6808 19.9839 34.614 19.9839C34.5473 19.9839 34.4806 19.9839 34.3916 19.9839C34.3693 19.9839 34.3471 19.9839 34.3248 19.9839C35.5039 19.9394 36.6607 20.4511 37.6173 21.1185C38.5739 21.7859 39.397 22.6535 40.1089 23.6101C41.4437 25.501 42.2001 27.8147 42.1334 30.1728L42.1556 30.1283Z" fill="white"/>
</g>
<g opacity="0.5">
<path d="M36.7889 30.6977C35.7656 30.2082 34.9647 29.3406 34.3863 28.3618C33.8301 27.3829 33.4742 26.2483 33.5632 25.1138C33.6077 25.5809 33.6966 26.0481 33.8301 26.4931C33.8524 26.582 33.8746 26.6488 33.8969 26.7378C33.9636 27.0047 34.0748 27.2939 34.2083 27.5609C34.3195 27.8056 34.4308 28.0503 34.5865 28.2728C34.6532 28.4063 34.72 28.5175 34.809 28.6287C35.0314 28.9624 35.2762 29.2739 35.5431 29.5853C35.6321 29.6966 35.7433 29.8078 35.8546 29.8968C36.1438 30.186 36.433 30.4529 36.7667 30.6977H36.7889Z" fill="white"/>
</g>
<defs>
<filter id="filter0_f_187_4956" x="19.5588" y="29.124" width="43.4019" height="25.144" filterUnits="userSpaceOnUse" color-interpolation-filters="sRGB">
<feFlood flood-opacity="0" result="BackgroundImageFix"/>
<feBlend mode="normal" in="SourceGraphic" in2="BackgroundImageFix" result="shape"/>
<feGaussianBlur stdDeviation="0.25" result="effect1_foregroundBlur_187_4956"/>
</filter>
<filter id="filter1_f_187_4956" x="32.6722" y="34.1895" width="13.8764" height="7.6145" filterUnits="userSpaceOnUse" color-interpolation-filters="sRGB">
<feFlood flood-opacity="0" result="BackgroundImageFix"/>
<feBlend mode="normal" in="SourceGraphic" in2="BackgroundImageFix" result="shape"/>
<feGaussianBlur stdDeviation="0.5" result="effect1_foregroundBlur_187_4956"/>
</filter>
<linearGradient id="paint0_linear_187_4956" x1="31.4349" y1="37.8073" x2="42.7544" y2="53.955" gradientUnits="userSpaceOnUse">
<stop/>
<stop offset="1" stop-opacity="0"/>
</linearGradient>
<linearGradient id="paint1_linear_187_4956" x1="15.8264" y1="39.3596" x2="59.4519" y2="39.3596" gradientUnits="userSpaceOnUse">
<stop stop-color="#353431"/>
<stop offset="0.01" stop-color="#D1CFC8"/>
<stop offset="0.04" stop-color="#95938D"/>
<stop offset="0.06" stop-color="#696762"/>
<stop offset="0.08" stop-color="#4E4C47"/>
<stop offset="0.09" stop-color="#44433E"/>
<stop offset="0.22" stop-color="#44433E"/>
<stop offset="0.3" stop-color="#C3C0B9"/>
<stop offset="0.31" stop-color="#353431"/>
<stop offset="0.33" stop-color="#353431"/>
<stop offset="0.34" stop-color="#353431"/>
<stop offset="0.35" stop-color="#D1CFC8"/>
<stop offset="0.38" stop-color="#95938D"/>
<stop offset="0.42" stop-color="#696762"/>
<stop offset="0.44" stop-color="#4E4C47"/>
<stop offset="0.45" stop-color="#44433E"/>
<stop offset="0.9" stop-color="#44433E"/>
<stop offset="0.99" stop-color="#353431"/>
<stop offset="1" stop-color="#353431"/>
</linearGradient>
<linearGradient id="paint2_linear_187_4956" x1="49.0852" y1="41.5398" x2="51.5769" y2="38.6255" gradientUnits="userSpaceOnUse">
<stop stop-color="#262523"/>
<stop offset="0.08" stop-color="#262523"/>
<stop offset="0.1" stop-color="#444340"/>
<stop offset="0.14" stop-color="#817F7A"/>
<stop offset="0.18" stop-color="#ADABA5"/>
<stop offset="0.21" stop-color="#C8C6BF"/>
<stop offset="0.23" stop-color="#D3D0C9"/>
<stop offset="0.25" stop-color="#D3D0C9"/>
<stop offset="0.37" stop-color="#262523"/>
<stop offset="0.86" stop-color="#262523"/>
<stop offset="0.88" stop-color="#444340"/>
<stop offset="0.9" stop-color="#817F7A"/>
<stop offset="0.93" stop-color="#ADABA5"/>
<stop offset="0.95" stop-color="#C8C6BF"/>
<stop offset="0.96" stop-color="#D3D0C9"/>
<stop offset="0.99" stop-color="#262523"/>
<stop offset="1" stop-color="#262523"/>
</linearGradient>
<linearGradient id="paint3_linear_187_4956" x1="41.1005" y1="34.868" x2="37.3577" y2="40.317" gradientUnits="userSpaceOnUse">
<stop stop-color="#2F58EE" stop-opacity="0.02"/>
<stop offset="1" stop-color="#1C358F"/>
</linearGradient>
</defs>
</svg>
