<svg width="24" height="24" viewBox="0 0 24 24" fill="none" xmlns="http://www.w3.org/2000/svg">
<path d="M2 6L8.91 9.92C11.46 11.36 12.54 11.36 15.08 9.92L21.99 6" stroke="#E87A4F" stroke-width="1.25" stroke-linejoin="round"/>
<path d="M2.01988 13.48C2.08988 16.55 2.11988 18.08 3.24988 19.21C4.37988 20.35 5.95988 20.38 9.09988 20.46C11.0399 20.51 12.9599 20.51 14.8999 20.46C18.0499 20.38 19.6199 20.34 20.7499 19.21C21.8799 18.07 21.9099 16.54 21.9799 13.48C21.9999 12.49 21.9999 11.51 21.9799 10.53C21.9099 7.46001 21.8799 5.93001 20.7499 4.80001C19.6199 3.66001 18.0399 3.63001 14.8999 3.55001C12.9599 3.50001 11.0399 3.50001 9.09988 3.55001C5.94988 3.63001 4.37988 3.67001 3.24988 4.80001C2.11988 5.94001 2.08988 7.47001 2.01988 10.53C1.99988 11.52 1.99988 12.5 2.01988 13.48Z" stroke="#E87A4F" stroke-width="1.25" stroke-linejoin="round"/>
</svg>
