<svg width="72" height="72" viewBox="0 0 72 72" fill="none" xmlns="http://www.w3.org/2000/svg">
<g opacity="0.2" filter="url(#filter0_f_187_5488)">
<path d="M52.1177 51.2517L45.8569 54.9529C46.7316 55.4541 46.7402 56.7126 45.8725 57.2257L40.6245 60.3289L33.4106 56.1433L39.688 52.4656L37.7114 51.3191L44.8931 47.1121L52.1177 51.2517Z" fill="url(#paint0_linear_187_5488)"/>
</g>
<path d="M44.091 48.3549L46.0428 49.5043C46.7368 49.8947 47.5826 49.4176 47.6259 48.6368V47.9429L47.4741 48.0296V48.4417C47.4741 49.2441 46.585 49.7645 45.891 49.3525L43.9392 48.2031L44.091 48.3549Z" fill="#A65AD7"/>
<path d="M26.1766 21.248L30.1886 23.5685L30.1453 40.3973C29.0609 39.7684 27.326 39.7684 26.2417 40.3973C26.1983 40.419 26.1549 40.4407 26.1116 40.484L26.1766 21.248Z" fill="#5188D1"/>
<path d="M30.2608 18.9258L30.2129 23.3951L26.3996 21.265C25.8574 20.9614 25.4945 20.5568 25.5286 20.0337C25.5286 19.9036 25.5503 19.7734 25.6153 19.6216C25.637 19.5566 25.6804 19.4915 25.7238 19.4265C25.7671 19.3614 25.8322 19.2747 25.8972 19.2096C25.9189 19.1879 25.9406 19.1662 25.9623 19.1445C26.0707 19.0578 26.1792 18.971 26.3093 18.906C27.3719 18.2771 29.1765 18.2969 30.2608 18.9258Z" fill="#641B9A"/>
<path d="M47.5423 30.724L47.499 48.572C47.499 49.3744 46.6098 49.8949 45.9158 49.4828L30.1714 40.3962L30.2364 18.9048L45.9809 27.9915C46.9568 28.5553 47.564 29.6179 47.564 30.7457L47.5423 30.724Z" fill="#3B679D"/>
<path d="M45.9682 27.974C46.9441 28.5379 47.5514 29.6005 47.5514 30.7282L47.508 45.7353V48.5763C47.508 49.3787 46.6188 49.8991 45.9249 49.4871L30.1804 40.4004V38.145L30.2279 18.9048L34.2575 21.2295L45.9682 27.9957V27.974Z" fill="url(#paint1_linear_187_5488)"/>
<path d="M45.9682 27.974C46.9441 28.5379 47.5514 29.6005 47.5514 30.7282L47.508 45.7353V48.5763C47.508 49.3787 46.6188 49.8991 45.9249 49.4871L30.1804 40.4004V38.145L30.2279 18.9048L34.2575 21.2295L45.9682 27.9957V27.974Z" fill="black" fill-opacity="0.3"/>
<path d="M30.7093 20.3572C29.7334 19.7934 28.1503 19.7934 27.1744 20.3572C26.6973 20.6391 26.4587 21.0078 26.4587 21.3765L26.3937 40.9595C26.3937 40.5908 26.6322 40.2221 27.1093 39.9402C28.0852 39.3763 29.6683 39.3763 30.6442 39.9402L46.4321 49.0485L46.4971 29.4656L30.7093 20.3572Z" fill="url(#paint2_linear_187_5488)"/>
<path d="M30.7093 20.3572C29.7334 19.7934 28.1503 19.7934 27.1744 20.3572C26.6973 20.6391 26.4587 21.0078 26.4587 21.3765L26.3937 40.9595C26.3937 40.5908 26.6322 40.2221 27.1093 39.9402C28.0852 39.3763 29.6683 39.3763 30.6442 39.9402L46.4321 49.0485L46.4971 29.4656L30.7093 20.3572Z" fill="black" fill-opacity="0.3"/>
<path d="M27.0459 22.4805C26.5038 22.1769 26.2435 21.7648 26.2435 21.3528L26.1785 40.9358C26.1785 41.3478 26.4387 41.7382 26.9809 42.0635L42.7687 51.1718L42.8337 31.5888L27.0459 22.4805Z" fill="#5188D1"/>
<path d="M26.2256 21.1534L26.1442 40.4862V42.7692C25.5586 42.4223 25.2231 41.9566 25.2231 41.5228L25.3364 19.939C25.3364 19.939 25.3364 20.004 25.3364 20.0257C25.3364 20.0908 25.3364 20.1341 25.3581 20.1992C25.3581 20.2209 25.3581 20.2643 25.3798 20.2859C25.3798 20.351 25.4232 20.3944 25.4449 20.4378C25.4665 20.4811 25.5099 20.5245 25.5316 20.5896C25.6834 20.8064 25.922 20.9799 26.2256 21.1534Z" fill="#A65FD2"/>
<path d="M30.3628 18.8159L46.1073 27.9026C47.0832 28.4664 47.6904 29.5291 47.6904 30.6568L47.6253 48.2229L47.502 48.1865L47.5169 30.7435C47.5169 29.6158 46.9097 28.5532 45.9338 27.9893L30.1893 18.9027L30.3411 18.8159H30.3628Z" fill="#A65AD7"/>
<path d="M44.8086 23.8692L31.4931 16.1705C31.1894 15.997 30.9509 16.1271 30.9509 16.4741V25.9728C30.9292 26.3198 31.1678 26.7536 31.4714 26.927L44.7869 34.6258C45.0905 34.7993 45.3291 34.6691 45.3291 34.3222V28.2282L30.9292 19.9006L30.9493 17.9672L45.3508 26.2764V24.8234C45.3508 24.4765 45.1122 24.0427 44.8086 23.8692Z" fill="url(#paint3_linear_187_5488)"/>
<path d="M45.329 30.9963V33.4739L30.9374 25.1516L30.9296 22.6682L45.329 30.9963Z" fill="url(#paint4_linear_187_5488)"/>
<path d="M45.3508 26.2778L30.9565 17.9673L30.9292 19.9236L45.3508 28.2513V26.2778Z" fill="#7F3436"/>
<path d="M43.5922 30.0158C43.593 29.9434 43.5546 29.8762 43.4918 29.8401L40.0767 27.8769C40.03 27.8501 39.9718 27.8838 39.9718 27.9376V29.6531C39.9718 29.7245 40.0099 29.7905 40.0717 29.8262L43.4681 31.7904C43.5144 31.8172 43.5725 31.7841 43.5731 31.7306L43.5922 30.0158Z" fill="#B35154"/>
<path d="M36.2866 25.8052C36.2866 25.7338 36.2485 25.6678 36.1867 25.6321L32.7917 23.6687C32.745 23.6417 32.6866 23.6753 32.6866 23.7293V23.9263C32.6866 23.9977 32.7247 24.0637 32.7865 24.0994L36.1816 26.0628C36.2282 26.0898 36.2866 26.0561 36.2866 26.0022V25.8052Z" fill="#9E4749"/>
<path d="M36.2866 27.2086L32.6866 25.1267V25.5604L36.2866 27.6424V27.2086Z" fill="#5188D1"/>
<path d="M30.7913 35.9021V25.0588L45.3429 33.4732L45.2996 43.2105C45.2996 43.6876 44.7791 43.9912 44.3454 43.7527L30.7913 35.9238V35.9021Z" fill="url(#paint5_linear_187_5488)"/>
<path d="M30.7913 35.9021V25.0588L45.3429 33.4732L45.2996 43.2105C45.2996 43.6876 44.7791 43.9912 44.3454 43.7527L30.7913 35.9238V35.9021Z" fill="black" fill-opacity="0.3"/>
<path opacity="0.5" d="M45.4192 45.8801V46.7475C45.3975 47.0728 45.0505 47.268 44.7686 47.0945L42.383 45.7066C42.1879 45.5982 42.0577 45.3813 42.0577 45.1427V44.2753C42.0794 43.95 42.4264 43.7548 42.7083 43.9283L45.0939 45.3162C45.289 45.4247 45.4192 45.6415 45.4192 45.8801Z" fill="white"/>
<path d="M30.1937 18.9047C29.1094 18.2757 27.3927 18.3219 26.3084 18.9508C26.1783 19.0375 26.0482 19.1026 25.9614 19.1893C25.9397 19.211 25.9181 19.2327 25.8964 19.2544C25.8313 19.3195 25.7663 19.3845 25.7229 19.4713C25.6795 19.5363 25.6361 19.6014 25.6144 19.6664C25.5494 19.7966 25.5277 19.9267 25.5277 20.0785C25.5277 20.4905 25.7879 20.9026 26.3301 21.2062L30.212 23.4399L42.0745 30.2929C43.0504 30.8567 43.6577 31.9193 43.6577 33.047L43.5926 50.6132L43.4408 50.6999L43.5059 33.1338C43.5059 32.0061 42.8986 30.9434 41.9227 30.3796L30.212 23.6134L26.2 21.2929C25.8964 21.1194 25.6795 20.9243 25.5277 20.7074C25.506 20.664 25.4626 20.6206 25.441 20.5556C25.4193 20.5122 25.3976 20.4472 25.3759 20.4038C25.3759 20.3821 25.3759 20.3387 25.3542 20.317C25.3542 20.252 25.3325 20.2086 25.3325 20.1435C25.3325 20.1219 25.3325 20.0785 25.3325 20.0568C25.3325 19.6231 25.6144 19.1893 26.2 18.8423C27.3494 18.1701 29.2361 18.1701 30.4072 18.8423L30.1937 18.9047Z" fill="#A65AD7"/>
<path d="M40.0565 50.673L42.0083 51.8224C42.7022 52.2128 43.548 51.7357 43.5914 50.955V50.261L43.4396 50.3477V50.7598C43.4396 51.5622 42.5504 52.0827 41.8565 51.6706L39.9047 50.5212L40.0565 50.673Z" fill="#A65AD7"/>
<path d="M41.9223 30.3541C42.8982 30.918 43.5055 31.959 43.5055 33.0867L43.4621 48.0938V50.9347C43.4621 51.7371 42.5729 52.2576 41.879 51.8455L26.1345 42.7589V40.5035L26.221 21.3022L30.2116 23.5879L41.9223 30.3541Z" fill="url(#paint6_linear_187_5488)"/>
<path d="M42.5063 50.1765C42.5063 50.2364 42.4578 50.285 42.3979 50.285C42.338 50.285 42.2895 50.2364 42.2895 50.1765V49.9597C42.2895 49.8998 42.338 49.8512 42.3979 49.8512C42.4578 49.8512 42.5063 49.8998 42.5063 49.9597V50.1765ZM42.5063 49.3308C42.5063 49.3906 42.4578 49.4392 42.3979 49.4392C42.338 49.4392 42.2895 49.3906 42.2895 49.3308V49.1139C42.2895 49.054 42.338 49.0055 42.3979 49.0055C42.4578 49.0055 42.5063 49.054 42.5063 49.1139V49.3308ZM42.5063 48.485C42.5063 48.5449 42.4578 48.5934 42.3979 48.5934C42.338 48.5934 42.2895 48.5449 42.2895 48.485V48.2681C42.2895 48.2082 42.338 48.1597 42.3979 48.1597C42.4578 48.1597 42.5063 48.2082 42.5063 48.2681V48.485ZM42.5063 47.6392C42.5063 47.6991 42.4578 47.7476 42.3979 47.7476C42.338 47.7476 42.2895 47.6991 42.2895 47.6392V47.4223C42.2895 47.3625 42.338 47.3139 42.3979 47.3139C42.4578 47.3139 42.5063 47.3625 42.5063 47.4223V47.6392ZM42.5063 46.7934C42.5063 46.8533 42.4578 46.9019 42.3979 46.9019C42.338 46.9019 42.2895 46.8533 42.2895 46.7934V46.5766C42.2895 46.5167 42.338 46.4681 42.3979 46.4681C42.4578 46.4681 42.5063 46.5167 42.5063 46.5766V46.7934ZM42.5063 45.9477C42.5063 46.0075 42.4578 46.0561 42.3979 46.0561C42.338 46.0561 42.2895 46.0075 42.2895 45.9477V45.7308C42.2895 45.6709 42.338 45.6224 42.3979 45.6224C42.4578 45.6224 42.5063 45.6709 42.5063 45.7308V45.9477ZM42.528 45.1019C42.528 45.1618 42.4795 45.2103 42.4196 45.2103C42.3597 45.2103 42.3112 45.1618 42.3112 45.1019V44.885C42.3112 44.8251 42.3597 44.7766 42.4196 44.7766C42.4795 44.7766 42.528 44.8251 42.528 44.885V45.1019ZM42.528 44.2561C42.528 44.316 42.4795 44.3645 42.4196 44.3645C42.3597 44.3645 42.3112 44.316 42.3112 44.2561V44.0392C42.3112 43.9794 42.3597 43.9308 42.4196 43.9308C42.4795 43.9308 42.528 43.9794 42.528 44.0392V44.2561ZM42.528 43.4103C42.528 43.4702 42.4795 43.5188 42.4196 43.5188C42.3597 43.5188 42.3112 43.4702 42.3112 43.4103V43.1935C42.3112 43.1336 42.3597 43.085 42.4196 43.085C42.4795 43.085 42.528 43.1336 42.528 43.1935V43.4103ZM42.528 42.5646C42.528 42.6244 42.4795 42.673 42.4196 42.673C42.3597 42.673 42.3112 42.6244 42.3112 42.5646V42.3477C42.3112 42.2878 42.3597 42.2393 42.4196 42.2393C42.4795 42.2393 42.528 42.2878 42.528 42.3477V42.5646ZM42.528 41.7188C42.528 41.7787 42.4795 41.8272 42.4196 41.8272C42.3597 41.8272 42.3112 41.7787 42.3112 41.7188V41.5019C42.3112 41.442 42.3597 41.3935 42.4196 41.3935C42.4795 41.3935 42.528 41.442 42.528 41.5019V41.7188ZM42.528 40.873C42.528 40.9329 42.4795 40.9814 42.4196 40.9814C42.3597 40.9814 42.3112 40.9329 42.3112 40.873V40.6561C42.3112 40.5963 42.3597 40.5477 42.4196 40.5477C42.4795 40.5477 42.528 40.5963 42.528 40.6561V40.873ZM42.528 40.0055C42.528 40.0654 42.4795 40.114 42.4196 40.114C42.3597 40.114 42.3112 40.0654 42.3112 40.0055V39.7887C42.3112 39.7288 42.3597 39.6802 42.4196 39.6802C42.4795 39.6802 42.528 39.7288 42.528 39.7887V40.0055ZM42.528 39.1598C42.528 39.2196 42.4795 39.2682 42.4196 39.2682C42.3597 39.2682 42.3112 39.2196 42.3112 39.1598V38.9429C42.3112 38.883 42.3597 38.8345 42.4196 38.8345C42.4795 38.8345 42.528 38.883 42.528 38.9429V39.1598ZM42.528 38.314C42.528 38.3739 42.4795 38.4224 42.4196 38.4224C42.3597 38.4224 42.3112 38.3739 42.3112 38.314V38.0971C42.3112 38.0372 42.3597 37.9887 42.4196 37.9887C42.4795 37.9887 42.528 38.0372 42.528 38.0971V38.314ZM42.5497 37.4682C42.5497 37.5281 42.5012 37.5766 42.4413 37.5766C42.3814 37.5766 42.3328 37.5281 42.3328 37.4682V37.2513C42.3328 37.1915 42.3814 37.1429 42.4413 37.1429C42.5012 37.1429 42.5497 37.1915 42.5497 37.2513V37.4682ZM42.5497 36.6224C42.5497 36.6823 42.5012 36.7309 42.4413 36.7309C42.3814 36.7309 42.3328 36.6823 42.3328 36.6224V36.4056C42.3328 36.3457 42.3814 36.2971 42.4413 36.2971C42.5012 36.2971 42.5497 36.3457 42.5497 36.4056V36.6224ZM42.5497 35.7767C42.5497 35.8365 42.5012 35.8851 42.4413 35.8851C42.3814 35.8851 42.3328 35.8365 42.3328 35.7767V35.5598C42.3328 35.4999 42.3814 35.4514 42.4413 35.4514C42.5012 35.4514 42.5497 35.4999 42.5497 35.5598V35.7767ZM42.5497 34.9309C42.5497 34.9908 42.5012 35.0393 42.4413 35.0393C42.3814 35.0393 42.3328 34.9908 42.3328 34.9309V34.714C42.3328 34.6541 42.3814 34.6056 42.4413 34.6056C42.5012 34.6056 42.5497 34.6541 42.5497 34.714V34.9309ZM42.5497 34.0851C42.5497 34.145 42.5012 34.1935 42.4413 34.1935C42.3814 34.1935 42.3328 34.145 42.3328 34.0851V33.8682C42.3328 33.8084 42.3814 33.7598 42.4413 33.7598C42.5012 33.7598 42.5497 33.8084 42.5497 33.8682V34.0851ZM42.5497 33.3261C42.5497 33.3381 42.54 33.3478 42.528 33.3478H42.4413C42.3814 33.3478 42.3328 33.2992 42.3328 33.2393V33.0658C42.3328 33.0516 42.3328 33.0374 42.3328 33.0225C42.3328 32.9626 42.3814 32.914 42.4413 32.914C42.5012 32.914 42.5497 32.9626 42.5497 33.0225C42.5497 33.0304 42.5497 33.0377 42.5497 33.0442V33.3261ZM42.2678 32.5476C42.2678 32.5461 42.2675 32.5446 42.2671 32.5432C42.2369 32.4528 42.2067 32.3624 42.1692 32.2794C42.1439 32.2234 42.1655 32.1547 42.2217 32.1297C42.2718 32.1074 42.3307 32.1284 42.3535 32.1782C42.3906 32.2593 42.4245 32.3447 42.4461 32.4254C42.4578 32.4691 42.4314 32.5125 42.3886 32.5268L42.2862 32.5609C42.2771 32.5639 42.2678 32.5572 42.2678 32.5476ZM41.8978 31.8311C41.8985 31.8303 41.8987 31.8292 41.898 31.8284C41.8862 31.8152 41.7867 31.7043 41.6944 31.6164C41.6535 31.5774 41.6477 31.5122 41.6845 31.4693C41.7195 31.4284 41.7809 31.4224 41.8209 31.4584C41.9008 31.5303 41.9778 31.6141 42.0433 31.7099C42.0476 31.7163 42.0461 31.7249 42.04 31.7295L41.9004 31.8341C41.8984 31.8357 41.896 31.8329 41.8978 31.8311ZM41.3447 31.2248C41.3153 31.2718 41.2538 31.2868 41.2061 31.2588L41.0138 31.1456C40.9642 31.1164 40.9484 31.0521 40.9789 31.0033C41.0083 30.9563 41.0697 30.9412 41.1175 30.9693L41.3098 31.0825C41.3594 31.1117 41.3752 31.176 41.3447 31.2248ZM40.6073 30.7911C40.5779 30.8381 40.5165 30.8531 40.4688 30.825L40.2764 30.7119C40.2268 30.6827 40.2111 30.6184 40.2416 30.5696C40.2709 30.5226 40.3324 30.5075 40.3801 30.5356L40.5724 30.6487C40.6221 30.6779 40.6378 30.7423 40.6073 30.7911ZM39.8917 30.379C39.8623 30.426 39.8008 30.4411 39.7531 30.413L39.5608 30.2998C39.5112 30.2707 39.4954 30.2063 39.5259 30.1575C39.5553 30.1105 39.6167 30.0955 39.6645 30.1236L39.8568 30.2367C39.9064 30.2659 39.9222 30.3302 39.8917 30.379ZM39.1543 29.9453C39.1249 29.9923 39.0635 30.0073 39.0157 29.9792L38.8234 29.8661C38.7738 29.8369 38.7581 29.7726 38.7886 29.7238C38.8179 29.6768 38.8794 29.6617 38.9271 29.6898L39.1194 29.803C39.1691 29.8321 39.1848 29.8965 39.1543 29.9453ZM38.417 29.5333C38.3876 29.5802 38.3262 29.5953 38.2784 29.5672L38.0861 29.4541C38.0365 29.4249 38.0207 29.3605 38.0512 29.3117C38.0806 29.2647 38.142 29.2497 38.1898 29.2778L38.3821 29.3909C38.4317 29.4201 38.4475 29.4845 38.417 29.5333ZM37.6796 29.0995C37.6503 29.1465 37.5888 29.1616 37.5411 29.1335L37.3487 29.0203C37.2991 28.9912 37.2834 28.9268 37.3139 28.878C37.3432 28.831 37.4047 28.816 37.4524 28.8441L37.6448 28.9572C37.6944 28.9864 37.7101 29.0507 37.6796 29.0995ZM36.9423 28.6875C36.9129 28.7345 36.8515 28.7495 36.8037 28.7214L36.6114 28.6083C36.5618 28.5791 36.546 28.5148 36.5765 28.466C36.6059 28.419 36.6673 28.4039 36.7151 28.432L36.9074 28.5451C36.957 28.5743 36.9728 28.6387 36.9423 28.6875ZM36.2266 28.2538C36.1973 28.3007 36.1358 28.3158 36.0881 28.2877L35.8957 28.1746C35.8461 28.1454 35.8304 28.081 35.8609 28.0322C35.8902 27.9852 35.9517 27.9702 35.9994 27.9983L36.1918 28.1114C36.2414 28.1406 36.2571 28.2049 36.2266 28.2538ZM35.4893 27.8417C35.4599 27.8887 35.3985 27.9037 35.3507 27.8757L35.1584 27.7625C35.1088 27.7333 35.093 27.669 35.1235 27.6202C35.1529 27.5732 35.2143 27.5581 35.2621 27.5862L35.4544 27.6994C35.504 27.7286 35.5198 27.7929 35.4893 27.8417ZM34.7519 27.408C34.7226 27.455 34.6611 27.47 34.6134 27.4419L34.4211 27.3288C34.3714 27.2996 34.3557 27.2353 34.3862 27.1864C34.4155 27.1395 34.477 27.1244 34.5247 27.1525L34.7171 27.2656C34.7667 27.2948 34.7824 27.3592 34.7519 27.408ZM34.0146 26.9959C33.9852 27.0429 33.9238 27.058 33.876 27.0299L33.6837 26.9167C33.6341 26.8876 33.6183 26.8232 33.6488 26.7744C33.6782 26.7274 33.7396 26.7124 33.7874 26.7405L33.9797 26.8536C34.0293 26.8828 34.0451 26.9471 34.0146 26.9959ZM33.2773 26.5622C33.2479 26.6092 33.1864 26.6242 33.1387 26.5961L32.9464 26.483C32.8968 26.4538 32.881 26.3895 32.9115 26.3407C32.9409 26.2937 33.0023 26.2786 33.0501 26.3067L33.2424 26.4199C33.292 26.449 33.3078 26.5134 33.2773 26.5622ZM32.5399 26.1502C32.5105 26.1971 32.4491 26.2122 32.4013 26.1841L32.209 26.071C32.1594 26.0418 32.1436 25.9774 32.1742 25.9286C32.2035 25.8816 32.265 25.8666 32.3127 25.8947L32.505 26.0078C32.5546 26.037 32.5704 26.1014 32.5399 26.1502ZM31.8243 25.7164C31.7949 25.7634 31.7334 25.7785 31.6857 25.7504L31.4934 25.6372C31.4438 25.6081 31.428 25.5437 31.4585 25.4949C31.4879 25.4479 31.5493 25.4329 31.5971 25.461L31.7894 25.5741C31.839 25.6033 31.8548 25.6676 31.8243 25.7164ZM31.0869 25.3044C31.0575 25.3514 30.9961 25.3664 30.9483 25.3383L30.756 25.2252C30.7064 25.196 30.6906 25.1317 30.7212 25.0829C30.7505 25.0359 30.812 25.0208 30.8597 25.0489L31.052 25.162C31.1016 25.1912 31.1174 25.2556 31.0869 25.3044ZM30.3496 24.8706C30.3202 24.9176 30.2588 24.9327 30.211 24.9046L30.0187 24.7915C29.9691 24.7623 29.9533 24.6979 29.9838 24.6491C30.0132 24.6021 30.0746 24.5871 30.1224 24.6152L30.3147 24.7283C30.3643 24.7575 30.3801 24.8218 30.3496 24.8706ZM29.6122 24.4586C29.5829 24.5056 29.5214 24.5206 29.4737 24.4925L29.2813 24.3794C29.2317 24.3502 29.216 24.2859 29.2465 24.2371C29.2758 24.1901 29.3373 24.175 29.385 24.2031L29.5774 24.3163C29.627 24.3454 29.6427 24.4098 29.6122 24.4586ZM28.8749 24.0249C28.8455 24.0719 28.7841 24.0869 28.7363 24.0588L28.544 23.9457C28.4944 23.9165 28.4786 23.8521 28.5091 23.8033C28.5385 23.7564 28.5999 23.7413 28.6477 23.7694L28.84 23.8825C28.8896 23.9117 28.9054 23.9761 28.8749 24.0249ZM28.1592 23.6128C28.1299 23.6598 28.0684 23.6749 28.0207 23.6468L27.8283 23.5336C27.7787 23.5045 27.763 23.4401 27.7935 23.3913C27.8228 23.3443 27.8843 23.3293 27.932 23.3574L28.1244 23.4705C28.174 23.4997 28.1897 23.564 28.1592 23.6128Z" fill="#D2D2D2"/>
<path d="M42.5074 50.8613C42.5074 50.9715 42.3887 51.0409 42.2927 50.9869L42.2438 50.9594C42.1977 50.9334 42.1812 50.8751 42.2069 50.8288L42.2636 50.7268C42.2662 50.722 42.2727 50.7211 42.2765 50.725L42.2797 50.7281C42.2837 50.7321 42.2905 50.7293 42.2905 50.7236C42.2905 50.7201 42.2934 50.7173 42.2969 50.7173H42.399C42.4588 50.7173 42.5074 50.7658 42.5074 50.8257V50.8613Z" fill="#D2D2D2"/>
<path d="M41.8436 50.6124C41.8142 50.6594 41.7528 50.6745 41.705 50.6464L41.5127 50.5332C41.4631 50.5041 41.4473 50.4397 41.4778 50.3909C41.5072 50.3439 41.5687 50.3289 41.6164 50.357L41.8087 50.4701C41.8583 50.4993 41.8741 50.5636 41.8436 50.6124ZM41.1279 50.2004C41.0986 50.2474 41.0371 50.2624 40.9894 50.2343L40.7971 50.1212C40.7475 50.092 40.7317 50.0277 40.7622 49.9789C40.7916 49.9319 40.853 49.9168 40.9008 49.9449L41.0931 50.058C41.1427 50.0872 41.1585 50.1516 41.1279 50.2004ZM40.4123 49.7667C40.3829 49.8136 40.3215 49.8287 40.2737 49.8006L40.0814 49.6875C40.0318 49.6583 40.016 49.5939 40.0465 49.5451C40.0759 49.4981 40.1373 49.4831 40.1851 49.5112L40.3774 49.6243C40.427 49.6535 40.4428 49.7179 40.4123 49.7667ZM39.6749 49.3546C39.6456 49.4016 39.5841 49.4166 39.5364 49.3886L39.3441 49.2754C39.2945 49.2462 39.2787 49.1819 39.3092 49.1331C39.3386 49.0861 39.4 49.071 39.4478 49.0991L39.6401 49.2123C39.6897 49.2415 39.7055 49.3058 39.6749 49.3546ZM38.9593 48.9426C38.9299 48.9895 38.8685 49.0046 38.8207 48.9765L38.6284 48.8634C38.5788 48.8342 38.563 48.7698 38.5935 48.721C38.6229 48.6741 38.6843 48.659 38.7321 48.6871L38.9244 48.8002C38.974 48.8294 38.9898 48.8938 38.9593 48.9426ZM38.2219 48.5305C38.1926 48.5775 38.1311 48.5926 38.0834 48.5645L37.8911 48.4513C37.8415 48.4222 37.8257 48.3578 37.8562 48.309C37.8856 48.262 37.947 48.247 37.9948 48.2751L38.1871 48.3882C38.2367 48.4174 38.2524 48.4817 38.2219 48.5305ZM37.5063 48.0968C37.4769 48.1438 37.4155 48.1588 37.3677 48.1307L37.1754 48.0176C37.1258 47.9884 37.11 47.9241 37.1405 47.8753C37.1699 47.8283 37.2313 47.8132 37.2791 47.8413L37.4714 47.9545C37.521 47.9836 37.5368 48.048 37.5063 48.0968ZM36.7906 47.6847C36.7613 47.7317 36.6998 47.7468 36.6521 47.7187L36.4597 47.6056C36.4101 47.5764 36.3944 47.512 36.4249 47.4632C36.4542 47.4162 36.5157 47.4012 36.5634 47.4293L36.7558 47.5424C36.8054 47.5716 36.8211 47.6359 36.7906 47.6847ZM36.0533 47.2727C36.0239 47.3197 35.9625 47.3347 35.9147 47.3066L35.7224 47.1935C35.6728 47.1643 35.657 47.1 35.6875 47.0512C35.7169 47.0042 35.7783 46.9891 35.8261 47.0172L36.0184 47.1304C36.068 47.1595 36.0838 47.2239 36.0533 47.2727ZM35.3376 46.8607C35.3083 46.9076 35.2468 46.9227 35.1991 46.8946L35.0067 46.7815C34.9571 46.7523 34.9414 46.6879 34.9719 46.6391C35.0012 46.5921 35.0627 46.5771 35.1104 46.6052L35.3028 46.7183C35.3524 46.7475 35.3681 46.8119 35.3376 46.8607ZM34.6003 46.4269C34.5709 46.4739 34.5095 46.489 34.4617 46.4609L34.2694 46.3477C34.2198 46.3186 34.204 46.2542 34.2345 46.2054C34.2639 46.1584 34.3253 46.1434 34.3731 46.1715L34.5654 46.2846C34.615 46.3138 34.6308 46.3781 34.6003 46.4269ZM33.8846 46.0149C33.8553 46.0619 33.7938 46.0769 33.7461 46.0488L33.5537 45.9357C33.5041 45.9065 33.4884 45.8422 33.5189 45.7934C33.5482 45.7464 33.6097 45.7313 33.6574 45.7594L33.8498 45.8725C33.8994 45.9017 33.9151 45.9661 33.8846 46.0149ZM33.169 45.6028C33.1396 45.6498 33.0782 45.6649 33.0304 45.6368L32.8381 45.5236C32.7885 45.4945 32.7727 45.4301 32.8032 45.3813C32.8326 45.3343 32.894 45.3193 32.9418 45.3474L33.1341 45.4605C33.1837 45.4897 33.1995 45.554 33.169 45.6028ZM32.4316 45.1691C32.4023 45.2161 32.3408 45.2311 32.2931 45.203L32.1007 45.0899C32.0511 45.0607 32.0354 44.9964 32.0659 44.9476C32.0952 44.9006 32.1567 44.8855 32.2044 44.9136L32.3968 45.0268C32.4464 45.0559 32.4621 45.1203 32.4316 45.1691ZM31.716 44.7571C31.6866 44.804 31.6252 44.8191 31.5774 44.791L31.3851 44.6779C31.3355 44.6487 31.3197 44.5843 31.3502 44.5355C31.3796 44.4885 31.441 44.4735 31.4888 44.5016L31.6811 44.6147C31.7307 44.6439 31.7465 44.7083 31.716 44.7571ZM30.9786 44.345C30.9493 44.392 30.8878 44.407 30.8401 44.379L30.6477 44.2658C30.5981 44.2366 30.5824 44.1723 30.6129 44.1235C30.6422 44.0765 30.7037 44.0615 30.7514 44.0895L30.9438 44.2027C30.9934 44.2319 31.0091 44.2962 30.9786 44.345ZM30.263 43.933C30.2336 43.98 30.1722 43.995 30.1244 43.9669L29.9321 43.8538C29.8825 43.8246 29.8667 43.7602 29.8972 43.7114C29.9266 43.6645 29.988 43.6494 30.0358 43.6775L30.2281 43.7906C30.2777 43.8198 30.2935 43.8842 30.263 43.933ZM29.5256 43.4992C29.4963 43.5462 29.4348 43.5613 29.3871 43.5332L29.1947 43.42C29.1451 43.3909 29.1294 43.3265 29.1599 43.2777C29.1892 43.2307 29.2507 43.2157 29.2984 43.2438L29.4908 43.3569C29.5404 43.3861 29.5561 43.4504 29.5256 43.4992ZM28.81 43.0872C28.7806 43.1342 28.7192 43.1492 28.6714 43.1211L28.4791 43.008C28.4295 42.9788 28.4137 42.9145 28.4442 42.8657C28.4736 42.8187 28.535 42.8036 28.5828 42.8317L28.7751 42.9449C28.8247 42.974 28.8405 43.0384 28.81 43.0872Z" fill="#D2D2D2"/>
<path opacity="0.5" d="M41.598 47.769V48.6365C41.5763 48.9618 41.2293 49.1569 40.9474 48.9834L38.5619 47.5955C38.3667 47.4871 38.2366 47.2702 38.2366 47.0316V46.1642C38.2583 45.8389 38.6052 45.6437 38.8872 45.8172L41.2727 47.2051C41.4679 47.3136 41.598 47.5304 41.598 47.769Z" fill="white"/>
<path d="M48.3839 37.6417V42.8031C48.3839 42.3694 48.0803 41.9357 47.5165 41.6104V36.449C48.102 36.7743 48.3839 37.208 48.3839 37.6417Z" fill="url(#paint7_linear_187_5488)"/>
<path d="M48.5762 37.6411V42.8025C48.5762 43.2579 48.2509 43.7134 47.6654 44.082C46.4509 44.776 44.4775 44.776 43.2413 44.082V38.9206C44.4775 39.6363 46.4509 39.6363 47.6654 38.9206C48.2726 38.5736 48.5762 38.1182 48.5762 37.6411Z" fill="url(#paint8_linear_187_5488)"/>
<path d="M48.582 37.6418C48.582 37.7502 48.5807 37.8979 48.5368 37.9965C48.493 38.0952 48.4519 38.1623 48.4085 38.249C48.4085 38.249 48.3869 38.2924 48.3652 38.3141C48.3652 38.3141 48.3218 38.3792 48.3001 38.4225C48.2567 38.4659 48.2134 38.531 48.1483 38.5743C48.0616 38.6611 47.9748 38.7261 47.8881 38.7912C47.823 38.8346 47.758 38.8779 47.6712 38.9213C47.6061 38.943 47.5628 38.9864 47.4977 39.0081C46.2833 39.6153 44.4182 39.5936 43.2471 38.9213L39.452 36.731L38.9315 36.6225H39.2785C39.4737 36.6225 39.6472 36.6659 39.799 36.7743L43.3773 38.8346C44.505 39.4852 46.3483 39.4852 47.476 38.8346C48.0182 38.5093 48.3001 38.0972 48.3218 37.6852C48.3218 37.5551 48.3218 37.4466 48.2784 37.3165C48.2134 37.0996 48.0616 36.9045 47.8447 36.7093C47.758 36.6442 47.6712 36.5792 47.5845 36.5141C47.5411 36.5141 47.5194 36.4707 47.476 36.4491L47.6278 36.3623C48.2351 36.7093 48.6037 37.1864 48.582 37.6418Z" fill="#A65AD7"/>
<path d="M43.2656 38.9208V44.0822L38.9933 41.6317C38.3427 41.263 37.9307 40.5473 37.9307 39.81V37.6847C37.9307 37.0992 38.4078 36.6654 38.9499 36.6221H39.0584C39.1885 36.6221 39.3186 36.6654 39.4487 36.7305L43.2439 38.9208H43.2656Z" fill="url(#paint9_linear_187_5488)"/>
<g filter="url(#filter1_ii_187_5488)">
<path d="M39.9038 38.7896C39.405 38.5077 38.9929 38.7246 38.9929 39.3101C38.9929 39.8956 39.405 40.5896 39.9038 40.8715C40.4025 41.1535 40.8146 40.9366 40.8146 40.3511C40.8146 39.7655 40.4025 39.0715 39.9038 38.7896Z" fill="white"/>
</g>
<path d="M39.9042 40.8934C39.4054 40.6115 38.9934 39.8958 38.9934 39.332C38.9934 38.7464 39.4054 38.5296 39.9042 38.8115C40.403 39.0934 40.815 39.8091 40.815 40.3729C40.815 40.9585 40.403 41.1753 39.9042 40.8934ZM39.9042 38.6163C39.3187 38.2693 38.8416 38.5513 38.8416 39.2235C38.8416 39.8958 39.3187 40.7199 39.9042 41.0452C40.4897 41.3922 40.9668 41.1103 40.9668 40.438C40.9668 39.7657 40.4897 38.9416 39.9042 38.6163Z" fill="#490E73"/>
<g opacity="0.8" filter="url(#filter2_f_187_5488)">
<path d="M35.9711 43.7577C35.929 46.6223 37.5578 49.9034 39.6126 51.0969C41.6674 52.2858 43.3711 50.9331 43.4133 48.0686C43.4554 45.2041 41.8265 41.923 39.7718 40.7294C37.717 39.5405 36.0132 40.8932 35.9711 43.7577Z" fill="black"/>
</g>
<path fill-rule="evenodd" clip-rule="evenodd" d="M26.5908 44.1333V52.1358L33.485 56.1867L33.4952 48.1396L26.5908 44.1333Z" fill="#FAA819"/>
<path d="M27.1779 46.5981L27.1786 52.4804L26.5915 52.1358L26.5908 46.2581L27.1779 46.5981Z" fill="#E39000"/>
<path opacity="0.4" fill-rule="evenodd" clip-rule="evenodd" d="M26.5905 44.2151V46.2463L33.492 50.3016L33.4946 48.2213L26.5905 44.2151Z" fill="#EC5764"/>
<path fill-rule="evenodd" clip-rule="evenodd" d="M26.2642 43.3865V45.4164L33.4673 49.6489L33.478 47.5723L26.2642 43.3865Z" fill="#FCB935"/>
<path fill-rule="evenodd" clip-rule="evenodd" d="M33.4938 48.139L40.3782 44.1367L40.4277 52.1973L33.4836 56.1861L33.4938 48.139Z" fill="#E38925"/>
<path opacity="0.4" fill-rule="evenodd" clip-rule="evenodd" d="M40.397 44.2195V46.2507L33.4954 50.3059L33.4928 48.2257L40.397 44.2195Z" fill="#EC5764"/>
<path fill-rule="evenodd" clip-rule="evenodd" d="M33.4761 47.5097L40.669 43.3281L40.7207 45.4814L33.4655 49.6489L33.4761 47.5097Z" fill="#EEAF30"/>
<path fill-rule="evenodd" clip-rule="evenodd" d="M26.2806 43.3955L33.4628 39.1887L40.6873 43.3285L33.4944 47.5813L26.2806 43.3955Z" fill="#FCC936"/>
<path fill-rule="evenodd" clip-rule="evenodd" d="M36.4561 40.9133L29.2614 45.1357L30.466 45.8336L37.66 41.6032L36.4561 40.9133Z" fill="#EF4F6C"/>
<path fill-rule="evenodd" clip-rule="evenodd" d="M30.475 40.9326L37.6605 45.1086L36.4713 45.8117L29.2668 41.6358L30.475 40.9326Z" fill="#EF4F6C"/>
<path fill-rule="evenodd" clip-rule="evenodd" d="M30.4651 45.8329L30.4757 54.4185L29.254 53.7007L29.2602 45.1338L30.4651 45.8329Z" fill="#CC2442"/>
<path fill-rule="evenodd" clip-rule="evenodd" d="M36.4699 45.8115L36.4608 54.4915L37.6889 53.7699L37.6591 45.1084L36.4699 45.8115Z" fill="#C12033"/>
<path d="M32.0799 40.4268L33.4669 42.8168L32.375 43.4533L29.7472 40.6262C30.0937 40.4625 31.0932 39.9942 31.2037 39.9489C31.4185 39.8605 31.7674 40.0271 32.0799 40.4268Z" fill="#EE3750"/>
<path d="M30.6496 41.0923L32.3755 43.4536L30.5118 42.5313C30.007 42.3001 29.5241 41.4906 29.5717 40.9557C29.6198 40.4165 30.1765 40.4871 30.6496 41.0923Z" fill="#AA1E3D"/>
<path d="M36.4738 42.997L34.5434 43.4596L33.4663 44.0744L36.1621 45.5369C36.6074 45.2195 37.1199 44.8174 37.2888 44.7078C37.4568 44.5988 37.5755 44.4063 37.5517 44.1112C37.5038 43.5164 36.947 42.9408 36.4738 42.997Z" fill="#EE3750"/>
<path d="M35.2961 43.8583L33.4663 44.0757L35.4339 45.4573C35.9387 45.8117 36.4216 45.5627 36.374 44.9725C36.326 44.3777 35.7692 43.8021 35.2961 43.8583Z" fill="#AA1E3D"/>
<path d="M34.8533 40.4268L33.4663 42.8168L34.5582 43.4533L37.186 40.6262C36.8394 40.4625 35.84 39.9942 35.7295 39.9489C35.5147 39.8605 35.1658 40.0271 34.8533 40.4268Z" fill="#EE3750"/>
<path d="M36.2861 41.0923L34.5602 43.4536L36.4239 42.5313C36.9287 42.3001 37.4116 41.4906 37.364 40.9557C37.316 40.4165 36.7591 40.4871 36.2861 41.0923Z" fill="#AA1E3D"/>
<path d="M30.4598 42.997L32.3903 43.4596L33.4674 44.0744L30.7715 45.5369C30.3263 45.2195 29.8138 44.8174 29.6449 44.7078C29.4769 44.5988 29.3581 44.4063 29.3819 44.1112C29.4299 43.5164 29.9868 42.9408 30.4598 42.997Z" fill="#EE3750"/>
<path d="M31.6378 43.8583L33.4676 44.0757L31.5 45.4573C30.9952 45.8117 30.5123 45.5627 30.5599 44.9725C30.6078 44.3777 31.1647 43.8021 31.6378 43.8583Z" fill="#AA1E3D"/>
<defs>
<filter id="filter0_f_187_5488" x="32.9106" y="46.6121" width="19.707" height="14.2168" filterUnits="userSpaceOnUse" color-interpolation-filters="sRGB">
<feFlood flood-opacity="0" result="BackgroundImageFix"/>
<feBlend mode="normal" in="SourceGraphic" in2="BackgroundImageFix" result="shape"/>
<feGaussianBlur stdDeviation="0.25" result="effect1_foregroundBlur_187_5488"/>
</filter>
<filter id="filter1_ii_187_5488" x="38.7929" y="38.467" width="2.22166" height="2.72715" filterUnits="userSpaceOnUse" color-interpolation-filters="sRGB">
<feFlood flood-opacity="0" result="BackgroundImageFix"/>
<feBlend mode="normal" in="SourceGraphic" in2="BackgroundImageFix" result="shape"/>
<feColorMatrix in="SourceAlpha" type="matrix" values="0 0 0 0 0 0 0 0 0 0 0 0 0 0 0 0 0 0 127 0" result="hardAlpha"/>
<feOffset dx="-0.2" dy="-0.2"/>
<feGaussianBlur stdDeviation="0.5"/>
<feComposite in2="hardAlpha" operator="arithmetic" k2="-1" k3="1"/>
<feColorMatrix type="matrix" values="0 0 0 0 0.47451 0 0 0 0 0.2 0 0 0 0 0.658824 0 0 0 0.5 0"/>
<feBlend mode="normal" in2="shape" result="effect1_innerShadow_187_5488"/>
<feColorMatrix in="SourceAlpha" type="matrix" values="0 0 0 0 0 0 0 0 0 0 0 0 0 0 0 0 0 0 127 0" result="hardAlpha"/>
<feOffset dx="0.2" dy="0.2"/>
<feGaussianBlur stdDeviation="0.1"/>
<feComposite in2="hardAlpha" operator="arithmetic" k2="-1" k3="1"/>
<feColorMatrix type="matrix" values="0 0 0 0 1 0 0 0 0 1 0 0 0 0 1 0 0 0 1 0"/>
<feBlend mode="normal" in2="effect1_innerShadow_187_5488" result="effect2_innerShadow_187_5488"/>
</filter>
<filter id="filter2_f_187_5488" x="31.9703" y="36.2981" width="15.4437" height="19.2302" filterUnits="userSpaceOnUse" color-interpolation-filters="sRGB">
<feFlood flood-opacity="0" result="BackgroundImageFix"/>
<feBlend mode="normal" in="SourceGraphic" in2="BackgroundImageFix" result="shape"/>
<feGaussianBlur stdDeviation="2" result="effect1_foregroundBlur_187_5488"/>
</filter>
<linearGradient id="paint0_linear_187_5488" x1="38.3404" y1="51.1554" x2="42.3261" y2="59.8351" gradientUnits="userSpaceOnUse">
<stop/>
<stop offset="1" stop-opacity="0"/>
</linearGradient>
<linearGradient id="paint1_linear_187_5488" x1="29.1311" y1="27.2755" x2="47.2731" y2="37.3707" gradientUnits="userSpaceOnUse">
<stop stop-color="#631B9A"/>
<stop offset="1" stop-color="#8D49B6"/>
</linearGradient>
<linearGradient id="paint2_linear_187_5488" x1="25.1794" y1="27.8693" x2="43.986" y2="40.6534" gradientUnits="userSpaceOnUse">
<stop stop-color="#631B9A"/>
<stop offset="1" stop-color="#8D49B6"/>
</linearGradient>
<linearGradient id="paint3_linear_187_5488" x1="38.14" y1="16.094" x2="38.14" y2="34.7023" gradientUnits="userSpaceOnUse">
<stop stop-color="#E26F76"/>
<stop offset="1" stop-color="#E38688"/>
</linearGradient>
<linearGradient id="paint4_linear_187_5488" x1="37.3477" y1="26.0519" x2="35.8815" y2="28.6085" gradientUnits="userSpaceOnUse">
<stop stop-color="#E38688" stop-opacity="0"/>
<stop offset="1"/>
</linearGradient>
<linearGradient id="paint5_linear_187_5488" x1="29.9123" y1="30.1764" x2="42.493" y2="39.7745" gradientUnits="userSpaceOnUse">
<stop stop-color="#631B9A"/>
<stop offset="1" stop-color="#8D49B6"/>
</linearGradient>
<linearGradient id="paint6_linear_187_5488" x1="25.0853" y1="29.634" x2="43.2272" y2="39.7291" gradientUnits="userSpaceOnUse">
<stop stop-color="#AC64D7"/>
<stop offset="1" stop-color="#631B9A"/>
</linearGradient>
<linearGradient id="paint7_linear_187_5488" x1="47.5272" y1="40.4205" x2="48.3625" y2="40.4545" gradientUnits="userSpaceOnUse">
<stop stop-color="#8D49B6"/>
<stop offset="1" stop-color="#631B9A"/>
</linearGradient>
<linearGradient id="paint8_linear_187_5488" x1="43.3071" y1="41.9921" x2="48.1972" y2="43.1097" gradientUnits="userSpaceOnUse">
<stop stop-color="#8D49B6"/>
<stop offset="1" stop-color="#631B9A"/>
</linearGradient>
<linearGradient id="paint9_linear_187_5488" x1="37.6084" y1="38.6553" x2="42.903" y2="41.1772" gradientUnits="userSpaceOnUse">
<stop stop-color="#631B9A"/>
<stop offset="1" stop-color="#8D49B6"/>
</linearGradient>
</defs>
</svg>
