<svg width="72" height="72" viewBox="0 0 72 72" fill="none" xmlns="http://www.w3.org/2000/svg">
<g opacity="0.2" filter="url(#filter0_f_187_2374)">
<path d="M27.9233 23.233C32.9391 22.0223 35.9937 22.6222 37.8433 23.69C40.2531 25.0813 40.6014 27.1575 40.6206 27.273C40.0764 26.6806 39.4748 26.2151 38.8462 25.8521C35.6879 24.0285 31.8311 24.7879 30.9663 24.9898L32.1665 25.6831L26.7046 26.438L24.522 25.1871L24.4937 25.1158L25.9956 24.4878L26.7778 22.5718L27.9233 23.233Z" fill="url(#paint0_linear_187_2374)"/>
</g>
<g opacity="0.2" filter="url(#filter1_f_187_2374)">
<path d="M49.4194 46.9917L47.2261 52.6948L46.0981 52.0435C41.0789 53.2557 38.0224 52.655 36.1714 51.5864C33.7573 50.1927 33.4104 48.1132 33.3921 48.0034C33.9357 48.594 34.5361 49.0581 35.1636 49.4204C38.3257 51.246 42.1851 50.4857 43.0503 50.2837L41.855 49.5942L45.2593 49.1206L45.1694 47.9009L47.645 45.9985L49.4194 46.9917Z" fill="url(#paint1_linear_187_2374)"/>
</g>
<g opacity="0.1" filter="url(#filter2_f_187_2374)">
<path d="M16.2455 38.6343C20.8126 35.9802 27.8343 35.7419 31.9213 38.104C33.7035 39.1334 34.6369 40.4856 34.7446 41.9068C34.8022 42.6443 33.8187 43.2744 32.5434 43.3013C30.6575 43.3398 28.6061 43.8625 26.9584 44.8189C26.7905 44.9161 26.6311 45.0169 26.4789 45.1187L29.4693 45.676C30.1091 45.7952 30.3873 46.5565 29.975 47.0601L24.9057 46.5992C24.5682 47.0869 24.3841 47.5834 24.3588 48.0601C24.3165 48.7976 23.2327 49.3701 21.9535 49.3394C19.4993 49.2817 17.1605 48.7476 15.3784 47.7183C11.2916 45.3561 11.675 41.2885 16.2455 38.6343Z" fill="url(#paint2_linear_187_2374)"/>
</g>
<g opacity="0.1" filter="url(#filter3_f_187_2374)">
<path d="M64.7124 31.7837L61.8696 34.978C60.7971 36.1828 60.7379 37.5499 61.6929 38.6665L63.897 41.2524C64.0732 41.4434 64.0149 41.708 63.7212 41.8843C63.4421 42.0458 63.0454 42.1041 62.7075 42.0308L57.5356 40.8403C55.7139 40.4143 53.5979 40.5028 51.7173 41.061L46.1772 42.7212C46.1708 42.7212 46.0878 42.7218 46.0454 42.7358C46.0162 42.7358 45.9723 42.736 45.9429 42.7505H45.7808C45.6927 42.7505 45.6189 42.7505 45.5308 42.7358C45.4868 42.7358 45.4429 42.7212 45.3989 42.6919C45.3549 42.6919 45.3256 42.6627 45.2817 42.6479L45.1929 42.5747C45.1907 42.5725 45.1483 42.5301 45.1196 42.5015C45.1163 42.4965 45.1148 42.4902 45.1118 42.4849L42.5894 40.4194L48.5483 36.189C48.4639 35.9461 48.3419 35.7074 48.1763 35.478L46.0308 32.4956C45.8985 32.3046 45.987 32.0693 46.2515 31.9077C46.5453 31.7315 46.9712 31.6868 47.3091 31.7749L51.7905 33.0093C52.0971 33.0929 52.4144 33.1591 52.7388 33.2134L60.604 27.6304L64.7124 31.7837Z" fill="url(#paint3_linear_187_2374)"/>
</g>
<path d="M62.4174 29.3371C62.4176 29.3409 62.4181 29.3446 62.4181 29.3484V29.4222C62.4035 29.4662 62.3884 29.51 62.3444 29.554L59.3618 32.9046C58.2891 34.1095 58.2301 35.4765 59.1853 36.5933L59.393 36.8371L59.3817 36.7592L61.4774 36.8967V39.3617C61.4945 39.5123 61.3903 39.6724 61.1838 39.7963C60.9046 39.958 60.5371 40.0315 60.1991 39.958L55.0265 38.7676C53.2044 38.3415 51.0883 38.4298 49.2074 38.9881L43.6676 40.6492C43.6676 40.6492 43.5791 40.6487 43.535 40.6634C43.5057 40.6634 43.4616 40.6636 43.4322 40.6783H43.2706C43.1825 40.6783 43.1091 40.678 43.021 40.6634C42.977 40.6634 42.9326 40.6488 42.8885 40.6194C42.8444 40.6194 42.8149 40.5902 42.7708 40.5755L42.6829 40.5018C42.6829 40.5018 42.6381 40.4577 42.6091 40.4287C42.5945 40.4067 42.5839 40.3807 42.5765 40.355H42.5737V40.3366C42.5694 40.317 42.5652 40.2982 42.5652 40.2813V40.1934C42.5652 40.184 42.5662 40.1753 42.5737 40.1622V37.8283L44.6297 37.6929L45.3868 36.7989C46.3272 35.6968 46.4301 34.4623 45.6662 33.4044L43.5202 30.4211C43.4807 30.364 43.4633 30.3028 43.462 30.241H43.4599L43.4698 27.7703L45.5655 27.632L45.2238 29.8185L49.2804 30.9358C51.2202 31.4648 53.5719 31.4058 55.6292 30.7593L60.2246 29.3172L60.3544 27.3024L62.4174 26.8635V29.3371Z" fill="url(#paint4_linear_187_2374)"/>
<path d="M62.4174 29.3371C62.4176 29.3409 62.4181 29.3446 62.4181 29.3484V29.4222C62.4035 29.4662 62.3884 29.51 62.3444 29.554L59.3618 32.9046C58.2891 34.1095 58.2301 35.4765 59.1853 36.5933L59.393 36.8371L59.3817 36.7592L61.4774 36.8967V39.3617C61.4945 39.5123 61.3903 39.6724 61.1838 39.7963C60.9046 39.958 60.5371 40.0315 60.1991 39.958L55.0265 38.7676C53.2044 38.3415 51.0883 38.4298 49.2074 38.9881L43.6676 40.6492C43.6676 40.6492 43.5791 40.6487 43.535 40.6634C43.5057 40.6634 43.4616 40.6636 43.4322 40.6783H43.2706C43.1825 40.6783 43.1091 40.678 43.021 40.6634C42.977 40.6634 42.9326 40.6488 42.8885 40.6194C42.8444 40.6194 42.8149 40.5902 42.7708 40.5755L42.6829 40.5018C42.6829 40.5018 42.6381 40.4577 42.6091 40.4287C42.5945 40.4067 42.5839 40.3807 42.5765 40.355H42.5737V40.3366C42.5694 40.317 42.5652 40.2982 42.5652 40.2813V40.1934C42.5652 40.184 42.5662 40.1753 42.5737 40.1622V37.8283L44.6297 37.6929L45.3868 36.7989C46.3272 35.6968 46.4301 34.4623 45.6662 33.4044L43.5202 30.4211C43.4807 30.364 43.4633 30.3028 43.462 30.241H43.4599L43.4698 27.7703L45.5655 27.632L45.2238 29.8185L49.2804 30.9358C51.2202 31.4648 53.5719 31.4058 55.6292 30.7593L60.2246 29.3172L60.3544 27.3024L62.4174 26.8635V29.3371Z" fill="white" fill-opacity="0.2"/>
<path d="M49.2097 36.5669C51.0905 36.0086 53.2061 35.9202 55.0281 36.3462L60.2009 37.5367C60.5388 37.6101 60.9354 37.5508 61.2146 37.3892C61.3617 37.3009 61.4499 37.1908 61.4792 37.0786V39.3716C61.4964 39.5221 61.3925 39.6823 61.1863 39.8062C60.9071 39.9678 60.5389 40.0418 60.2009 39.9683L55.0281 38.7779C53.2061 38.3518 51.0904 38.4403 49.2097 38.9986L43.6697 40.6597C43.6697 40.6597 43.581 40.6587 43.5369 40.6734C43.5076 40.6734 43.4637 40.6735 43.4343 40.688H43.2722C43.1843 40.688 43.111 40.688 43.0232 40.6734C42.9791 40.6734 42.9345 40.6588 42.8904 40.6294C42.8465 40.6294 42.817 40.6002 42.7732 40.5855L42.6853 40.5122C42.6853 40.5122 42.64 40.4679 42.6111 40.439C42.5964 40.417 42.5862 40.3905 42.5789 40.3648H42.5759V40.3462C42.5717 40.3269 42.5672 40.3083 42.5671 40.2915V40.2036C42.5671 40.1943 42.5684 40.1855 42.5759 40.1724V37.9195C42.583 37.9494 42.5939 37.9806 42.6111 38.0064C42.6405 38.0358 42.6843 38.0806 42.6843 38.0806L42.7732 38.1538C42.8171 38.1686 42.8464 38.1978 42.8904 38.1978C42.9343 38.2271 42.9783 38.2416 43.0222 38.2417C43.1103 38.2564 43.1842 38.2564 43.2722 38.2564H43.4343C43.4637 38.2418 43.5075 38.2417 43.5369 38.2417C43.581 38.227 43.6697 38.2271 43.6697 38.2271L49.2097 36.5669Z" fill="url(#paint5_linear_187_2374)"/>
<path d="M49.2097 36.5669C51.0905 36.0086 53.2061 35.9202 55.0281 36.3462L60.2009 37.5367C60.5388 37.6101 60.9354 37.5508 61.2146 37.3892C61.3617 37.3009 61.4499 37.1908 61.4792 37.0786V39.3716C61.4964 39.5221 61.3925 39.6823 61.1863 39.8062C60.9071 39.9678 60.5389 40.0418 60.2009 39.9683L55.0281 38.7779C53.2061 38.3518 51.0904 38.4403 49.2097 38.9986L43.6697 40.6597C43.6697 40.6597 43.581 40.6587 43.5369 40.6734C43.5076 40.6734 43.4637 40.6735 43.4343 40.688H43.2722C43.1843 40.688 43.111 40.688 43.0232 40.6734C42.9791 40.6734 42.9345 40.6588 42.8904 40.6294C42.8465 40.6294 42.817 40.6002 42.7732 40.5855L42.6853 40.5122C42.6853 40.5122 42.64 40.4679 42.6111 40.439C42.5964 40.417 42.5862 40.3905 42.5789 40.3648H42.5759V40.3462C42.5717 40.3269 42.5672 40.3083 42.5671 40.2915V40.2036C42.5671 40.1943 42.5684 40.1855 42.5759 40.1724V37.9195C42.583 37.9494 42.5939 37.9806 42.6111 38.0064C42.6405 38.0358 42.6843 38.0806 42.6843 38.0806L42.7732 38.1538C42.8171 38.1686 42.8464 38.1978 42.8904 38.1978C42.9343 38.2271 42.9783 38.2416 43.0222 38.2417C43.1103 38.2564 43.1842 38.2564 43.2722 38.2564H43.4343C43.4637 38.2418 43.5075 38.2417 43.5369 38.2417C43.581 38.227 43.6697 38.2271 43.6697 38.2271L49.2097 36.5669Z" fill="white" fill-opacity="0.2"/>
<path d="M61.4792 36.9068V36.9117C61.4787 36.9096 61.4769 36.9079 61.4763 36.9058L61.4792 36.9068Z" fill="url(#paint6_linear_187_2374)"/>
<path d="M61.4792 36.9068V36.9117C61.4787 36.9096 61.4769 36.9079 61.4763 36.9058L61.4792 36.9068Z" fill="white" fill-opacity="0.2"/>
<path d="M61.2131 37.3794C60.9339 37.5411 60.5371 37.5998 60.1991 37.5264L55.0265 36.3361C53.2043 35.9099 51.0882 35.9981 49.2073 36.5565L43.6673 38.217C43.6673 38.217 43.5791 38.217 43.5351 38.2317C43.5057 38.2317 43.4616 38.2317 43.4322 38.2464C43.3734 38.2464 43.3293 38.2464 43.2705 38.2464C43.1824 38.2464 43.1089 38.2464 43.0207 38.2317C42.9766 38.2317 42.9326 38.217 42.8885 38.1876C42.8444 38.1876 42.815 38.1583 42.7709 38.1436L42.6827 38.0701C42.6827 38.0701 42.6387 38.026 42.6093 37.9966C42.5799 37.9525 42.5652 37.8937 42.5652 37.8497C42.5652 37.8203 42.5652 37.7909 42.5652 37.7615C42.5652 37.7468 42.5652 37.7321 42.5946 37.7027C42.5946 37.6733 42.6093 37.6439 42.6387 37.6145L45.3866 34.367C46.3271 33.2648 46.43 32.0305 45.6658 30.9724L43.5204 27.9894C43.3881 27.7983 43.4763 27.5632 43.7408 27.4016C44.0347 27.2252 44.4608 27.1811 44.7988 27.2693L49.2808 28.5037C51.2205 29.0327 53.5717 28.9739 55.629 28.3273L61.3453 26.5346C61.3453 26.5346 61.4776 26.5052 61.5363 26.4905C61.5804 26.4905 61.6245 26.4905 61.6686 26.4905C61.7715 26.4905 61.889 26.4905 61.9919 26.5199C62.0213 26.5199 62.0507 26.5346 62.0801 26.5493C62.1241 26.5493 62.1829 26.5786 62.2123 26.608C62.2417 26.6374 62.2858 26.6521 62.3152 26.6815C62.3299 26.6962 62.3446 26.7109 62.3593 26.7403C62.4033 26.7991 62.418 26.8579 62.418 26.9166C62.418 26.946 62.418 26.9607 62.418 26.9901C62.4033 27.0342 62.3886 27.0783 62.3446 27.1224L59.3615 30.4728C58.2888 31.6778 58.23 33.0444 59.1852 34.1612L61.3894 36.7475C61.5657 36.9386 61.507 37.2031 61.2131 37.3794Z" fill="url(#paint7_linear_187_2374)"/>
<path d="M24.1961 43.092C24.1961 43.092 23.4833 43.3476 23.665 44.5852C23.8467 45.8228 23.2317 46.3743 23.2317 46.3743C23.2317 46.3743 26.5158 46.5104 25.4401 43.092H24.1961Z" fill="#4B5D6B"/>
<path d="M21.7492 34.4019L21.7439 36.2805C21.7429 36.6329 21.5114 36.9848 21.0491 37.2535C20.1159 37.7958 18.6003 37.7958 17.6635 37.2549C17.1909 36.982 16.9548 36.6242 16.9558 36.2669L16.9611 34.3882C16.9601 34.7455 17.1962 35.1034 17.6688 35.3763C18.6057 35.9171 20.1212 35.9171 21.0544 35.3748C21.5168 35.1061 21.7482 34.7543 21.7492 34.4019L21.7492 34.4019Z" fill="white"/>
<path d="M28.7381 35.1793L28.7327 37.058C28.7317 37.4107 28.4997 37.763 28.0361 38.0324C27.1053 38.5733 25.5898 38.5733 24.6506 38.031C24.1785 37.7585 23.9425 37.4 23.9435 37.0422L23.9488 35.1636C23.9478 35.5214 24.1839 35.8798 24.6559 36.1523C25.5951 36.6946 27.1107 36.6946 28.0414 36.1537C28.505 35.8843 28.7371 35.5321 28.7381 35.1793Z" fill="white"/>
<path d="M16.5207 37.4388L16.5154 39.3175C16.5144 39.6703 16.2823 40.0228 15.8184 40.2924C14.8877 40.8333 13.3697 40.8347 12.4329 40.2938C11.9605 40.0211 11.7251 39.6632 11.7261 39.3059L11.7314 37.4272C11.7304 37.7845 11.9658 38.1424 12.4382 38.4152C13.375 38.956 14.893 38.9546 15.8237 38.4137C16.2876 38.1441 16.5197 37.7916 16.5207 37.4388H16.5207Z" fill="white"/>
<path d="M31.7838 37.249L31.7785 39.8959C31.7765 40.6093 30.8143 41.2052 29.5719 41.2314C27.6875 41.2696 25.6346 41.7893 23.9875 42.7464L23.9929 40.0995C25.6399 39.1424 27.6928 38.6227 29.5772 38.5845C30.8197 38.5583 31.7818 37.9624 31.7838 37.249Z" fill="#F4AA08"/>
<path d="M29.578 38.5845C29.5519 38.585 29.5251 38.5878 29.499 38.5886V41.2352C29.5234 41.2345 29.5483 41.2319 29.5726 41.2314C30.8151 41.2052 31.7772 40.6093 31.7793 39.8959L31.7845 37.249C31.7826 37.9624 30.8204 38.5584 29.578 38.5845Z" fill="#F4AA08"/>
<path d="M17.8849 41.485L17.8796 43.3637C17.8786 43.7164 17.6465 44.0687 17.1829 44.3381C16.2522 44.8789 14.7366 44.8789 13.7974 44.3367C13.3254 44.0642 13.0893 43.7057 13.0903 43.3479L13.0957 41.4692C13.0946 41.827 13.3307 42.1855 13.8028 42.458C14.742 43.0003 16.2575 43.0003 17.1883 42.4594C17.6519 42.19 17.8839 41.8377 17.8849 41.485L17.8849 41.485Z" fill="white"/>
<path d="M31.7793 37.1879C31.837 37.9254 30.8536 38.5553 29.5783 38.5822C27.6924 38.6206 25.6412 39.143 23.9935 40.0994C22.3417 41.0559 21.4506 42.2504 21.393 43.3413C21.3508 44.0788 20.2675 44.6511 18.9884 44.6204C16.534 44.5628 14.1947 44.0289 12.4125 42.9995C8.32564 40.6372 8.70975 36.5695 13.2806 33.9153C17.8477 31.2611 24.8691 31.0229 28.9561 33.3852C30.7383 34.4146 31.6717 35.7667 31.7793 37.1879Z" fill="#FFD576"/>
<path d="M9.57784 41.559L9.58316 38.9121C9.57885 40.4342 10.5126 41.9007 12.4133 42.9981C14.1961 44.0274 16.5361 44.5626 18.9882 44.6207C20.2668 44.6504 21.3513 44.0798 21.3936 43.3393C21.451 42.249 22.3439 41.0568 23.9934 40.0982L23.988 42.7451C22.3385 43.7037 21.4457 44.8959 21.3883 45.9861C21.346 46.7267 20.2615 47.2973 18.9828 47.2676C16.5308 47.2095 14.1908 46.6743 12.4079 45.6449C10.5072 44.5476 9.57352 43.0811 9.57783 41.559H9.57784Z" fill="#FFC11E"/>
<path d="M23.9845 42.7527C22.335 43.7113 21.4423 44.9037 21.3849 45.9939C21.3493 46.6159 20.5779 47.1158 19.5743 47.2429V44.5964C20.5806 44.4704 21.3542 43.9696 21.3898 43.3464C21.4474 42.2563 22.3411 41.0647 23.9904 40.1062L23.9845 42.7527Z" fill="url(#paint8_linear_187_2374)"/>
<path d="M28.0295 34.1911C28.9687 34.7334 28.9736 35.6112 28.0405 36.1535C27.1097 36.6944 25.5942 36.6944 24.655 36.1521C23.7182 35.6113 23.7107 34.732 24.6415 34.1911C25.5746 33.6488 27.0927 33.6502 28.0295 34.1911Z" fill="#F24646"/>
<path d="M28.6774 35.4836C28.5851 35.2301 28.3701 34.9958 28.032 34.7999C27.0948 34.2622 25.5776 34.2583 24.6443 34.7999C24.3139 34.992 24.1026 35.2224 24.0104 35.4683C23.8337 35.0227 24.045 34.5387 24.6443 34.193C25.5776 33.6476 27.0948 33.6514 28.032 34.193C28.639 34.5426 28.8541 35.0342 28.6774 35.4836Z" fill="#FF8383"/>
<path d="M21.0438 33.415C21.983 33.9572 21.988 34.8351 21.0548 35.3774C20.1241 35.9183 18.6085 35.9183 17.6693 35.376C16.7325 34.8352 16.7251 33.9559 17.6558 33.415C18.589 32.8727 20.107 32.8741 21.0438 33.415Z" fill="#52B74F"/>
<path d="M21.6895 34.707C21.5973 34.4535 21.3822 34.2192 21.0442 34.0233C20.107 33.4856 18.5898 33.4817 17.6564 34.0233C17.326 34.2154 17.1147 34.4458 17.0226 34.6917C16.8459 34.2461 17.0572 33.7621 17.6564 33.4164C18.5898 32.871 20.107 32.8748 21.0442 33.4164C21.6511 33.766 21.8662 34.2576 21.6895 34.707Z" fill="#81DD7F"/>
<path d="M17.1782 40.4965C18.1174 41.0388 18.1224 41.9166 17.1892 42.4589C16.2585 42.9998 14.7429 42.9998 13.8037 42.4576C12.8669 41.9167 12.8595 41.0374 13.7902 40.4965C14.7234 39.9542 16.2414 39.9556 17.1782 40.4965Z" fill="#4B5D6B"/>
<path d="M17.8256 41.7886C17.7333 41.5351 17.5183 41.3008 17.1802 41.1049C16.243 40.5671 14.7258 40.5633 13.7925 41.1049C13.4621 41.2969 13.2508 41.5274 13.1586 41.7732C12.9819 41.3276 13.1932 40.8437 13.7925 40.498C14.7258 39.9525 16.243 39.9564 17.1802 40.498C17.7871 40.8475 18.0023 41.3392 17.8256 41.7886V41.7886Z" fill="#98A5AF"/>
<path d="M15.8143 36.4536C16.7535 36.9958 16.7584 37.8737 15.8253 38.416C14.8945 38.9569 13.379 38.9569 12.4398 38.4146C11.503 37.8737 11.4955 36.9944 12.4263 36.4536C13.3594 35.9113 14.8775 35.9127 15.8143 36.4536Z" fill="#3992EA"/>
<path d="M16.4617 37.7456C16.3694 37.4921 16.1544 37.2578 15.8163 37.0619C14.8791 36.5241 13.3619 36.5203 12.4286 37.0619C12.0982 37.2539 11.8869 37.4844 11.7947 37.7302C11.618 37.2847 11.8293 36.8007 12.4286 36.455C13.3619 35.9096 14.8791 35.9134 15.8163 36.455C16.4233 36.8045 16.6384 37.2962 16.4617 37.7456Z" fill="#83C1FF"/>
<path d="M25.8881 43.2102H23.5182L23.9483 27.8115H25.458L25.8881 43.2102Z" fill="#D46969"/>
<path d="M25.8898 43.2083H23.5199L23.5852 41.0266C23.5852 41.1918 23.6966 41.3608 23.9154 41.4876C24.3534 41.7411 25.064 41.7411 25.498 41.4876C25.717 41.3608 25.8246 41.1956 25.8246 41.0305L25.8898 43.2083Z" fill="#DFE7ED"/>
<path d="M25.5379 42.7244C26.0027 42.9928 26.0051 43.4272 25.5434 43.6955C25.0828 43.9632 24.3329 43.9632 23.8681 43.6948C23.4045 43.4272 23.4008 42.9921 23.8614 42.7244C24.3232 42.4561 25.0744 42.4568 25.5379 42.7244Z" fill="#DFE7ED"/>
<path d="M25.236 27.5018C25.5321 27.6728 25.5337 27.9495 25.2395 28.1205C24.9461 28.291 24.4683 28.291 24.1723 28.12C23.8769 27.9495 23.8746 27.6723 24.168 27.5018C24.4622 27.3309 24.9407 27.3313 25.236 27.5018Z" fill="#DFE7ED"/>
<path d="M30.3251 22.5074C31.1902 22.3054 35.0458 21.5457 38.2039 23.3692C38.8314 23.7315 39.4312 24.1963 39.9747 24.7871L39.9716 25.7781C39.4273 25.1856 38.8256 24.7197 38.1968 24.3567C35.0385 22.5332 31.1827 23.293 30.318 23.4949V23.3666L31.5245 23.1999L30.3251 22.5074Z" fill="#2E81ED"/>
<path d="M30.3251 22.5074C31.1902 22.3054 35.0458 21.5457 38.2039 23.3692C38.8314 23.7315 39.4312 24.1963 39.9747 24.7871L39.9716 25.7781C39.4273 25.1856 38.8256 24.7197 38.1968 24.3567C35.0385 22.5332 31.1827 23.293 30.318 23.4949V23.3666L31.5245 23.1999L30.3251 22.5074Z" fill="black" fill-opacity="0.3"/>
<path d="M37.1994 21.2079C39.6132 22.6015 39.9586 24.6814 39.9768 24.7908C39.4325 24.1983 38.8311 23.7327 38.2024 23.3696C35.044 21.546 31.1881 22.3058 30.3233 22.5077L31.5227 23.2002L24.4674 24.1765L26.1343 20.0892L27.2797 20.7504C32.2957 19.5397 35.3498 20.1401 37.1994 21.2079Z" fill="#2E81ED"/>
<path d="M37.1994 21.2079C39.6132 22.6015 39.9586 24.6814 39.9768 24.7908C39.4325 24.1983 38.8311 23.7327 38.2024 23.3696C35.044 21.546 31.1881 22.3058 30.3233 22.5077L31.5227 23.2002L24.4674 24.1765L26.1343 20.0892L27.2797 20.7504C32.2957 19.5397 35.3498 20.1401 37.1994 21.2079Z" fill="white" fill-opacity="0.35"/>
<path d="M31.52 24.1777L24.4645 25.1541L24.4675 24.1686L24.6008 23.8447L24.4706 24.1661L31.5231 23.1897L31.52 24.1777Z" fill="#2E81ED"/>
<path d="M31.52 24.1777L24.4645 25.1541L24.4675 24.1686L24.6008 23.8447L24.4706 24.1661L31.5231 23.1897L31.52 24.1777Z" fill="black" fill-opacity="0.3"/>
<path d="M41.7798 47.6331L41.7733 49.9358L40.5784 49.246L40.5849 46.9431L41.7798 47.6331Z" fill="#2E81ED"/>
<path d="M41.7798 47.6331L41.7733 49.9358L40.5784 49.246L40.5849 46.9431L41.7798 47.6331Z" fill="black" fill-opacity="0.15"/>
<path d="M45.9694 49.1257L45.9628 51.0403L44.822 50.3816L44.8286 48.467L45.9694 49.1257Z" fill="#D6B218"/>
<path d="M47.6359 45.965L45.9689 50.0523L44.8281 49.3936C39.8087 50.6059 36.7521 50.0049 34.9011 48.9362C32.4868 47.5423 32.1402 45.4627 32.1219 45.3533C32.6656 45.9439 33.266 46.4083 33.8935 46.7706C37.0556 48.5962 40.9148 47.8358 41.7799 47.6338L40.585 46.9439L47.6359 45.965Z" fill="#2E81ED"/>
<path d="M47.6359 45.965L45.9689 50.0523L44.8281 49.3936C39.8087 50.6059 36.7521 50.0049 34.9011 48.9362C32.4868 47.5423 32.1402 45.4627 32.1219 45.3533C32.6656 45.9439 33.266 46.4083 33.8935 46.7706C37.0556 48.5962 40.9148 47.8358 41.7799 47.6338L40.585 46.9439L47.6359 45.965Z" fill="white" fill-opacity="0.35"/>
<path d="M45.966 50.0493L45.963 51.0394L44.8224 50.3808L44.8254 49.3933L44.8285 49.3928L45.966 50.0493Z" fill="#2E81ED"/>
<path d="M45.966 50.0493L45.963 51.0394L44.8224 50.3808L44.8254 49.3933L44.8285 49.3928L45.966 50.0493Z" fill="black" fill-opacity="0.15"/>
<path d="M47.6298 46.9519L45.963 51.0389L45.9661 50.0493L45.9696 50.0513L47.6329 45.972L47.6298 46.9519Z" fill="#2E81ED"/>
<path d="M47.6298 46.9519L45.963 51.0389L45.9661 50.0493L45.9696 50.0513L47.6329 45.972L47.6298 46.9519Z" fill="black" fill-opacity="0.3"/>
<path d="M47.6329 45.9644L47.4276 45.9928L47.6329 45.9629V45.9644Z" fill="#2E81ED"/>
<path d="M47.6329 45.9644L47.4276 45.9928L47.6329 45.9629V45.9644Z" fill="black" fill-opacity="0.3"/>
<path d="M32.1946 45.4286C32.1707 45.4034 32.1464 45.3784 32.1227 45.3526C32.1409 45.4621 32.4874 47.5417 34.9017 48.9356C36.7523 50.004 39.808 50.6046 44.8255 49.3934L44.8225 50.3809C39.8032 51.5931 36.7465 50.9923 34.8956 49.9237C32.4822 48.5303 32.135 46.4516 32.1166 46.3406L32.1196 45.3445C32.1433 45.3718 32.1685 45.3998 32.1946 45.4286Z" fill="#2E81ED"/>
<path d="M32.1946 45.4286C32.1707 45.4034 32.1464 45.3784 32.1227 45.3526C32.1409 45.4621 32.4874 47.5417 34.9017 48.9356C36.7523 50.004 39.808 50.6046 44.8255 49.3934L44.8225 50.3809C39.8032 51.5931 36.7465 50.9923 34.8956 49.9237C32.4822 48.5303 32.135 46.4516 32.1166 46.3406L32.1196 45.3445C32.1433 45.3718 32.1685 45.3998 32.1946 45.4286Z" fill="black" fill-opacity="0.3"/>
<defs>
<filter id="filter0_f_187_2374" x="24.2937" y="22.363" width="16.527" height="5.10996" filterUnits="userSpaceOnUse" color-interpolation-filters="sRGB">
<feFlood flood-opacity="0" result="BackgroundImageFix"/>
<feBlend mode="normal" in="SourceGraphic" in2="BackgroundImageFix" result="shape"/>
<feGaussianBlur stdDeviation="0.1" result="effect1_foregroundBlur_187_2374"/>
</filter>
<filter id="filter1_f_187_2374" x="33.1921" y="45.7985" width="16.4273" height="7.11582" filterUnits="userSpaceOnUse" color-interpolation-filters="sRGB">
<feFlood flood-opacity="0" result="BackgroundImageFix"/>
<feBlend mode="normal" in="SourceGraphic" in2="BackgroundImageFix" result="shape"/>
<feGaussianBlur stdDeviation="0.1" result="effect1_foregroundBlur_187_2374"/>
</filter>
<filter id="filter2_f_187_2374" x="12.0485" y="35.9771" width="23.1984" height="13.8635" filterUnits="userSpaceOnUse" color-interpolation-filters="sRGB">
<feFlood flood-opacity="0" result="BackgroundImageFix"/>
<feBlend mode="normal" in="SourceGraphic" in2="BackgroundImageFix" result="shape"/>
<feGaussianBlur stdDeviation="0.25" result="effect1_foregroundBlur_187_2374"/>
</filter>
<filter id="filter3_f_187_2374" x="42.3894" y="27.4304" width="22.523" height="15.5201" filterUnits="userSpaceOnUse" color-interpolation-filters="sRGB">
<feFlood flood-opacity="0" result="BackgroundImageFix"/>
<feBlend mode="normal" in="SourceGraphic" in2="BackgroundImageFix" result="shape"/>
<feGaussianBlur stdDeviation="0.1" result="effect1_foregroundBlur_187_2374"/>
</filter>
<linearGradient id="paint0_linear_187_2374" x1="28.2708" y1="21.9359" x2="31.7441" y2="28.7679" gradientUnits="userSpaceOnUse">
<stop/>
<stop offset="1" stop-opacity="0"/>
</linearGradient>
<linearGradient id="paint1_linear_187_2374" x1="37.0256" y1="45.7463" x2="43.8282" y2="55.7367" gradientUnits="userSpaceOnUse">
<stop/>
<stop offset="1" stop-opacity="0"/>
</linearGradient>
<linearGradient id="paint2_linear_187_2374" x1="25.498" y1="44.8775" x2="27.5779" y2="48.7776" gradientUnits="userSpaceOnUse">
<stop/>
<stop offset="1" stop-opacity="0"/>
</linearGradient>
<linearGradient id="paint3_linear_187_2374" x1="56.8192" y1="30.3092" x2="70.1437" y2="43.9146" gradientUnits="userSpaceOnUse">
<stop/>
<stop offset="1" stop-opacity="0"/>
</linearGradient>
<linearGradient id="paint4_linear_187_2374" x1="42.5652" y1="26.8635" x2="63.3923" y2="28.5343" gradientUnits="userSpaceOnUse">
<stop stop-color="#6366F1"/>
<stop offset="1" stop-color="#E5686C"/>
</linearGradient>
<linearGradient id="paint5_linear_187_2374" x1="42.5671" y1="36.0784" x2="61.5415" y2="40.4242" gradientUnits="userSpaceOnUse">
<stop stop-color="#E5686C"/>
<stop offset="1" stop-color="#6366F1"/>
</linearGradient>
<linearGradient id="paint6_linear_187_2374" x1="42.5671" y1="36.0784" x2="61.5415" y2="40.4242" gradientUnits="userSpaceOnUse">
<stop stop-color="#E5686C"/>
<stop offset="1" stop-color="#6366F1"/>
</linearGradient>
<linearGradient id="paint7_linear_187_2374" x1="42.5652" y1="26.4905" x2="63.3416" y2="28.449" gradientUnits="userSpaceOnUse">
<stop stop-color="#E5686C"/>
<stop offset="1" stop-color="#6366F1"/>
</linearGradient>
<linearGradient id="paint8_linear_187_2374" x1="25.1025" y1="41.2534" x2="19.4674" y2="45.6794" gradientUnits="userSpaceOnUse">
<stop stop-color="#F4AA08"/>
<stop offset="1" stop-color="#FFC11E"/>
</linearGradient>
</defs>
</svg>
