<svg width="72" height="72" viewBox="0 0 72 72" fill="none" xmlns="http://www.w3.org/2000/svg">
<g opacity="0.2" filter="url(#filter0_f_187_2330)">
<path d="M28.7891 49.0308L24.406 51.8279L16.2832 47.1167L20.5967 44.6216L28.7891 49.0308Z" fill="url(#paint0_linear_187_2330)"/>
</g>
<path d="M35.5622 18.9399L30.5518 22.7757L31.965 23.7484L28.2026 31.4567L25.0643 29.3644L16.2732 47.1118L19.6869 45.1297L25.6332 33.1819L28.7349 35.2925L33.7636 24.9964L35.03 25.8407L35.5622 18.9399Z" fill="#FBBF23"/>
<path d="M36.3679 19.4177L31.3576 23.2535L32.7708 24.2262L29.0267 31.9345L25.8884 29.8422L17.0973 47.5896L20.5109 45.6075L26.4573 33.6597L29.559 35.7702L34.5877 25.4742L35.8357 26.3185L36.3679 19.4177Z" fill="#C56200"/>
<path d="M36.3679 19.4177L31.3576 23.2535L32.7708 24.2262L29.0267 31.9345L25.8884 29.8422L17.0973 47.5896L20.5109 45.6075L26.4573 33.6597L29.559 35.7702L34.5877 25.4742L35.8357 26.3185L36.3679 19.4177Z" fill="white" fill-opacity="0.2"/>
<path d="M17.0991 47.589L16.2732 47.1118L25.0643 29.3645L25.8902 29.8417L17.0991 47.589Z" fill="#FBBF23"/>
<path d="M29.5608 35.77L28.735 35.2928L26.4225 33.7145L26.4592 33.6594L29.5608 35.77Z" fill="#C56200"/>
<path d="M29.5608 35.77L28.735 35.2928L26.4225 33.7145L26.4592 33.6594L29.5608 35.77Z" fill="black" fill-opacity="0.2"/>
<path d="M36.3682 19.4171L35.5607 18.9399L30.5503 22.7757L31.3578 23.2529L36.3682 19.4171Z" fill="#FBBF23"/>
<path d="M30.5503 22.7747L31.3578 23.2518L32.771 24.2245L31.9635 23.7474L30.5503 22.7747Z" fill="#147C77"/>
<path d="M35.0324 25.8404L35.8399 26.3176L34.5919 25.4734L34.5552 25.5284L35.0324 25.8404Z" fill="#147C77"/>
<g opacity="0.2" filter="url(#filter1_f_187_2330)">
<path d="M62.5135 44.9888L60.6444 46.0659L60.6522 46.0708L52.8944 50.5454C51.616 49.8073 50.0384 49.818 48.7701 50.5734L35.9656 58.1998L27.7068 53.7553L43.0721 44.8726L37.4002 41.5972L39.2635 40.5161L39.2615 40.5151L47.0194 36.019L62.5135 44.9888Z" fill="url(#paint1_linear_187_2330)"/>
</g>
<path d="M32.4832 26.0281V32.0669L47.9769 41.0149L55.7348 36.5409V30.5021L40.2411 27.5929L32.4832 26.0281Z" fill="#308D43"/>
<path d="M32.4832 30.5244V36.5853L47.9769 45.5333L55.7348 41.0593V34.9984L40.2411 32.1113L32.4832 30.5244Z" fill="#308D43"/>
<path d="M32.4832 34.3357V34.8426L47.9769 43.7906L55.7348 39.3166V38.8097L47.9769 43.2837L32.4832 34.3357Z" fill="#449855"/>
<path d="M32.4832 33.2124V33.7193L47.9769 42.6673L55.7348 38.1933V37.6864L47.9769 42.1604L32.4832 33.2124Z" fill="#449855"/>
<path d="M32.4832 32.0884V32.5732L47.9769 41.5433L55.7348 37.0693V36.5624L47.9769 41.0364L32.4832 32.0884Z" fill="#449855"/>
<path d="M32.4832 30.9651V31.45L47.9769 40.398L55.7348 35.924V35.4391L47.9769 39.9131L32.4832 30.9651Z" fill="#449855"/>
<path d="M32.4832 35.4614V35.9683L47.9769 44.9164L55.7348 40.4423V39.9354L47.9769 44.4095L32.4832 35.4614Z" fill="#449855"/>
<path d="M32.4832 29.8394V30.3242L47.9769 39.2723L55.7348 34.7982V34.3134L47.9769 38.7874L32.4832 29.8394Z" fill="#449855"/>
<path d="M32.4832 28.7161V29.2009L47.9769 38.149L55.7348 33.6749V33.1901L47.9769 37.6641L32.4832 28.7161Z" fill="#449855"/>
<path d="M32.4832 27.593V28.0779L47.9769 37.0259L55.7348 32.5519V32.067L47.9769 36.541L32.4832 27.593Z" fill="#449855"/>
<path d="M32.4832 26.4688V26.9536L47.9769 35.9016L55.7348 31.4276V30.9428L47.9769 35.4168L32.4832 26.4688Z" fill="#449855"/>
<path d="M19.9656 43.2174V49.2562L27.7235 53.7523L43.2172 44.7822V38.7434L35.4593 40.3082L19.9656 43.2174Z" fill="#308D43"/>
<path d="M19.9656 43.2195L27.7235 47.6935L43.2172 38.7455L35.4593 34.2715L19.9656 43.2195Z" fill="#58A368"/>
<path d="M39.2915 37.9727L36.823 36.5401C35.7872 36.9589 34.3987 36.9368 33.3849 36.5181L23.9299 41.9618C24.6572 42.5569 24.6352 43.3503 23.8859 43.9454L26.3543 45.3779C27.3901 44.9592 28.7786 44.9812 29.7924 45.4L39.2474 39.9562C38.5201 39.3612 38.5421 38.5677 39.2915 37.9727Z" fill="white"/>
<path d="M33.8492 39.6697C32.5929 38.9424 30.5874 38.9424 29.3311 39.6697C28.0749 40.397 28.0749 41.5651 29.3311 42.2704C30.5874 42.9977 32.5929 42.9977 33.8492 42.2704C35.1054 41.5431 35.1054 40.375 33.8492 39.6697Z" fill="#58A368"/>
<path d="M33.603 41.2142C33.603 41.0378 33.4928 40.8836 33.2724 40.7513C33.0741 40.6411 32.8316 40.575 32.5451 40.575C32.2586 40.575 31.928 40.6191 31.4872 40.7293L30.6938 40.2665C30.9583 40.1342 31.2668 40.0461 31.5754 40.002L31.0023 39.6714C30.782 39.7155 30.4954 39.8036 30.1869 39.9799L29.8122 39.7595L29.5037 39.9359L29.9004 40.1563C29.6579 40.3105 29.5477 40.4868 29.5477 40.6632C29.5477 40.8395 29.6579 40.9938 29.8783 41.126C30.0767 41.2362 30.3191 41.3023 30.5836 41.3243C30.8481 41.3243 31.2007 41.2803 31.6635 41.1701L32.4349 41.6109C32.3027 41.677 32.1264 41.7431 31.906 41.8092C31.6856 41.8753 31.5093 41.8974 31.355 41.9194L31.95 42.25C32.3247 42.1839 32.6553 42.0737 32.9418 41.8974L33.3826 42.1618L33.6912 41.9855L33.2283 41.7211C33.4708 41.5447 33.603 41.3684 33.603 41.1921V41.2142ZM30.3852 40.8174C30.2089 40.7293 30.2089 40.597 30.3852 40.4648L31.0464 40.8615C30.7599 40.9276 30.5395 40.9056 30.3852 40.8174ZM32.7214 41.4566L32.0823 41.0819C32.3688 41.0158 32.5892 41.0158 32.7214 41.0819C32.8977 41.1701 32.8977 41.3023 32.7214 41.4345V41.4566Z" fill="white"/>
<path d="M19.9656 47.0311V47.516L27.7235 52.0121L43.2172 43.042V42.5571L27.7235 51.5052L19.9656 47.0311Z" fill="#449855"/>
<path d="M19.9656 45.9081V46.393L27.7235 50.867L43.2172 41.9189V41.4341L27.7235 50.3821L19.9656 45.9081Z" fill="#449855"/>
<path d="M19.9656 44.7821V45.267L27.7235 49.741L43.2172 40.793V40.3081L27.7235 49.2561L19.9656 44.7821Z" fill="#449855"/>
<path d="M19.9656 43.6591V44.1439L27.7235 48.618L43.2172 39.6699V39.1851L27.7235 48.1331L19.9656 43.6591Z" fill="#449855"/>
<path d="M19.9656 48.1552V48.6621L27.7235 53.1361L43.2172 44.1881V43.6812L27.7235 52.6292L19.9656 48.1552Z" fill="#449855"/>
<path d="M32.4832 26.0278L47.9769 34.9758L55.7348 30.5018L40.2411 21.5317L32.4832 26.0278Z" fill="#58A368"/>
<path d="M51.809 29.2895L42.3541 23.8458C41.3182 24.2645 39.9298 24.2425 38.9159 23.8237L36.4475 25.2563C37.1748 25.8514 37.1528 26.6448 36.4034 27.2399L45.8584 32.6836C46.8942 32.2649 48.2827 32.2869 49.2965 32.7056L51.765 31.2731C51.0377 30.678 51.0597 29.8846 51.809 29.2895Z" fill="white"/>
<path d="M46.3668 26.9544C45.1105 26.2271 43.1049 26.2271 41.8487 26.9544C40.5924 27.6817 40.5924 28.8498 41.8487 29.5551C43.1049 30.2824 45.1105 30.2824 46.3668 29.5551C47.623 28.8278 47.623 27.6597 46.3668 26.9544Z" fill="#58A368"/>
<path d="M45.8161 27.4382L46.1908 27.2178L45.8822 27.0415L45.4855 27.2619C45.199 27.1297 44.9125 27.0635 44.5819 27.0635C44.2733 27.0635 44.0089 27.1297 43.7885 27.2619C43.5901 27.3721 43.4579 27.5264 43.4358 27.6586C43.4138 27.8129 43.502 28.0112 43.7224 28.2757L42.951 28.7165C42.8408 28.6283 42.7306 28.5402 42.6204 28.408C42.5102 28.2757 42.4441 28.1655 42.4441 28.0994L41.849 28.43C41.9592 28.6504 42.1796 28.8487 42.4661 29.003L42.0253 29.2675L42.3339 29.4438L42.7967 29.1793C43.1052 29.3116 43.4138 29.3997 43.7003 29.3997C43.9868 29.3997 44.2513 29.3336 44.4937 29.2014C44.6921 29.0912 44.8023 28.9369 44.8023 28.7826C44.8023 28.6283 44.7141 28.43 44.5158 28.1876L45.3092 27.7247C45.5296 27.879 45.6839 28.0553 45.75 28.2316L46.323 27.901C46.2569 27.7688 46.0806 27.6145 45.7941 27.4382H45.8161ZM43.8766 28.9149C43.7003 29.003 43.502 29.003 43.2816 28.9149L43.9207 28.5402C44.0309 28.7165 44.0309 28.8267 43.8766 28.9149ZM44.3174 27.9451C44.2293 27.7688 44.2513 27.6586 44.3835 27.5705C44.5599 27.4823 44.7582 27.4603 44.9786 27.5705L44.3174 27.9672V27.9451Z" fill="white"/>
<path opacity="0.4" d="M47.9844 34.9832L55.7344 30.5103L55.7481 41.0598L47.9876 45.5077L47.9844 34.9832Z" fill="black"/>
<path opacity="0.4" d="M27.7376 47.6977L43.2116 38.7563L43.2233 44.7883L27.7266 53.7564L27.7376 47.6977Z" fill="black"/>
<defs>
<filter id="filter0_f_187_2330" x="15.7832" y="44.1216" width="13.5059" height="8.2063" filterUnits="userSpaceOnUse" color-interpolation-filters="sRGB">
<feFlood flood-opacity="0" result="BackgroundImageFix"/>
<feBlend mode="normal" in="SourceGraphic" in2="BackgroundImageFix" result="shape"/>
<feGaussianBlur stdDeviation="0.25" result="effect1_foregroundBlur_187_2330"/>
</filter>
<filter id="filter1_f_187_2330" x="27.2068" y="35.519" width="35.8068" height="23.1807" filterUnits="userSpaceOnUse" color-interpolation-filters="sRGB">
<feFlood flood-opacity="0" result="BackgroundImageFix"/>
<feBlend mode="normal" in="SourceGraphic" in2="BackgroundImageFix" result="shape"/>
<feGaussianBlur stdDeviation="0.25" result="effect1_foregroundBlur_187_2330"/>
</filter>
<linearGradient id="paint0_linear_187_2330" x1="19.6384" y1="47.027" x2="21.5935" y2="51.8919" gradientUnits="userSpaceOnUse">
<stop/>
<stop offset="1" stop-opacity="0"/>
</linearGradient>
<linearGradient id="paint1_linear_187_2330" x1="37.0451" y1="43.4229" x2="43.5001" y2="57.9466" gradientUnits="userSpaceOnUse">
<stop/>
<stop offset="1" stop-opacity="0"/>
</linearGradient>
</defs>
</svg>
