<svg width="24" height="24" viewBox="0 0 24 24" fill="none" xmlns="http://www.w3.org/2000/svg">
<path d="M8.83993 5.00999L8.38993 3.99999C8.09993 3.33999 7.94993 3.00999 7.72993 2.75999C7.45993 2.43999 7.09993 2.20999 6.69993 2.08999C6.37993 1.98999 6.01993 1.98999 5.29993 1.98999C4.24993 1.98999 3.71993 1.98999 3.27993 2.18999C2.75993 2.42999 2.28993 2.94999 2.09993 3.48999C1.93993 3.94999 1.98993 4.41999 2.07993 5.36999C3.04993 15.43 8.55993 20.94 18.6199 21.91C19.5599 22 20.0399 22.05 20.4999 21.89C21.0399 21.7 21.5599 21.23 21.7999 20.71C21.9999 20.27 21.9999 19.74 21.9999 18.69C21.9999 17.97 21.9999 17.61 21.8999 17.29C21.7799 16.89 21.5499 16.53 21.2299 16.26C20.9799 16.04 20.6499 15.89 19.9899 15.6L18.9799 15.15C18.2699 14.83 17.9099 14.67 17.5499 14.64C17.1999 14.61 16.8499 14.66 16.5299 14.78C16.1899 14.91 15.8899 15.16 15.2899 15.66C14.6899 16.16 14.3999 16.41 14.0299 16.54C13.7099 16.66 13.2799 16.7 12.9399 16.65C12.5599 16.59 12.2599 16.44 11.6699 16.12C9.83993 15.14 8.82993 14.13 7.85993 12.31C7.54993 11.72 7.38993 11.43 7.32993 11.04C7.27993 10.7 7.32993 10.27 7.43993 9.94999C7.56993 9.58999 7.81993 9.28999 8.31993 8.68999C8.81993 8.08999 9.06993 7.78999 9.19993 7.44999C9.32993 7.12999 9.36993 6.77999 9.33993 6.42999C9.30993 6.06999 9.14993 5.70999 8.82993 4.99999L8.83993 5.00999Z" stroke="#E87A4F" stroke-width="1.25" stroke-linecap="round"/>
</svg>
