<svg width="72" height="72" viewBox="0 0 72 72" fill="none" xmlns="http://www.w3.org/2000/svg">
<g opacity="0.1" filter="url(#filter0_f_187_4694)">
<path d="M17.6025 50.7173L22.9263 53.7918L22.0437 54.1186L16.7069 51.0393C16.7046 51.038 16.702 51.037 16.6997 51.0357L17.5834 50.7078C17.5896 50.711 17.5962 50.7137 17.6025 50.7173Z" fill="url(#paint0_linear_187_4694)"/>
</g>
<g opacity="0.1" filter="url(#filter1_f_187_4694)">
<path d="M33.7393 58.6137C35.986 58.6137 37.8072 57.6545 37.8072 56.4713C37.8072 55.288 35.986 54.3289 33.7393 54.3289C31.4927 54.3289 29.6715 55.288 29.6715 56.4713C29.6715 57.6545 31.4927 58.6137 33.7393 58.6137Z" fill="url(#paint1_linear_187_4694)"/>
</g>
<path d="M36.3533 55.3502V54.3083H36.1376C35.944 54.0041 35.6216 53.7179 35.1617 53.4756C33.5731 52.639 30.9976 52.639 29.4091 53.4756C28.9493 53.7177 28.6269 54.0041 28.4333 54.3083H28.2179V55.3446H28.2182C28.2155 55.8948 28.6121 56.4454 29.4091 56.8652C30.9977 57.702 33.5733 57.702 35.1617 56.8654C35.9561 56.447 36.3533 55.8985 36.3533 55.3502Z" fill="#B25153"/>
<path d="M32.2855 56.4508C34.5321 56.4508 36.3533 55.4916 36.3533 54.3084C36.3533 53.1252 34.5321 52.166 32.2855 52.166C30.0389 52.166 28.2177 53.1252 28.2177 54.3084C28.2177 55.4916 30.0389 56.4508 32.2855 56.4508Z" fill="#FE7477"/>
<path d="M35.1617 55.8233C33.5732 56.66 30.9975 56.66 29.409 55.8233C28.6477 55.4224 28.2554 54.9019 28.2237 54.3765C28.1895 54.9473 28.5818 55.524 29.409 55.9597C30.9977 56.7963 33.5732 56.7963 35.1617 55.9597C35.9889 55.524 36.3812 54.9475 36.3469 54.3766C36.3154 54.9019 35.9231 55.4224 35.1617 55.8233Z" fill="#B25153"/>
<path d="M30.3249 55.0174C30.2564 54.9814 30.2175 54.9323 30.2177 54.8808L30.2218 53.485C30.2221 53.3786 30.3863 53.2923 30.5885 53.2925C30.7908 53.2925 30.9541 53.379 30.954 53.4858L30.9506 54.6432L34.633 54.2318C34.8309 54.2098 35.0252 54.2763 35.0673 54.3805C35.1093 54.4846 34.9828 54.587 34.7852 54.6091L30.6601 55.0699C30.5519 55.0819 30.4393 55.0677 30.3533 55.031C30.3433 55.0266 30.3338 55.0221 30.3249 55.0174Z" fill="white"/>
<g opacity="0.1" filter="url(#filter2_f_187_4694)">
<path d="M28.5179 28.3963L25.761 26.8046L28.5179 25.2129L31.2749 26.8046L28.5179 28.3963Z" fill="url(#paint2_linear_187_4694)"/>
</g>
<path d="M29.17 25.4644L26.4131 27.056V23.8727L29.17 22.281V25.4644Z" fill="#B25153"/>
<path d="M26.4133 23.8726L23.6565 22.2809L26.4133 20.6892L29.1703 22.2809L26.4133 23.8726Z" fill="#FE9092"/>
<path d="M26.4133 27.056L23.6565 25.4644V22.281L26.4133 23.8727V27.056Z" fill="#FE7477"/>
<path d="M25.4198 25.336L24.6486 24.8909V24.0005L25.4198 24.4458V25.336Z" fill="white"/>
<g opacity="0.1" filter="url(#filter3_f_187_4694)">
<path d="M19.4756 41.6004L16.6053 39.9433L19.4756 38.2861L22.3458 39.9434L19.4756 41.6004Z" fill="url(#paint3_linear_187_4694)"/>
</g>
<path d="M19.7163 38.2865L16.8461 39.9436V36.6295L19.7163 34.9724V38.2865Z" fill="#173D7A"/>
<path d="M16.8462 36.6295L13.9761 34.9724L16.8462 33.3154L19.7162 34.9724L16.8462 36.6295Z" fill="#D4ECFF"/>
<path d="M16.8462 39.9436L13.9761 38.2865V34.9724L16.8462 36.6295V39.9436Z" fill="#5793CE"/>
<path d="M15.812 38.1536L15.0092 37.6901V36.7632L15.812 37.2267V38.1536Z" fill="white"/>
<path d="M20.9136 48.3264L16.2783 45.6503C16.1865 45.5973 16.1036 45.5954 16.0387 45.631L16.039 45.628L15.2911 45.9065C15.2911 45.9065 15.5844 46.0758 15.7013 46.1187L15.9054 49.3787C15.9054 49.6533 16.0723 49.9724 16.2784 50.0913L20.4708 52.6733L20.3693 53.0757L21.1631 52.7838L21.1606 52.7829C21.2374 52.7361 21.2866 52.6333 21.2866 52.4855V49.0389C21.2866 48.7644 21.1195 48.4453 20.9136 48.3264Z" fill="#B25153"/>
<path d="M20.1793 53.0312L15.544 50.355C15.3381 50.2362 15.171 49.9171 15.171 49.6425V46.1958C15.171 45.9212 15.338 45.795 15.544 45.9139L20.1793 48.5901C20.3853 48.7089 20.5523 49.028 20.5523 49.3026V52.7493C20.5522 53.024 20.3853 53.1502 20.1793 53.0312Z" fill="#FE7477"/>
<path d="M17.3019 49.1764C17.3019 49.3759 17.1619 49.4568 16.9891 49.357C16.8164 49.2573 16.6764 49.0147 16.6764 48.8154C16.6764 48.6159 16.8164 48.535 16.9891 48.6348C17.1618 48.7344 17.3019 48.977 17.3019 49.1764Z" fill="white"/>
<path d="M18.1563 49.9257C18.2784 49.8552 18.2784 49.6266 18.1563 49.415C18.0341 49.2035 17.8361 49.0891 17.7139 49.1597C17.5918 49.2302 17.5918 49.4588 17.7139 49.6704C17.8361 49.8819 18.0341 49.9963 18.1563 49.9257Z" fill="white"/>
<path d="M19.1055 50.4726C19.2276 50.4021 19.2276 50.1734 19.1055 49.9619C18.9833 49.7503 18.7853 49.636 18.6632 49.7065C18.541 49.7771 18.541 50.0057 18.6632 50.2173C18.7853 50.4288 18.9833 50.5431 19.1055 50.4726Z" fill="white"/>
<g opacity="0.1" filter="url(#filter4_f_187_4694)">
<path d="M52.1233 36.6409C51.8236 36.0757 51.3109 35.6538 50.6985 35.469L39.1711 31.9944L32.5032 45.5051L42.9641 51.4661C43.52 51.7826 44.1791 51.8638 44.7952 51.6917L63.0559 54.4905C64.4748 54.0932 65.0613 52.6631 64.7014 51.47C66.3611 51.421 67.6075 49.5962 66.7336 47.9465L52.1233 36.6409Z" fill="url(#paint4_linear_187_4694)"/>
</g>
<g filter="url(#filter5_f_187_4694)">
<path d="M39.2963 43.2429C44.0613 43.2429 47.924 41.2085 47.924 38.699C47.924 36.1894 44.0613 34.155 39.2963 34.155C34.5313 34.155 30.6686 36.1894 30.6686 38.699C30.6686 41.2085 34.5313 43.2429 39.2963 43.2429Z" fill="#F8F8FB"/>
</g>
<g opacity="0.1" filter="url(#filter6_f_187_4694)">
<path d="M52.3745 49.0113L45.408 44.9892C44.6539 44.5539 44.7484 43.7933 45.6193 43.2905C46.4901 42.7876 47.8074 42.733 48.5616 43.1685L55.528 47.1906C56.2821 47.6261 56.1876 48.3866 55.3167 48.8894C54.4459 49.3922 53.1286 49.4468 52.3745 49.0113Z" fill="url(#paint5_linear_187_4694)"/>
</g>
<path d="M47.5403 42.3855L47.5429 41.2343L48.9046 34.3729L47.5595 33.542L44.8648 35.0295L44.8456 43.8732C44.8443 44.4684 45.0673 44.8706 45.4099 45.0018V45.0025L46.6081 45.7556L46.7585 45.186L46.9645 44.1486C47.3113 43.6372 47.539 42.9838 47.5403 42.3855Z" fill="#5793CE"/>
<path d="M47.5336 45.7282C46.7894 46.1389 46.188 45.6801 46.1901 44.7033L46.2093 35.8596L48.904 34.3721L48.8848 43.2157C48.8827 44.1925 48.2777 45.3175 47.5336 45.7282Z" fill="#5793CE"/>
<path d="M48.8844 43.2197C48.8823 44.1965 48.2779 45.3217 47.5338 45.7324C47.4746 45.7651 47.4152 45.7897 47.358 45.8115V35.2285L48.9039 34.376L48.8844 43.2197Z" fill="black" fill-opacity="0.3"/>
<path d="M48.7975 23.2686C50.1719 22.4751 52.4005 23.7613 53.775 26.1417C55.1372 28.501 55.1489 31.0484 53.8112 31.8663L53.8121 31.8672L53.7916 31.878C53.786 31.8813 53.7807 31.8864 53.775 31.8897C53.7675 31.8941 53.7592 31.8972 53.7516 31.9014L43.569 37.7413L38.0631 29.4698L48.734 23.3067L48.735 23.3077C48.7557 23.2945 48.7761 23.2809 48.7975 23.2686Z" fill="#FE7477"/>
<path d="M49.735 23.0322C51.0504 23.0409 52.6876 24.2422 53.7828 26.1387C54.7204 27.7627 55.0137 29.474 54.6715 30.6504C54.7226 29.4143 54.3338 27.9031 53.4967 26.4531C52.476 24.6857 51.0455 23.4436 49.735 23.0322Z" fill="black" fill-opacity="0.3"/>
<path d="M49.7838 32.6084C49.7838 30.2997 48.163 27.4925 46.1637 26.3383C45.255 25.8137 44.4253 25.722 43.7897 25.9935L43.7888 25.9919L43.7757 25.9985C43.7702 26.0012 43.7648 26.0037 43.7593 26.0063C43.7313 26.0189 43.704 26.0325 43.6768 26.0465C39.8966 27.9044 35.7129 28.7924 31.5029 28.6285L30.3101 28.5821L40.0205 45.2226L40.5464 44.2061C42.4645 40.4991 45.2678 37.3245 48.7053 34.9615C49.371 34.5876 49.7838 33.7729 49.7838 32.6084Z" fill="url(#paint6_linear_187_4694)"/>
<path d="M41.1533 41.4619C41.1533 37.0333 38.044 31.6482 34.2087 29.4338C32.296 28.3295 30.564 28.2224 29.308 28.9418V28.9415L29.3013 28.9455C29.2981 28.9472 29.2951 28.9491 29.2919 28.9509L28.1525 29.6184L28.5506 29.5352C27.7405 30.3792 27.264 31.7091 27.264 33.4429C27.264 37.8715 30.3732 43.2567 34.2087 45.4711C35.7138 46.3402 37.1071 46.5914 38.2445 46.3085L38.064 46.5741L39.1132 45.961C39.1186 45.9578 39.1242 45.9546 39.1296 45.9514L39.1674 45.9293H39.166C40.3949 45.1925 41.1533 43.6485 41.1533 41.4619Z" fill="#D4ECFF"/>
<path d="M40.3405 41.936C40.3405 37.5074 37.2314 32.1222 33.3959 29.9078C31.509 28.8184 29.7981 28.7 28.5464 29.3877L28.372 29.4898C28.3125 29.5274 28.2543 29.5675 28.1972 29.6091L28.5506 29.5354C27.7405 30.3794 27.264 31.7093 27.264 33.443C27.264 37.8717 30.3732 43.2568 34.2087 45.4712C35.7138 46.3403 37.1071 46.5915 38.2445 46.3087L38.0799 46.5507C39.469 45.8866 40.3405 44.2805 40.3405 41.936Z" fill="white"/>
<path d="M38.0746 46.5675C40.7865 45.0018 40.7864 39.9248 38.0745 35.2277C35.3626 30.5307 30.9657 27.9922 28.2538 29.558C25.5419 31.1238 25.542 36.2008 28.2539 40.8978C30.9658 45.5949 35.3627 48.1333 38.0746 46.5675Z" fill="#5793CE"/>
<path d="M37.4724 45.5245C39.8516 44.1508 39.8516 39.6965 37.4723 35.5755C35.0929 31.4545 31.2354 29.2274 28.8561 30.6011C26.4769 31.9748 26.4769 36.4291 28.8562 40.5501C31.2356 44.6711 35.0931 46.8982 37.4724 45.5245Z" fill="#173D7A"/>
<path d="M33.4502 44.9754C30.0852 43.0327 27.3574 38.3079 27.3574 34.4224C27.3574 32.3821 28.1098 30.9794 29.3116 30.3882C27.9452 30.8895 27.0729 32.3474 27.0729 34.5443C27.0729 38.4298 29.8007 43.1546 33.1657 45.0973C34.7636 46.0199 36.2177 46.1487 37.3044 45.6141C36.2543 45.9992 34.9124 45.8197 33.4502 44.9754Z" fill="white"/>
<mask id="mask0_187_4694" style="mask-type:luminance" maskUnits="userSpaceOnUse" x="27" y="30" width="13" height="16">
<path d="M37.4723 45.5255C39.8516 44.1518 39.8516 39.6973 37.4722 35.5763C35.0928 31.4552 31.2351 29.228 28.8558 30.6018C26.4765 31.9755 26.4766 36.4299 28.856 40.551C31.2353 44.6721 35.093 46.8992 37.4723 45.5255Z" fill="white"/>
</mask>
<g mask="url(#mask0_187_4694)">
<path d="M32.2526 36.6068L41.0932 29.7712L44.3034 35.3407L33.927 39.5984L32.2526 36.6068Z" fill="#D4ECFF"/>
<path d="M34.0235 39.5547C34.4986 39.2804 34.4986 38.3909 34.0235 37.5679C33.5483 36.745 32.778 36.3002 32.3028 36.5746C31.8277 36.8489 31.8277 37.7384 32.3028 38.5614C32.778 39.3843 33.5483 39.829 34.0235 39.5547Z" fill="#5793CE"/>
</g>
<path d="M45.5416 42.4614L45.4939 42.4341C45.3171 42.3326 45.1731 42.0597 45.1724 41.8241L45.1675 40.1187C45.1668 39.8833 45.3096 39.7747 45.4865 39.8761L45.5342 39.9035C45.711 40.0049 45.855 40.2779 45.8556 40.5134L45.8606 42.2189C45.8612 42.4542 45.7184 42.5629 45.5416 42.4614Z" fill="white"/>
<path d="M33.1744 33.6191L23.3763 39.2761" stroke="url(#paint7_linear_187_4694)" stroke-width="0.5" stroke-linecap="round"/>
<path d="M33.4835 39.3223L23.6854 44.9792" stroke="url(#paint8_linear_187_4694)" stroke-width="0.5" stroke-linecap="round"/>
<path d="M39.5377 40.2227L29.7396 45.8796" stroke="url(#paint9_linear_187_4694)" stroke-width="0.5" stroke-linecap="round"/>
<path d="M37.0087 35.1946L30.2806 39.1769" stroke="url(#paint10_linear_187_4694)" stroke-width="0.5" stroke-linecap="round"/>
<defs>
<filter id="filter0_f_187_4694" x="16.4997" y="50.5078" width="6.62656" height="3.81089" filterUnits="userSpaceOnUse" color-interpolation-filters="sRGB">
<feFlood flood-opacity="0" result="BackgroundImageFix"/>
<feBlend mode="normal" in="SourceGraphic" in2="BackgroundImageFix" result="shape"/>
<feGaussianBlur stdDeviation="0.1" result="effect1_foregroundBlur_187_4694"/>
</filter>
<filter id="filter1_f_187_4694" x="29.1715" y="53.8289" width="9.13562" height="5.28491" filterUnits="userSpaceOnUse" color-interpolation-filters="sRGB">
<feFlood flood-opacity="0" result="BackgroundImageFix"/>
<feBlend mode="normal" in="SourceGraphic" in2="BackgroundImageFix" result="shape"/>
<feGaussianBlur stdDeviation="0.25" result="effect1_foregroundBlur_187_4694"/>
</filter>
<filter id="filter2_f_187_4694" x="25.261" y="24.7129" width="6.51392" height="4.18335" filterUnits="userSpaceOnUse" color-interpolation-filters="sRGB">
<feFlood flood-opacity="0" result="BackgroundImageFix"/>
<feBlend mode="normal" in="SourceGraphic" in2="BackgroundImageFix" result="shape"/>
<feGaussianBlur stdDeviation="0.25" result="effect1_foregroundBlur_187_4694"/>
</filter>
<filter id="filter3_f_187_4694" x="16.1053" y="37.7861" width="6.74048" height="4.31421" filterUnits="userSpaceOnUse" color-interpolation-filters="sRGB">
<feFlood flood-opacity="0" result="BackgroundImageFix"/>
<feBlend mode="normal" in="SourceGraphic" in2="BackgroundImageFix" result="shape"/>
<feGaussianBlur stdDeviation="0.25" result="effect1_foregroundBlur_187_4694"/>
</filter>
<filter id="filter4_f_187_4694" x="32.0032" y="31.4944" width="35.5178" height="23.4961" filterUnits="userSpaceOnUse" color-interpolation-filters="sRGB">
<feFlood flood-opacity="0" result="BackgroundImageFix"/>
<feBlend mode="normal" in="SourceGraphic" in2="BackgroundImageFix" result="shape"/>
<feGaussianBlur stdDeviation="0.25" result="effect1_foregroundBlur_187_4694"/>
</filter>
<filter id="filter5_f_187_4694" x="26.6686" y="30.155" width="25.2555" height="17.0879" filterUnits="userSpaceOnUse" color-interpolation-filters="sRGB">
<feFlood flood-opacity="0" result="BackgroundImageFix"/>
<feBlend mode="normal" in="SourceGraphic" in2="BackgroundImageFix" result="shape"/>
<feGaussianBlur stdDeviation="2" result="effect1_foregroundBlur_187_4694"/>
</filter>
<filter id="filter6_f_187_4694" x="44.3989" y="42.3745" width="12.1382" height="7.43091" filterUnits="userSpaceOnUse" color-interpolation-filters="sRGB">
<feFlood flood-opacity="0" result="BackgroundImageFix"/>
<feBlend mode="normal" in="SourceGraphic" in2="BackgroundImageFix" result="shape"/>
<feGaussianBlur stdDeviation="0.25" result="effect1_foregroundBlur_187_4694"/>
</filter>
<linearGradient id="paint0_linear_187_4694" x1="21.9797" y1="50.9695" x2="24.0446" y2="54.3449" gradientUnits="userSpaceOnUse">
<stop offset="0.458845"/>
<stop offset="1" stop-opacity="0"/>
</linearGradient>
<linearGradient id="paint1_linear_187_4694" x1="36.5704" y1="54.6577" x2="39.1168" y2="58.9872" gradientUnits="userSpaceOnUse">
<stop offset="0.458845"/>
<stop offset="1" stop-opacity="0"/>
</linearGradient>
<linearGradient id="paint2_linear_187_4694" x1="30.4367" y1="25.4572" x2="32.4083" y2="28.5153" gradientUnits="userSpaceOnUse">
<stop offset="0.458845"/>
<stop offset="1" stop-opacity="0"/>
</linearGradient>
<linearGradient id="paint3_linear_187_4694" x1="21.4732" y1="38.5405" x2="23.5259" y2="41.7242" gradientUnits="userSpaceOnUse">
<stop offset="0.458845"/>
<stop offset="1" stop-opacity="0"/>
</linearGradient>
<linearGradient id="paint4_linear_187_4694" x1="39.6794" y1="25.0594" x2="69.829" y2="36.2965" gradientUnits="userSpaceOnUse">
<stop/>
<stop offset="1" stop-opacity="0"/>
</linearGradient>
<linearGradient id="paint5_linear_187_4694" x1="46.5921" y1="43.3681" x2="55.5483" y2="49.2359" gradientUnits="userSpaceOnUse">
<stop/>
<stop offset="1" stop-opacity="0"/>
</linearGradient>
<linearGradient id="paint6_linear_187_4694" x1="39.9642" y1="27.3441" x2="44.3528" y2="39.1711" gradientUnits="userSpaceOnUse">
<stop offset="0.330163" stop-color="#D4ECFF"/>
<stop offset="1" stop-color="#78AFDB"/>
</linearGradient>
<linearGradient id="paint7_linear_187_4694" x1="33.2391" y1="33.5959" x2="23.4623" y2="39.1763" gradientUnits="userSpaceOnUse">
<stop stop-color="#FF2C2C" stop-opacity="0"/>
<stop offset="1" stop-color="#FF2C2C"/>
</linearGradient>
<linearGradient id="paint8_linear_187_4694" x1="33.5482" y1="39.2991" x2="23.7713" y2="44.8795" gradientUnits="userSpaceOnUse">
<stop stop-color="#FF2C2C" stop-opacity="0"/>
<stop offset="1" stop-color="#FF2C2C"/>
</linearGradient>
<linearGradient id="paint9_linear_187_4694" x1="39.6024" y1="40.1995" x2="29.8255" y2="45.7799" gradientUnits="userSpaceOnUse">
<stop stop-color="#FF2C2C" stop-opacity="0"/>
<stop offset="1" stop-color="#FF2C2C"/>
</linearGradient>
<linearGradient id="paint10_linear_187_4694" x1="37.2789" y1="35.0861" x2="30.3815" y2="39.1055" gradientUnits="userSpaceOnUse">
<stop stop-color="#FF2C2C" stop-opacity="0"/>
<stop offset="1" stop-color="#FF2C2C"/>
</linearGradient>
</defs>
</svg>
