<svg width="72" height="72" viewBox="0 0 72 72" fill="none" xmlns="http://www.w3.org/2000/svg">
<g clip-path="url(#clip0_187_4860)">
<g opacity="0.1" filter="url(#filter0_f_187_4860)">
<path fill-rule="evenodd" clip-rule="evenodd" d="M18.5873 34.9516C18.822 34.6227 19.2876 34.5643 19.596 34.8254L28.4068 42.2841C28.698 42.451 28.9195 42.7372 29.0464 43.1268L29.9701 43.6632C30.3607 43.8723 30.6165 44.3172 30.6596 44.9539C30.8774 45.0957 31.1257 45.223 31.3923 45.2973C32.298 45.5501 33.9847 45.8443 34.3583 46.1386C34.7319 46.433 35.6244 47.0679 35.9931 47.3673C36.2743 47.5944 36.9198 48.3217 37.2102 48.6526L38.6163 49.8549C38.6316 49.8456 38.6467 49.8361 38.6621 49.8272C38.9131 49.6823 39.1551 49.5896 39.3814 49.5445C39.385 49.5438 39.3886 49.5432 39.3922 49.5425C39.7376 49.4758 40.0465 49.5212 40.2969 49.6673L41.3481 50.2772C41.7037 50.2238 42.023 50.2795 42.2866 50.431L52.5939 56.7178C52.9363 56.9268 53.0293 57.3824 52.7963 57.709L48.1375 64.238C47.8982 64.5734 47.42 64.626 47.1134 64.3506L38.6264 56.73C38.3175 56.5493 38.0871 56.2344 37.9665 55.8036L37.0429 55.2672C36.7223 55.0813 36.4974 54.7327 36.4114 54.2464C36.372 54.3508 36.2969 54.4404 36.1968 54.4947C36.1297 54.5315 36.0491 54.5637 35.9573 54.5858C35.856 54.613 35.7365 54.6243 35.5977 54.604H35.5957C35.4976 54.5902 35.3957 54.6062 35.3089 54.654C35.3023 54.6575 35.2951 54.6605 35.288 54.6641C35.2803 54.668 35.2721 54.6716 35.2637 54.6755C35.2325 54.6901 35.1971 54.7044 35.1571 54.7174C35.0765 54.7438 34.9782 54.7649 34.8609 54.7707C34.8585 54.7708 34.856 54.7706 34.8535 54.7707C34.7287 54.7761 34.5832 54.7654 34.4163 54.7248C34.3254 54.7041 34.2314 54.7105 34.1444 54.7423L34.1417 54.7437L34.054 54.7713C34.0318 54.7777 34.008 54.783 33.9831 54.7889C33.978 54.7901 33.9728 54.7911 33.9676 54.7923C33.9475 54.7969 33.9265 54.8011 33.9049 54.8051C33.888 54.8082 33.8707 54.8112 33.8529 54.8139C33.8364 54.8164 33.8195 54.8186 33.8023 54.8206C33.7758 54.8237 33.7486 54.8263 33.7207 54.828C33.7041 54.8291 33.6872 54.8296 33.6701 54.83C33.6447 54.8308 33.6189 54.8307 33.5925 54.83C33.572 54.8295 33.5514 54.8289 33.5304 54.8273C33.4981 54.825 33.4653 54.8207 33.4319 54.8159C33.4183 54.8139 33.4045 54.8129 33.3908 54.8105C33.3436 54.8021 33.2956 54.7912 33.2471 54.7767C33.2444 54.7759 33.2416 54.7755 33.239 54.7747C33.2363 54.7739 33.2335 54.7735 33.2309 54.7727C33.1404 54.7438 33.0461 54.7395 32.9556 54.7646C32.7399 54.8252 32.2547 54.838 31.5826 54.125C31.575 54.1163 31.5673 54.1067 31.5597 54.098L31.5387 54.0724C31.5137 54.0897 31.4881 54.106 31.4632 54.1203C31.4605 54.1218 31.4577 54.1235 31.4551 54.125C31.4016 54.1553 31.3511 54.1795 31.3093 54.1938C31.2808 54.2034 31.2464 54.21 31.2088 54.2161C31.0044 54.2494 30.6914 54.211 30.551 53.8578C30.4417 53.5838 30.5563 53.3839 30.6468 53.2783L30.6475 53.2776C30.694 53.2235 30.7358 53.1946 30.7358 53.1946C30.7383 53.1926 30.7599 53.1767 30.7979 53.1534L30.7493 53.0934C30.7062 53.141 30.6532 53.1886 30.5881 53.2344C30.5655 53.2507 30.5426 53.2658 30.5199 53.2796C30.5189 53.2797 30.5186 53.281 30.5186 53.281C30.4712 53.3101 30.4249 53.3324 30.381 53.3511C30.3192 53.3775 30.2611 53.3941 30.2062 53.4031C30.1665 53.4095 30.1289 53.4128 30.0929 53.4118C30.0626 53.411 30.0336 53.4083 30.0058 53.4031C29.9781 53.3978 29.9514 53.391 29.9262 53.3822C29.6739 53.2941 29.5484 53.0468 29.5484 53.0468C29.5419 53.0369 29.2589 52.5968 29.5572 52.2871L29.5612 52.2831C29.5747 52.2696 29.5899 52.2567 29.6057 52.2433C29.7055 52.1605 29.8072 52.0953 29.9073 52.049L29.854 51.9828C29.7982 52.0356 29.7335 52.0847 29.6644 52.1266C29.5336 52.207 29.3877 52.2626 29.2657 52.2777C28.9765 52.3116 28.5563 51.9821 28.4945 51.5848C28.4808 51.4995 28.4964 51.4195 28.5283 51.3466C28.569 51.2519 28.6377 51.1688 28.7104 51.1017C28.7123 51.1005 28.714 51.0988 28.7158 51.0976C28.8434 50.9792 28.9795 50.9095 28.985 50.9067L28.9864 50.906L28.929 50.8345C28.9249 50.8371 28.8921 50.8574 28.8386 50.8858C28.7812 50.9163 28.7002 50.9567 28.6052 50.9944C28.2718 51.1265 27.7687 51.2329 27.5297 50.8102C27.2519 50.3197 27.702 49.8083 27.9561 49.5755C28.0333 49.5031 28.0929 49.4569 28.1066 49.4467C28.0622 49.3828 28.0198 49.3218 27.977 49.2679C27.9612 49.2736 27.9455 49.2794 27.9298 49.2847C27.9217 49.2875 27.9136 49.2902 27.9055 49.2928C27.8389 49.3144 27.7734 49.3318 27.7092 49.3455C27.6868 49.3502 27.6645 49.3538 27.6424 49.3576C27.6313 49.3595 27.6203 49.362 27.6093 49.3637C27.5885 49.3668 27.5678 49.3688 27.5472 49.3711C27.5289 49.3732 27.5107 49.3751 27.4926 49.3765C27.484 49.3772 27.4755 49.378 27.467 49.3785C27.4406 49.3801 27.4145 49.381 27.3887 49.3812C27.3792 49.3813 27.3698 49.3807 27.3604 49.3805C27.3367 49.3803 27.3133 49.38 27.2902 49.3785C27.2823 49.378 27.2744 49.3771 27.2666 49.3765C27.239 49.3742 27.2118 49.3717 27.1849 49.3677C27.1824 49.3674 27.18 49.3668 27.1775 49.3664C27.1515 49.3624 27.1259 49.3578 27.1006 49.3522C27.0897 49.3498 27.079 49.3468 27.0682 49.3441C27.05 49.3396 27.032 49.3347 27.0142 49.3293C27.0008 49.3252 26.9876 49.3209 26.9744 49.3165C26.9583 49.3109 26.9423 49.3052 26.9265 49.2989C26.9129 49.2936 26.8994 49.2879 26.886 49.282C26.8749 49.2771 26.8639 49.2718 26.853 49.2665C26.8329 49.2569 26.8131 49.247 26.7936 49.2362C26.7889 49.2335 26.7842 49.2308 26.7794 49.2281C26.768 49.2215 26.7562 49.2155 26.745 49.2085L26.7383 49.2045C26.7517 49.2131 26.765 49.2221 26.7788 49.2301L26.77 49.2247C26.7728 49.2263 26.776 49.2285 26.7788 49.2301L25.8713 48.7032C25.3761 48.8244 24.9426 48.7464 24.6171 48.494C24.6308 48.5046 24.6441 48.5158 24.6582 48.5257L14.473 41.9636C14.1415 41.75 14.0557 41.3024 14.2848 40.9813L18.5873 34.9516ZM28.3474 42.2531C27.8829 42.017 27.2568 42.0685 26.5689 42.4656C25.1427 43.2901 23.9897 45.2867 23.9936 46.926C23.9961 47.6431 24.2194 48.1727 24.5894 48.4731C24.2222 48.1718 24.0011 47.6426 23.999 46.928C23.9986 46.7884 24.0068 46.6462 24.0226 46.5023C24.0224 46.5035 24.0227 46.5056 24.0199 46.5057C24.0278 46.4584 24.0316 46.4071 24.0395 46.3559C24.0358 46.378 24.0345 46.4011 24.0321 46.424C24.2294 44.899 25.2905 43.2095 26.5743 42.4683C27.2599 42.0725 27.8836 42.0199 28.3474 42.2531Z" fill="black"/>
</g>
<g opacity="0.1" filter="url(#filter1_f_187_4860)">
<path d="M46.1598 40.2084C40.9609 37.1984 32.6607 37.1984 27.4617 40.2084C22.2628 43.2183 22.2628 48.0525 27.4617 50.9712C32.6607 53.9811 40.9609 53.9811 46.1598 50.9712C51.3588 47.9613 51.3588 43.1271 46.1598 40.2084Z" fill="url(#paint0_radial_187_4860)"/>
</g>
<path d="M25.026 32.4883C25.016 32.5482 25.011 32.6132 25.006 32.6731C25.006 32.6731 25.006 32.6781 25.001 32.6781C25.011 32.6182 25.016 32.5532 25.026 32.4883ZM25.026 32.4883C25.016 32.5482 25.011 32.6132 25.006 32.6731C25.006 32.6731 25.006 32.6781 25.001 32.6781C25.011 32.6182 25.016 32.5532 25.026 32.4883Z" fill="#BF364D"/>
<path d="M28.2101 27.595C30.0073 26.5573 31.468 27.3897 31.4739 29.4536C31.4797 31.5188 30.0285 34.0337 28.2313 35.0713C26.434 36.109 24.9733 35.2753 24.9675 33.2101C24.9616 31.1462 26.4128 28.6326 28.2101 27.595Z" fill="#5979F1"/>
<path d="M25.6075 32.7388C25.6324 32.4304 25.697 32.1171 25.7816 31.7989C25.7915 31.774 25.7965 31.7541 25.8015 31.7292C25.8562 31.5402 25.9258 31.3462 26.0004 31.1573L26.0303 31.0827C26.1098 30.8937 26.1993 30.7047 26.2938 30.5207C26.3038 30.5008 26.3137 30.4859 26.3237 30.4659C26.4281 30.272 26.5375 30.083 26.6569 29.904C26.7763 29.7249 26.9056 29.5509 27.0399 29.3867C27.0448 29.3768 27.0498 29.3718 27.0548 29.3668C27.1791 29.2127 27.3134 29.0635 27.4527 28.9242C27.4726 28.9043 27.4924 28.8844 27.5123 28.8645C27.6466 28.7352 27.7859 28.6109 27.9301 28.4965C27.95 28.4816 27.9749 28.4667 27.9947 28.4467C28.144 28.3324 28.2932 28.2279 28.4523 28.1384C28.4772 28.1235 28.502 28.1086 28.5319 28.0937C28.5567 28.0787 28.5816 28.0688 28.6114 28.0539C28.6711 28.024 28.7308 27.9942 28.7905 27.9693C28.8253 27.9544 28.8601 27.9395 28.89 27.9246C28.9497 27.9047 29.0094 27.8798 29.069 27.8599C29.1039 27.85 29.1337 27.84 29.1685 27.835C29.2232 27.8151 29.2829 27.8002 29.3376 27.7903C29.3724 27.7803 29.4072 27.7803 29.4371 27.7754C29.4918 27.7654 29.5465 27.7555 29.5962 27.7505H29.7006C29.7454 27.7505 29.7951 27.7455 29.8399 27.7505C29.8797 27.7505 29.9145 27.7605 29.9543 27.7654C29.9941 27.7704 30.0339 27.7704 30.0736 27.7803C30.1184 27.7903 30.1582 27.8052 30.203 27.8152C30.2328 27.8251 30.2626 27.8301 30.2875 27.845C30.3571 27.8699 30.4268 27.8997 30.4914 27.9395L32.5256 29.1232C33.0428 29.4166 33.3661 30.0532 33.3661 30.9633C33.371 32.7786 32.0928 34.9968 30.5113 35.9069C29.6957 36.3794 28.9596 36.4092 28.4324 36.081L26.4331 34.9222C25.9159 34.6238 25.5976 33.9871 25.5976 33.082C25.5976 32.9726 25.5976 32.8582 25.6075 32.7388ZM31.1976 29.0237C31.1728 29.0286 31.138 29.0336 31.1131 29.0436C31.1081 29.0436 31.1081 29.0485 31.1081 29.0485C31.133 29.0386 31.1678 29.0286 31.1976 29.0237Z" fill="#C1C6E5"/>
<path d="M32.5309 29.1191C32.0097 28.8158 31.2874 28.8585 30.4904 29.3187C28.9086 30.233 27.63 32.4473 27.6346 34.2653C27.6376 35.169 27.9561 35.8044 28.4712 36.1031L26.4307 34.9175C25.9156 34.6189 25.5971 33.9834 25.5941 33.0782C25.5895 31.2602 26.8665 29.0475 28.4499 28.1331C29.2469 27.6729 29.9692 27.6302 30.4889 27.9335L32.5309 29.1191Z" fill="#E9E8E6"/>
<path d="M25.5934 33.079C25.5965 33.9842 25.915 34.6197 26.4301 34.9184L28.4706 36.104C27.9555 35.8053 27.637 35.1698 27.6339 34.2661C27.6334 34.0396 27.6528 33.8069 27.6902 33.5714L25.6494 32.3865C25.6122 32.6212 25.5929 32.8532 25.5934 33.079Z" fill="#829BF5"/>
<path d="M25.5934 33.079C25.5965 33.9842 25.915 34.6197 26.4301 34.9184L28.4706 36.104C27.9555 35.8053 27.637 35.1698 27.6339 34.2661C27.6334 34.0396 27.6528 33.8069 27.6902 33.5714L25.6494 32.3865C25.6122 32.6212 25.5929 32.8532 25.5934 33.079Z" fill="white" fill-opacity="0.5"/>
<path d="M32.5309 29.1186L30.4889 27.933C29.9863 27.6397 29.2939 27.6712 28.528 28.0898L30.5693 29.2749C31.3349 28.8568 32.027 28.8254 32.5309 29.1186Z" fill="#829BF5"/>
<path d="M32.5309 29.1186L30.4889 27.933C29.9863 27.6397 29.2939 27.6712 28.528 28.0898L30.5693 29.2749C31.3349 28.8568 32.027 28.8254 32.5309 29.1186Z" fill="white" fill-opacity="0.5"/>
<path d="M30.4903 29.3185C30.5167 29.3032 30.5429 29.2896 30.5692 29.2753L28.5279 28.0901C28.5019 28.1043 28.476 28.1178 28.4498 28.1329C27.7691 28.526 27.1459 29.1598 26.656 29.8982L28.6977 31.0836C29.1877 30.3452 29.8105 29.7114 30.4903 29.3185Z" fill="#829BF5"/>
<path d="M30.4903 29.3185C30.5167 29.3032 30.5429 29.2896 30.5692 29.2753L28.5279 28.0901C28.5019 28.1043 28.476 28.1178 28.4498 28.1329C27.7691 28.526 27.1459 29.1598 26.656 29.8982L28.6977 31.0836C29.1877 30.3452 29.8105 29.7114 30.4903 29.3185Z" fill="white" fill-opacity="0.5"/>
<path d="M26.6576 29.8987C26.1494 30.6646 25.7848 31.5432 25.6516 32.386L27.6924 33.5709C27.8261 32.7284 28.1912 31.8499 28.6993 31.0841L26.6576 29.8987Z" fill="#829BF5"/>
<path d="M26.6576 29.8987C26.1494 30.6646 25.7848 31.5432 25.6516 32.386L27.6924 33.5709C27.8261 32.7284 28.1912 31.8499 28.6993 31.0841L26.6576 29.8987Z" fill="white" fill-opacity="0.5"/>
<path d="M30.4909 29.3196C32.0739 28.4056 33.3604 29.1388 33.3656 30.9567C33.3707 32.7757 32.0926 34.9907 30.5095 35.9047C28.9265 36.8186 27.64 36.0843 27.6348 34.2653C27.6297 32.4474 28.9079 30.2335 30.4909 29.3196Z" fill="#829BF5"/>
<path d="M30.4909 29.3196C32.0739 28.4056 33.3604 29.1388 33.3656 30.9567C33.3707 32.7757 32.0926 34.9907 30.5095 35.9047C28.9265 36.8186 27.64 36.0843 27.6348 34.2653C27.6297 32.4474 28.9079 30.2335 30.4909 29.3196Z" fill="white" fill-opacity="0.75"/>
<path d="M42.8876 37.3803C42.0878 38.085 40.7085 39.6671 40.642 42.2342C40.6372 42.4449 40.5168 42.6365 40.3331 42.7362C40.151 42.836 39.8929 42.9184 39.5761 42.874C39.4526 42.8566 39.3243 42.8772 39.2151 42.9374C39.0234 43.0403 38.6576 43.1607 38.1001 43.0276C37.983 42.9991 37.861 43.007 37.7486 43.0482C37.747 43.0498 37.747 43.0498 37.7454 43.0498C37.5126 43.1306 37.0755 43.2351 36.5988 43.0862C36.4848 43.0498 36.366 43.0451 36.252 43.0767C35.9804 43.153 35.3695 43.1687 34.5232 42.2708C34.5136 42.2598 34.5037 42.2484 34.4941 42.2374L31.1193 38.0501C31.0939 38.0169 31.0718 37.9821 31.0528 37.944C30.8912 37.6257 30.0677 36.0262 29.6417 35.8346C29.5942 35.8124 29.542 35.7918 29.4881 35.7712C29.3395 35.7134 29.1723 35.6588 29.0128 35.6102C28.935 35.5865 28.8633 35.5478 28.8015 35.4951C28.4758 35.2174 28.2812 34.7389 28.2798 34.0941C28.275 32.5896 29.3329 30.7589 30.6426 30.0019C31.0227 29.7833 31.3822 29.6788 31.7021 29.6772C31.7306 29.6772 31.7591 29.6772 31.786 29.6788C31.8129 29.6804 31.8399 29.6804 31.8684 29.6836C31.9317 29.6883 31.9935 29.701 32.0521 29.7216C32.0632 29.7248 32.0727 29.7279 32.0838 29.7311C32.0948 29.7343 32.1059 29.7374 32.117 29.7422C32.2484 29.7929 32.3672 29.8752 32.467 29.9797C32.5414 30.0573 32.6364 30.1492 32.7473 30.249C33.1116 30.58 33.6579 30.9822 34.2835 31.1564C35.4237 31.4747 37.5474 31.8453 38.0178 32.2159C38.4881 32.5865 39.6126 33.3862 40.0766 33.7631C40.4962 34.1021 41.562 35.3231 41.7616 35.5527C41.7822 35.578 41.8059 35.6018 41.8329 35.6224L42.8686 36.4744C43.1521 36.7072 43.1632 37.1379 42.8876 37.3803Z" fill="#EFC7B2"/>
<path d="M31.1819 38.1273C31.1819 38.1273 31.0124 38.2334 30.7733 38.3284C30.3536 38.4947 29.7201 38.6293 29.4192 38.0972C29.0692 37.4796 29.6362 36.835 29.9561 36.542C30.0575 36.447 30.1351 36.3884 30.1477 36.3789C30.1493 36.3789 30.1493 36.3789 30.1493 36.3789C30.5342 36.9332 30.9428 37.7298 31.052 37.9436C31.071 37.9816 31.0932 38.0164 31.1185 38.0497L31.1819 38.1273Z" fill="#EFC7B2"/>
<path d="M32.5644 39.2278C32.5217 39.421 32.33 39.6143 32.1051 39.7504C31.9404 39.8518 31.7568 39.9215 31.6031 39.9405C31.2389 39.9833 30.7099 39.5683 30.6323 39.0679C30.5927 38.8224 30.7416 38.6118 30.9031 38.4629C31.0694 38.3061 31.25 38.2143 31.25 38.2143C32.235 37.831 32.6373 38.8937 32.5644 39.2278Z" fill="#CEA08B"/>
<path d="M33.2711 41.1484C33.2426 41.1689 33.2141 41.188 33.1856 41.2054C33.184 41.2054 33.184 41.207 33.184 41.207C32.3668 41.709 31.963 40.9124 31.963 40.9124C31.963 40.9124 31.594 40.3502 31.974 39.9559C31.974 39.9527 31.9756 39.9527 31.9772 39.9527C31.9946 39.9353 32.0136 39.9178 32.0342 39.9004C32.5093 39.5061 33.0209 39.4332 33.3234 39.7326C33.3234 39.7326 34.1484 40.5323 33.2711 41.1484Z" fill="#CEA08B"/>
<path d="M34.372 42.2638C34.3007 42.305 34.2326 42.3367 34.1772 42.3557C33.9459 42.4333 33.4328 42.4586 33.2238 41.9328C33.086 41.5876 33.2301 41.3358 33.3441 41.2027C33.4027 41.1346 33.455 41.0982 33.455 41.0982C33.455 41.0982 33.6609 40.9256 34.022 40.8702C34.383 40.8147 34.6934 41.2613 34.7805 41.6256C34.8487 41.9027 34.5968 42.1355 34.372 42.2638Z" fill="#CEA08B"/>
<path d="M32.3125 39.4303C32.2872 39.5443 32.2128 39.6568 32.1082 39.7565C31.9435 39.8579 31.7598 39.9276 31.6062 39.9466C31.242 39.9894 30.713 39.5744 30.6354 39.074C30.5958 38.8285 30.7447 38.6179 30.9062 38.469C30.9616 38.4342 30.9981 38.4152 30.9981 38.4152C31.9831 38.0335 32.387 39.0946 32.3125 39.4303Z" fill="#EFC7B2"/>
<path d="M33.1853 41.2082C33.1837 41.2082 33.1837 41.2098 33.1837 41.2098C32.3665 41.7118 31.9627 40.9152 31.9627 40.9152C31.9627 40.9152 31.5937 40.353 31.9738 39.9587C31.9738 39.9555 31.9754 39.9555 31.977 39.9555C32.3919 39.6926 32.8084 39.672 33.0697 39.9302C33.0697 39.9301 33.776 40.6159 33.1853 41.2082Z" fill="#EFC7B2"/>
<path d="M34.3733 42.2665C34.302 42.3077 34.2339 42.3394 34.1785 42.3584C33.9473 42.436 33.4342 42.4613 33.2251 41.9355C33.0873 41.5903 33.2315 41.3385 33.3455 41.2055C33.4421 41.1548 33.5862 41.0962 33.7699 41.0677C34.131 41.0138 34.4398 41.4604 34.5285 41.8247C34.5681 41.9925 34.4921 42.1446 34.3733 42.2665Z" fill="#EFC7B2"/>
<path d="M43.4453 36.9504L43.4057 38.4675L40.6866 42.0894L40.6565 42.243C38.6753 41.0869 37.9484 38.5261 37.9484 38.5261C37.9484 38.5261 37.8692 37.758 37.3133 36.8237C36.7575 35.8909 35.1009 35.7974 35.1009 35.7974C34.4326 36.4135 32.7698 36.8443 32.2471 36.0492C32.1521 35.9051 32.1014 35.7753 32.0856 35.6565C32.0159 35.1196 32.6605 34.8124 33.1815 34.4925C33.8166 34.1029 34.1048 33.6801 34.1048 33.6801C34.7874 33.0023 35.405 33.1543 35.6821 33.1685C35.9593 33.1844 36.3663 33.5122 37.2436 33.224C38.1194 32.9373 38.4203 33.1796 39.1108 33.5835C39.8013 33.9857 41.6082 35.3809 41.6082 35.3809L43.4453 36.9504Z" fill="#E5B49E"/>
<path d="M40.5486 42.5213C40.5486 42.5213 40.1558 43.0661 39.3703 42.8285C39.3703 42.8285 37.9466 41.5362 37.2102 39.6184C37.2624 39.7213 39.1502 43.348 40.5486 42.5213Z" fill="#E5B49E"/>
<path d="M39.3716 42.8283C39.3716 42.8283 38.9076 43.2923 37.9178 42.9772C37.9178 42.9772 36.3658 42.2218 35.7006 39.946C35.7006 39.946 37.5456 43.8704 39.3716 42.8283Z" fill="#E5B49E"/>
<path d="M37.7434 43.0477C37.4805 43.1395 36.9531 43.2615 36.4052 43.0097C36.4052 43.0097 34.7883 41.6715 34.3623 40.5217C34.4145 40.6041 36.2072 43.4088 37.7434 43.0477Z" fill="#E5B49E"/>
<path d="M40.5876 41.9389V42.1998C38.6065 41.0437 37.9493 38.5245 37.9493 38.5245C37.9493 38.5245 37.8701 37.7564 37.3142 36.8221C36.7584 35.8893 35.1018 35.7958 35.1018 35.7958C34.4335 36.4119 32.7707 36.8426 32.248 36.0476C32.153 35.9035 32.1023 35.7736 32.0865 35.6549H32.0881C32.0881 35.6549 33.6195 37.191 35.1937 35.1038C35.1937 35.1038 35.8161 36.2598 37.4995 35.7863C37.4995 35.7863 37.2905 36.2139 37.6816 36.8268C38.0728 37.4381 38.2533 38.0795 38.5115 38.9236C38.7696 39.7677 39.2701 41.1027 40.0112 41.5683L40.5876 41.9389Z" fill="#CEA08B"/>
<path d="M31.1819 38.1273C31.1819 38.1273 31.0124 38.2334 30.7733 38.3284C30.6482 38.2381 30.5468 38.113 30.4914 37.9689C30.4201 37.7836 30.4201 37.5793 30.4106 37.3814C30.4011 37.1834 30.3774 36.976 30.2665 36.8113C30.1889 36.6941 30.0765 36.6117 29.9561 36.542C30.0575 36.447 30.1351 36.3884 30.1477 36.3789C30.1493 36.3789 30.1493 36.3789 30.1493 36.3789C30.5342 36.9332 30.9427 37.7298 31.052 37.9436C31.071 37.9816 31.0932 38.0164 31.1185 38.0497L31.1819 38.1273Z" fill="#CEA08B"/>
<path d="M47.5536 37.8508C47.0275 37.5447 46.2983 37.5878 45.4938 38.0524C43.8971 38.9753 42.6064 41.2105 42.611 43.0457C42.6141 43.9579 42.9356 44.5994 43.4556 44.9009L41.3958 43.7041C40.8758 43.4026 40.5543 42.7611 40.5512 41.8474C40.5466 40.0122 41.8357 37.7786 43.434 36.8556C44.2386 36.391 44.9677 36.3479 45.4923 36.6541L47.5536 37.8508Z" fill="#E9E8E6"/>
<path d="M43.4337 36.857C43.4601 36.8417 43.4863 36.8281 43.5126 36.8138C44.2857 36.3912 44.9846 36.3595 45.4919 36.6555L47.5532 37.8523C47.0446 37.5563 46.346 37.588 45.5731 38.0102C45.5466 38.0246 45.5202 38.0384 45.4935 38.0538C44.8073 38.4505 44.1785 39.0902 43.6839 39.8356C42.8202 39.8436 42.1231 39.4678 41.6229 38.639C42.1175 37.8936 42.7466 37.2538 43.4337 36.857Z" fill="#829BF5"/>
<path d="M43.4337 36.857C43.4601 36.8417 43.4863 36.8281 43.5126 36.8138C44.2857 36.3912 44.9846 36.3595 45.4919 36.6555L47.5532 37.8523C47.0446 37.5563 46.346 37.588 45.5731 38.0102C45.5466 38.0246 45.5202 38.0384 45.4935 38.0538C44.8073 38.4505 44.1785 39.0902 43.6839 39.8356C42.8202 39.8436 42.1231 39.4678 41.6229 38.639C42.1175 37.8936 42.7466 37.2538 43.4337 36.857Z" fill="white" fill-opacity="0.5"/>
<path d="M40.6082 41.1509C40.7427 40.3002 41.1108 39.4133 41.6238 38.6401L43.6848 39.8367C43.1718 40.6098 42.8033 41.4965 42.6683 42.347C42.6306 42.5848 42.611 42.8196 42.6116 43.0483C42.6147 43.9605 42.9362 44.602 43.4561 44.9035L41.3963 43.7067C40.8764 43.4052 40.5549 42.7637 40.5518 41.85C40.5512 41.622 40.5708 41.3879 40.6082 41.1509Z" fill="#829BF5"/>
<path d="M40.6082 41.1509C40.7427 40.3002 41.1108 39.4133 41.6238 38.6401L43.6848 39.8367C43.1718 40.6098 42.8033 41.4965 42.6683 42.347C42.6306 42.5848 42.611 42.8196 42.6116 43.0483C42.6147 43.9605 42.9362 44.602 43.4561 44.9035L41.3963 43.7067C40.8764 43.4052 40.5549 42.7637 40.5518 41.85C40.5512 41.622 40.5708 41.3879 40.6082 41.1509Z" fill="white" fill-opacity="0.5"/>
<path d="M47.9983 37.6191C47.4049 37.278 46.589 37.3268 45.6843 37.8459C43.8892 38.8843 42.4402 41.3872 42.4401 43.4542V43.4641C42.4451 44.4875 42.8066 45.2092 43.39 45.5505L53.9676 55.0478C54.4115 55.4463 55.1033 55.3701 55.4497 54.8846L61.1497 46.8965C61.4869 46.4239 61.3521 45.7643 60.8564 45.462L47.9983 37.6191Z" fill="url(#paint1_linear_187_4860)"/>
<path d="M39.0326 29.3125C39.232 29.3125 39.3944 29.1515 39.3959 28.9517C39.3976 28.6882 39.5273 28.4402 39.7429 28.2887L41.8408 26.8127C42.0047 26.6973 42.0443 26.4708 41.9287 26.3066C41.8136 26.1425 41.5866 26.1036 41.4226 26.2187L39.3247 27.6947C38.918 27.981 38.6729 28.449 38.6693 28.9468C38.6681 29.1474 38.8293 29.3111 39.0302 29.3125C39.0309 29.3125 39.0319 29.3125 39.0326 29.3125Z" fill="url(#paint2_linear_187_4860)"/>
<path d="M35.7188 28.7256C35.9184 28.7256 36.0806 28.5644 36.0821 28.3648C36.0853 27.8478 35.9599 27.3329 35.7195 26.8759L34.3642 24.2993C34.271 24.1216 34.0514 24.0529 33.8737 24.1468C33.6962 24.2403 33.6279 24.4599 33.7212 24.6374L35.0765 27.2142C35.2615 27.5658 35.3582 27.9621 35.3555 28.3599C35.3543 28.5608 35.5158 28.7242 35.7164 28.7256C35.7174 28.7256 35.7181 28.7256 35.7188 28.7256Z" fill="url(#paint3_linear_187_4860)"/>
<path d="M37.3651 24.4377C37.1661 24.4378 37.0038 24.5981 37.0017 24.7973L36.9531 29.9921C36.9515 30.1926 37.1123 30.3565 37.3128 30.3586H37.3166C37.5156 30.3585 37.678 30.1982 37.68 29.999L37.7285 24.8042C37.7301 24.6038 37.5693 24.4398 37.3689 24.4377H37.3651Z" fill="url(#paint4_linear_187_4860)"/>
<path d="M37.4 22.4014C37.1995 22.4014 37.0366 22.5643 37.0366 22.7648V23.2815C37.0368 23.4819 37.1996 23.644 37.4 23.6441C37.6005 23.6441 37.7633 23.4819 37.7634 23.2815V22.7648C37.7634 22.5642 37.6006 22.4014 37.4 22.4014Z" fill="url(#paint5_linear_187_4860)"/>
<path d="M29.4283 45.9739C29.497 45.9739 29.5662 45.9535 29.6264 45.9112L31.2741 44.7519C31.6097 44.5161 31.8115 44.1305 31.8142 43.7201C31.8154 43.5297 31.6622 43.3743 31.4716 43.373C31.4708 43.373 31.4701 43.373 31.4694 43.373C31.2799 43.373 31.1257 43.526 31.1245 43.7157C31.1233 43.9032 31.0308 44.0797 30.8773 44.1875L29.2296 45.3469C29.0737 45.4566 29.0363 45.6718 29.1458 45.8275C29.2131 45.9229 29.32 45.9739 29.4283 45.9739Z" fill="url(#paint6_linear_187_4860)"/>
<path d="M37.1709 48.7988C37.2251 48.7988 37.28 48.786 37.3312 48.759C37.4997 48.6704 37.5646 48.4618 37.4759 48.2932L36.4116 46.2694C36.2707 46.0018 36.1974 45.7004 36.1993 45.3978C36.2008 45.2072 36.0473 45.0518 35.8569 45.0505C35.8559 45.0505 35.8552 45.0505 35.8545 45.0505C35.6651 45.0505 35.5109 45.2033 35.5096 45.393C35.5067 45.8087 35.6075 46.2227 35.8011 46.5904L36.8654 48.6143C36.9271 48.7316 37.0471 48.7988 37.1709 48.7988Z" fill="url(#paint7_linear_187_4860)"/>
<path d="M33.5247 49.1786C33.3345 49.1788 33.1803 49.3335 33.1803 49.5238V49.9661C33.1803 50.1563 33.3345 50.3103 33.5247 50.3105C33.7151 50.3105 33.8699 50.1564 33.87 49.9661V49.5238C33.87 49.3334 33.7151 49.1786 33.5247 49.1786Z" fill="url(#paint8_linear_187_4860)"/>
<path d="M33.6105 43.0756C33.4129 43.0696 33.2642 43.2267 33.2622 43.417L33.2114 48.2181C33.2096 48.4084 33.3625 48.5644 33.5528 48.5663H33.5566C33.7454 48.5661 33.8991 48.4139 33.9011 48.2249L33.9519 43.4246C33.9538 43.2342 33.8009 43.0775 33.6105 43.0756Z" fill="url(#paint9_linear_187_4860)"/>
<path d="M30.528 27.363C29.9363 27.0188 29.1157 27.0668 28.2109 27.5891C26.4153 28.6272 24.9641 31.1411 24.969 33.205C24.9723 34.1631 25.2879 34.8557 25.8059 35.2193L13.0968 27.0311C12.6169 26.7219 12.4928 26.0744 12.8243 25.6097L18.0796 18.244C18.4193 17.7678 19.0933 17.6836 19.5397 18.0615L30.528 27.363Z" fill="url(#paint10_linear_187_4860)"/>
</g>
<defs>
<filter id="filter0_f_187_4860" x="2.75625" y="23.2619" width="61.5687" height="52.6657" filterUnits="userSpaceOnUse" color-interpolation-filters="sRGB">
<feFlood flood-opacity="0" result="BackgroundImageFix"/>
<feBlend mode="normal" in="SourceGraphic" in2="BackgroundImageFix" result="shape"/>
<feGaussianBlur stdDeviation="5.7" result="effect1_foregroundBlur_187_4860"/>
</filter>
<filter id="filter1_f_187_4860" x="19.5625" y="33.9509" width="34.4966" height="23.2778" filterUnits="userSpaceOnUse" color-interpolation-filters="sRGB">
<feFlood flood-opacity="0" result="BackgroundImageFix"/>
<feBlend mode="normal" in="SourceGraphic" in2="BackgroundImageFix" result="shape"/>
<feGaussianBlur stdDeviation="2" result="effect1_foregroundBlur_187_4860"/>
</filter>
<radialGradient id="paint0_radial_187_4860" cx="0" cy="0" r="1" gradientUnits="userSpaceOnUse" gradientTransform="translate(36.8108 45.5898) rotate(90) scale(7.63886 13.2483)">
<stop/>
<stop offset="1" stop-opacity="0"/>
</radialGradient>
<linearGradient id="paint1_linear_187_4860" x1="55.8922" y1="52.232" x2="47.524" y2="38.7902" gradientUnits="userSpaceOnUse">
<stop stop-color="#BBC7F6"/>
<stop offset="1" stop-color="#91A3E5"/>
</linearGradient>
<linearGradient id="paint2_linear_187_4860" x1="40.3321" y1="29.3125" x2="40.3321" y2="26.1526" gradientUnits="userSpaceOnUse">
<stop stop-color="#6D8AF3"/>
<stop offset="1" stop-color="#2F58EE" stop-opacity="0.02"/>
</linearGradient>
<linearGradient id="paint3_linear_187_4860" x1="34.8808" y1="28.7256" x2="34.8808" y2="24.1047" gradientUnits="userSpaceOnUse">
<stop stop-color="#6D8AF3"/>
<stop offset="1" stop-color="#2F58EE" stop-opacity="0.02"/>
</linearGradient>
<linearGradient id="paint4_linear_187_4860" x1="37.3583" y1="30.3586" x2="37.3583" y2="22.4014" gradientUnits="userSpaceOnUse">
<stop stop-color="#6D8AF3"/>
<stop offset="1" stop-color="#2F58EE" stop-opacity="0.02"/>
</linearGradient>
<linearGradient id="paint5_linear_187_4860" x1="37.3583" y1="30.3586" x2="37.3583" y2="22.4014" gradientUnits="userSpaceOnUse">
<stop stop-color="#6D8AF3"/>
<stop offset="1" stop-color="#2F58EE" stop-opacity="0.02"/>
</linearGradient>
<linearGradient id="paint6_linear_187_4860" x1="30.4486" y1="45.9739" x2="30.4486" y2="43.373" gradientUnits="userSpaceOnUse">
<stop stop-color="#2F58EE" stop-opacity="0.02"/>
<stop offset="1" stop-color="#6D8AF3"/>
</linearGradient>
<linearGradient id="paint7_linear_187_4860" x1="36.5126" y1="48.7988" x2="36.5126" y2="45.0505" gradientUnits="userSpaceOnUse">
<stop stop-color="#2F58EE" stop-opacity="0.02"/>
<stop offset="1" stop-color="#6D8AF3"/>
</linearGradient>
<linearGradient id="paint8_linear_187_4860" x1="33.5661" y1="50.3105" x2="33.5661" y2="43.0754" gradientUnits="userSpaceOnUse">
<stop stop-color="#2F58EE" stop-opacity="0.02"/>
<stop offset="1" stop-color="#6D8AF3"/>
</linearGradient>
<linearGradient id="paint9_linear_187_4860" x1="33.5661" y1="50.3105" x2="33.5661" y2="43.0754" gradientUnits="userSpaceOnUse">
<stop stop-color="#2F58EE" stop-opacity="0.02"/>
<stop offset="1" stop-color="#6D8AF3"/>
</linearGradient>
<linearGradient id="paint10_linear_187_4860" x1="24.9569" y1="31.7596" x2="16.7442" y2="18.8908" gradientUnits="userSpaceOnUse">
<stop stop-color="#91A3E5"/>
<stop offset="1" stop-color="#BBC7F6"/>
</linearGradient>
<clipPath id="clip0_187_4860">
<rect width="72" height="72" fill="white"/>
</clipPath>
</defs>
</svg>
