<svg width="72" height="72" viewBox="0 0 72 72" fill="none" xmlns="http://www.w3.org/2000/svg">
<g opacity="0.1" filter="url(#filter0_f_187_2)">
<path d="M37.1002 26.1763C37.748 26.457 38.3745 26.738 38.9576 27.0835C39.5406 27.429 40.0587 27.7965 40.5338 28.1636L46.0416 27.4077C47.0135 28.3797 47.748 29.3953 48.2232 30.4536L43.4068 32.1597C43.6443 33.0884 43.6444 34.0171 43.4068 34.9458L48.2232 36.6519C47.748 37.7102 47.035 38.7258 46.063 39.6978L40.5552 38.9204C40.0802 39.2874 39.5835 39.6326 39.0005 39.978C38.4175 40.3236 37.791 40.6045 37.1431 40.8853L38.482 44.061C36.7973 44.6226 35.0257 45.0322 33.2115 45.313L30.2525 42.5269C28.6543 42.678 27.0128 42.678 25.4146 42.5269L22.4771 45.2915C20.6628 45.0107 18.8697 44.5787 17.2066 44.0171L18.5025 40.8423C17.8547 40.5616 17.2281 40.2806 16.6451 39.9351C16.062 39.5895 15.544 39.2221 15.0689 38.855L14.6304 38.9146L21.6617 34.4351C21.9417 35.0425 22.4945 35.6166 23.3199 36.0903C25.8253 37.5157 29.842 37.5157 32.3043 36.0903C34.7881 34.6648 34.7667 32.3323 32.2828 30.9067C31.2936 30.344 30.0722 30.0046 28.8033 29.8862L37.9683 24.0474L37.1002 26.1763Z" fill="url(#paint0_linear_187_2)"/>
</g>
<path d="M31.4694 27.1883C29.3273 25.9589 25.8628 25.9403 23.7207 27.1883C21.9326 28.2314 21.6532 29.8146 22.9012 31.0254C23.1247 30.8018 23.4041 30.5969 23.7207 30.4107C25.8442 29.1813 29.3087 29.1813 31.4694 30.4107C31.8046 30.5969 32.084 30.8205 32.3262 31.044C33.5742 29.8333 33.2948 28.25 31.4694 27.1883Z" fill="url(#paint1_linear_187_2)"/>
<path d="M43.3734 34.7503L38.6237 34.0797C38.2139 34.3964 37.7855 34.713 37.2825 34.9924C36.7796 35.2905 36.2395 35.5326 35.6807 35.7747L36.7983 38.457C36.9473 38.3825 37.1149 38.2893 37.2639 38.2148C37.7668 37.9168 38.1952 37.6188 38.605 37.3021L43.3548 37.9727C44.193 37.1345 44.8077 36.259 45.2174 35.3463V32.1426C44.8077 33.0553 44.193 33.9307 43.3548 34.7689L43.3734 34.7503Z" fill="#A7A7B5"/>
<path d="M32.3107 39.594L29.7588 37.1912C28.3805 37.3029 26.9649 37.3029 25.5865 37.1912L23.0533 39.5754C21.47 39.3332 19.9427 38.9793 18.5084 38.4764V41.6802C19.9427 42.1644 21.4887 42.537 23.0533 42.7791L25.5865 40.3949C26.9649 40.5253 28.3805 40.5253 29.7588 40.3949L32.3107 42.7977C33.8753 42.5556 35.4027 42.2017 36.8555 41.7174V38.5136C35.4213 38.9979 33.8939 39.3518 32.3107 39.594Z" fill="#D7D7EA"/>
<path d="M36.8522 41.7234C35.3996 42.2076 33.8725 42.5613 32.3082 42.8035L32.2955 42.7917L32.2994 39.5906L32.3082 39.5994C33.8912 39.3572 35.4182 39.0035 36.8522 38.5193V41.7234Z" fill="#BFBFCE"/>
<path d="M29.7701 37.2019V40.406L29.7584 40.3953C28.3802 40.5256 26.9647 40.5256 25.5865 40.3953L25.5846 40.3962V37.1921L25.5865 37.1912C26.9648 37.3029 28.3802 37.3029 29.7584 37.1912L29.7701 37.2019Z" fill="#BFBFCE"/>
<path d="M19.6069 35.7569C19.0481 35.5148 18.5079 35.2726 18.005 34.9746C17.5021 34.6766 17.055 34.3785 16.6453 34.0433L11.8955 34.6952C11.0573 33.857 10.424 32.9815 10.0142 32.0688V35.2726C10.424 36.1853 11.0573 37.0608 11.8955 37.8989L16.6453 37.247C17.055 37.5637 17.5021 37.8803 18.005 38.1783C18.1726 38.2715 18.3403 38.3646 18.5079 38.4391L19.6069 35.7383V35.7569Z" fill="#D7D7EA"/>
<path d="M18.3959 20.3152V23.5376L19.5507 26.2757V23.0533L18.3959 20.3152Z" fill="#D7D7EA"/>
<path d="M36.7426 20.3511V23.5735L35.625 26.2929V23.0892L36.7426 20.3511Z" fill="#D7D7EA"/>
<path d="M45.1991 26.7793V29.9831L41.064 31.4546V28.2322L45.1991 26.7793Z" fill="#A7A7B5"/>
<path d="M43.3731 34.7523V37.9561L38.6233 37.2855V34.0818L43.3731 34.7523Z" fill="#D7D7EA"/>
<path d="M32.3103 39.5945V42.7982L29.7399 40.3954V37.1917L32.3103 39.5945Z" fill="#D7D7EA"/>
<path d="M25.5678 40.3954V37.1917L23.0345 39.5758V42.7982L25.5678 40.3954Z" fill="#A7A7B5"/>
<path d="M16.6634 34.0405V37.2443L11.9136 37.8962V34.6925L16.6634 34.0405Z" fill="#A7A7B5"/>
<path d="M9.99634 26.7039V29.9262L14.1501 31.3977V28.194L9.99634 26.7039Z" fill="#D7D7EA"/>
<path d="M37.2835 34.9922C37.7864 34.6941 38.2148 34.3961 38.6246 34.0795L43.3744 34.75C44.2126 33.9118 44.8272 33.0364 45.237 32.1237L41.0833 30.6522C41.2882 29.8512 41.2882 29.0503 41.0833 28.2494L45.237 26.7779C44.8272 25.8652 44.1939 24.9897 43.3558 24.1515L38.606 24.8035C38.1962 24.4868 37.7492 24.1702 37.2463 23.8721C36.7433 23.5741 36.2032 23.332 35.6444 23.0898L36.762 20.3517C35.3277 19.8674 33.7817 19.4949 32.2171 19.2528L29.6839 21.637C28.3055 21.5066 26.8899 21.5066 25.5115 21.637L22.9597 19.2341C21.3951 19.4763 19.8677 19.8302 18.4148 20.3145L19.5697 23.0526C19.0109 23.2947 18.4707 23.5369 17.9678 23.8349C17.4649 24.1329 17.0365 24.4309 16.6267 24.7476L11.8769 24.077C11.0387 24.9152 10.4241 25.7907 10.0143 26.7034L14.168 28.1749C13.9631 28.9758 13.9631 29.7767 14.168 30.5777L10.0143 32.0492C10.4241 32.9619 11.0574 33.8373 11.8956 34.6755L16.6453 34.0236C17.0551 34.3402 17.5021 34.6569 18.0051 34.9549C18.508 35.2529 19.0481 35.4951 19.6069 35.7372L18.4893 38.4753C19.9236 38.9596 21.4696 39.3321 23.0342 39.5743L25.5674 37.1901C26.9458 37.3205 28.3614 37.3205 29.7398 37.1901L32.2916 39.5929C33.8562 39.3508 35.3836 38.9969 36.8365 38.5126L35.6816 35.7745C36.2404 35.5323 36.7806 35.2902 37.2835 34.9922ZM23.7607 31.6394C21.6186 30.41 21.6 28.3984 23.742 27.169C25.8841 25.9397 29.33 25.9397 31.4907 27.169C33.6327 28.3984 33.6513 30.41 31.5093 31.6394C29.3859 32.8687 25.9213 32.8687 23.7607 31.6394Z" fill="url(#paint2_linear_187_2)"/>
<g style="mix-blend-mode:color-dodge">
<path d="M19.5497 22.8093L18.5252 20.3506C18.5252 20.3506 18.4507 20.3692 18.4135 20.3878L19.4565 22.8652C19.4565 22.8652 19.531 22.8279 19.5683 22.8093H19.5497Z" fill="url(#paint3_radial_187_2)"/>
<path d="M41.2126 29.3652C41.2126 29.7005 41.1567 30.0544 41.0636 30.3897H41.1195C41.194 30.0544 41.2126 29.7191 41.2126 29.3652Z" fill="url(#paint4_radial_187_2)"/>
<path d="M31.4701 26.9434C29.328 25.7141 25.8635 25.6954 23.7215 26.9434C22.5852 27.5953 22.0637 28.4708 22.1382 29.3276C22.2127 28.5825 22.7343 27.8375 23.7215 27.2601C25.8449 26.0307 29.3094 26.0307 31.4701 27.2601C32.4759 27.8375 32.9975 28.5825 33.072 29.3462C33.1465 28.4894 32.6249 27.5953 31.4701 26.9434Z" fill="url(#paint5_radial_187_2)"/>
<path d="M35.7363 22.9022L36.7421 20.4435C36.7421 20.4435 36.6676 20.4249 36.6303 20.4062L35.6245 22.8649C35.6245 22.8649 35.699 22.9022 35.7363 22.9208V22.9022Z" fill="url(#paint6_radial_187_2)"/>
<path d="M41.12 28.2857L45.1992 26.8514C45.1992 26.8514 45.1061 26.6652 45.0502 26.572L41.0455 27.9876C41.0642 28.0808 41.0828 28.1925 41.1014 28.2857H41.12Z" fill="url(#paint7_radial_187_2)"/>
<path d="M14.1496 27.9523L10.1263 26.5181C10.1263 26.5181 10.0332 26.7043 9.99591 26.7975L14.0937 28.2503C14.1124 28.1572 14.131 28.0454 14.1496 27.9523Z" fill="url(#paint8_radial_187_2)"/>
<path d="M32.311 39.3494L29.7592 36.9465C28.3808 37.0583 26.9652 37.0583 25.5869 36.9465L23.0537 39.3307C21.5263 39.0886 20.0362 38.7347 18.6205 38.269L18.5088 38.5484C19.943 39.0327 21.489 39.4052 23.0537 39.6474L25.5869 37.2632C26.9652 37.3936 28.3808 37.3936 29.7592 37.2632L32.311 39.666C33.8757 39.4239 35.403 39.07 36.8559 38.5857L36.7442 38.3063C35.3472 38.7719 33.857 39.1072 32.3297 39.3494H32.311Z" fill="url(#paint9_radial_187_2)"/>
<path d="M14.0194 29.2935C14.0194 29.6474 14.038 30.0199 14.1125 30.3738H14.1684C14.0753 30.0013 14.0194 29.6474 14.0194 29.2935Z" fill="url(#paint10_radial_187_2)"/>
<path d="M43.373 34.5073L38.6233 33.8368C38.2135 34.1534 37.7851 34.4701 37.2822 34.7495C36.7793 35.0475 36.2391 35.2897 35.6803 35.5318L35.7921 35.8112C36.3136 35.5877 36.7979 35.3642 37.2822 35.0848C37.7851 34.7867 38.2135 34.4887 38.6233 34.1721L43.373 34.8426C44.2112 34.0044 44.8259 33.129 45.2357 32.2163L45.1053 32.1604C44.6955 32.98 44.1367 33.7623 43.373 34.5073Z" fill="url(#paint11_radial_187_2)"/>
<path d="M19.6072 35.4953C19.0484 35.2532 18.5082 35.011 18.0053 34.713C17.5024 34.415 17.0554 34.117 16.6456 33.7817L11.8958 34.4336C11.1321 33.6886 10.5547 32.8876 10.1449 32.0867L9.99591 32.1426C10.4057 33.0553 11.039 33.9307 11.8772 34.7689L16.627 34.117C17.0367 34.4336 17.4838 34.7503 17.9867 35.0483C18.4524 35.3277 18.9553 35.5512 19.4768 35.7747L19.5886 35.4953H19.6072Z" fill="url(#paint12_radial_187_2)"/>
</g>
<path d="M35.4591 24.693C31.1005 22.1785 24.041 22.1598 19.7197 24.6558C15.3797 27.1517 15.3983 31.231 19.7755 33.7455C24.1341 36.2601 31.1936 36.2787 35.5149 33.7828C39.8549 31.2868 39.8363 27.2076 35.4591 24.693ZM22.1225 32.4044C19.0677 30.6349 19.0491 27.785 22.0852 26.0342C25.1213 24.2833 30.0574 24.2833 33.1121 26.0528C36.1669 27.8223 36.1855 30.6722 33.1494 32.4231C30.1132 34.1739 25.1772 34.1739 22.1225 32.4044Z" fill="white"/>
<path d="M35.4591 24.8981C31.1005 22.3835 24.041 22.3649 19.7197 24.8609C15.3797 27.3568 15.3983 31.436 19.7755 33.9506C24.1341 36.4652 31.1936 36.4838 35.5149 33.9879C39.8549 31.4919 39.8363 27.4127 35.4591 24.8981ZM22.1225 32.5909C19.0677 30.8214 19.0491 27.9715 22.0852 26.2206C25.1213 24.4697 30.0574 24.4697 33.1121 26.2392C36.1669 28.0088 36.1855 30.8586 33.1494 32.6095C30.1132 34.3604 25.1772 34.3604 22.1225 32.5909Z" fill="#ABA9C6"/>
<g style="mix-blend-mode:multiply">
<path d="M19.7177 25.2525C24.0577 22.7566 31.0985 22.7566 35.4571 25.2898C37.5619 26.5005 38.6609 28.0837 38.7354 29.667C38.8285 27.9534 37.7296 26.2211 35.4571 24.8986C31.0985 22.384 24.0391 22.3654 19.7177 24.8614C17.4826 26.1466 16.4022 27.8602 16.4954 29.5739C16.5699 28.0092 17.6502 26.4446 19.7177 25.2525Z" fill="#A8A8A8"/>
<path d="M22.1213 32.9822C25.176 34.7518 30.1121 34.7518 33.1482 33.0009C34.7501 32.0882 35.4951 30.8588 35.402 29.6481C35.3275 30.7284 34.5824 31.7901 33.1482 32.6283C30.1121 34.3792 25.176 34.3792 22.1213 32.6097C20.6684 31.7715 19.9234 30.6912 19.8302 29.6108C19.7371 30.8216 20.5008 32.0695 22.1213 33.0009V32.9822Z" fill="#A8A8A8"/>
</g>
<g opacity="0.1" filter="url(#filter1_f_187_2)">
<path d="M68.9562 38.8447C68.3867 37.692 66.3974 36.8408 64.0304 36.8408C62.7533 36.8408 61.5871 37.0908 60.6935 37.5L60.6583 37.4795L31.0538 54.5283C30.7855 54.6816 30.4903 54.8195 30.1749 54.9414C30.1948 54.9514 30.2153 54.9606 30.2355 54.9707C29.5174 55.4328 29.087 56.0242 29.087 56.668C29.087 58.1485 31.3658 59.3486 34.1769 59.3486C36.9879 59.3486 39.2667 58.1485 39.2667 56.668C39.2667 56.2929 39.1197 55.9364 38.8556 55.6123L62.3927 42.0576C62.4597 42.0696 62.5277 42.0783 62.5958 42.0889C64.8143 42.2536 69.1923 41.8355 68.9562 38.8447Z" fill="url(#paint13_linear_187_2)"/>
</g>
<path d="M53.9322 36.7724C53.2793 35.4936 53.8262 34.0532 55.5728 33.0449C57.3589 32.0138 59.9275 31.7068 62.1792 32.1243L62.337 32.4643L59.1584 34.2994C58.2049 34.85 58.2049 35.7438 59.1584 36.2944C60.1118 36.8449 61.6602 36.8449 62.6137 36.2944L65.7485 34.4845L66.4003 34.5853C67.0946 35.8769 66.5567 37.3426 64.7867 38.3644C63.0401 39.3729 60.5453 39.6885 58.3305 39.3117L37.6818 51.2333C38.3346 52.512 37.7878 53.9525 36.0411 54.9608C34.2551 55.9919 31.6866 56.2988 29.4349 55.8814L29.277 55.5414L32.4556 53.7063C33.409 53.1557 33.409 52.2618 32.4556 51.7112C31.502 51.1608 29.9537 51.1608 29.0002 51.7112L25.8655 53.5212L25.2137 53.4203C24.5194 52.1288 25.0573 50.6631 26.8273 49.6411C28.5737 48.6329 31.0686 48.3171 33.2834 48.6939L53.9322 36.7724Z" fill="#B5B5F8"/>
<path d="M53.9322 36.7724C53.2793 35.4936 53.8262 34.0532 55.5728 33.0449C57.3589 32.0138 59.9275 31.7068 62.1792 32.1243L62.337 32.4643L59.1584 34.2994C58.2049 34.85 58.2049 35.7438 59.1584 36.2944C60.1118 36.8449 61.6602 36.8449 62.6137 36.2944L65.7485 34.4845L66.4003 34.5853C67.0946 35.8769 66.5567 37.3426 64.7867 38.3644C63.0401 39.3729 60.5453 39.6885 58.3305 39.3117L37.6818 51.2333C38.3346 52.512 37.7878 53.9525 36.0411 54.9608C34.2551 55.9919 31.6866 56.2988 29.4349 55.8814L29.277 55.5414L32.4556 53.7063C33.409 53.1557 33.409 52.2618 32.4556 51.7112C31.502 51.1608 29.9537 51.1608 29.0002 51.7112L25.8655 53.5212L25.2137 53.4203C24.5194 52.1288 25.0573 50.6631 26.8273 49.6411C28.5737 48.6329 31.0686 48.3171 33.2834 48.6939L53.9322 36.7724Z" fill="#CCCBDB"/>
<path d="M66.6937 35.7048V37.5261C66.694 38.4891 66.0584 39.4524 64.7867 40.1867C63.0402 41.195 60.5453 41.5107 58.3305 41.1339L37.9482 52.9016V54.1245C37.9476 55.0869 37.3119 56.0492 36.0411 56.7829C34.2551 57.814 31.6865 58.1208 29.4347 57.7034L29.277 57.3635V55.5426L29.4347 55.8826C31.6865 56.3 34.2551 55.9931 36.0411 54.962C37.7877 53.9537 38.3346 52.5132 37.6818 51.2345L58.3304 39.313C60.5452 39.6898 63.04 39.3742 64.7867 38.3657C66.0584 37.6315 66.694 36.6682 66.6937 35.7048ZM24.9203 52.3083C24.9213 52.6841 25.0192 53.0595 25.2136 53.4214L25.8654 53.5224L29.0002 51.7124C29.9538 51.1619 31.502 51.1619 32.4555 51.7124C33.3604 52.2348 33.4065 53.0664 32.5942 53.6204C32.5505 53.5905 32.5043 53.5614 32.4555 53.5334C31.502 52.9828 29.9538 52.9828 29.0002 53.5334L25.8654 55.3433L25.2136 55.2425C25.0248 54.8912 24.927 54.527 24.9207 54.1622H24.9203V52.3083ZM53.6756 35.9129C53.7031 36.2034 53.7886 36.4924 53.9322 36.7736L53.6755 36.9217V35.9128L53.6756 35.9129ZM62.3369 32.4656V34.2864L59.1583 36.1216C59.1096 36.1497 59.0634 36.1788 59.0197 36.2086C58.2072 35.6546 58.2535 34.8231 59.1583 34.3007L62.3369 32.4656Z" fill="#A7A7B5"/>
<path d="M29.5176 51.4839C30.4504 51.1762 31.661 51.2522 32.4569 51.7117C33.3617 52.2341 33.408 53.0657 32.5956 53.6197C32.5519 53.5898 32.5057 53.5607 32.4569 53.5327C31.661 53.073 30.4504 52.9972 29.5176 53.3049V51.4839Z" fill="#AEAEAE"/>
<path d="M53.9326 36.7724C53.2798 35.4937 53.8267 34.0533 55.5732 33.0449L55.6007 33.0291L55.6351 33.0096L55.6767 32.9864L55.7186 32.9634L55.7495 32.9468L55.7819 32.9295L55.8134 32.913L55.846 32.896L55.8775 32.8799L55.9206 32.8581L55.9641 32.8367L56.0077 32.8155L56.0516 32.7946L56.0736 32.7841L56.0957 32.7738L56.1237 32.7608L56.1623 32.7432L56.2068 32.7232L56.2518 32.7034L56.2969 32.6838L56.3424 32.6645L56.3759 32.6504L56.4218 32.6316L56.4677 32.6129L56.514 32.5945L56.5604 32.5765L56.607 32.5586L56.6537 32.541L56.6815 32.5307L56.7242 32.5152L56.7714 32.4982L56.8191 32.4815L56.8668 32.4652L56.9145 32.449L56.9626 32.433L56.9987 32.4214L57.0471 32.4059L57.0957 32.3907L57.1445 32.3757L57.1934 32.3609L57.2425 32.3464L57.2913 32.3323L57.3407 32.3184L57.3902 32.3048L57.4399 32.2914L57.4897 32.2782L57.5397 32.2652L57.5897 32.2526L57.64 32.2402L57.6903 32.228L57.7291 32.2189L57.78 32.2072L57.8307 32.1957L57.8817 32.1845C57.8901 32.1827 57.8984 32.1809 57.9067 32.1791L57.9575 32.1684L58.0087 32.1579L58.06 32.1475L58.1114 32.1375L58.163 32.1277L58.2146 32.1181L58.2662 32.1089L58.3178 32.0998L58.3694 32.0912L58.4207 32.0828L58.4706 32.0749L58.4939 32.0713C58.5341 32.0651 58.5745 32.059 58.6148 32.0533L58.6453 32.0491L58.6978 32.0419L58.7504 32.035L58.8031 32.0283L58.8558 32.0219L58.9083 32.0158L58.961 32.0099L59.0132 32.0043L59.0649 31.9991L59.1152 31.9942L59.1384 31.9919C59.19 31.9871 59.2417 31.9827 59.2935 31.9786L59.348 31.9744L59.4012 31.9706L59.4544 31.9671L59.5077 31.9638L59.561 31.9608L59.6139 31.958L59.6667 31.9555L59.7188 31.9532L59.7692 31.9513C59.8469 31.9485 59.9248 31.9465 60.0027 31.9453L60.0318 31.9449L60.0853 31.9443L60.1387 31.944L60.1922 31.9438L60.2454 31.9441L60.2986 31.9445L60.3512 31.9451L60.4028 31.946L60.4278 31.9465C60.5066 31.9483 60.585 31.9508 60.6637 31.9542L60.7173 31.9566L60.7705 31.9592L60.824 31.9621L60.8771 31.9653L60.9302 31.9687L60.9828 31.9723L61.0351 31.9761L61.0862 31.9801L61.1108 31.9822C61.1801 31.9879 61.2492 31.9943 61.3183 32.0013L61.3718 32.0069L61.4249 32.0127L61.4777 32.0187L61.5305 32.025L61.583 32.0316L61.6354 32.0383L61.6875 32.0453L61.739 32.0524L61.7895 32.0597L61.8131 32.0632C61.8463 32.0682 61.8799 32.0733 61.9134 32.0787L61.9698 32.0877L62.0196 32.0961L62.0692 32.1046L62.0925 32.1087L62.1362 32.1164L62.18 32.1245L62.3379 32.4645L59.1592 34.2996L59.1481 34.3061C58.2058 34.857 58.2093 35.7462 59.1592 36.2945C60.1127 36.845 61.6611 36.845 62.6145 36.2945L65.7494 34.4846L66.401 34.5855L66.4097 34.6015C66.419 34.619 66.4279 34.6364 66.4368 34.654L66.4497 34.6799L66.4634 34.7087L66.4701 34.723C66.7618 35.3489 66.7692 36.0098 66.4924 36.6375L66.4853 36.6532L66.4784 36.6687L66.4712 36.6841L66.464 36.6994L66.4568 36.7147L66.4494 36.73L66.442 36.7451L66.4343 36.7602L66.4266 36.7753L66.419 36.7904L66.4111 36.8054L66.403 36.8204C66.3734 36.8759 66.3414 36.9309 66.3072 36.9856L66.297 37.0021L66.2772 37.0326L66.2575 37.0625L66.2375 37.0922L66.217 37.1216L66.1962 37.1508L66.1752 37.1799L66.1535 37.2089L66.1314 37.2377L66.1203 37.252L66.1092 37.2664C66.0899 37.2906 66.0705 37.3147 66.0505 37.3387L66.0361 37.3556L66.0108 37.3854L65.9855 37.4143L65.96 37.4428L65.9344 37.4709L65.9082 37.4991L65.8818 37.527L65.8549 37.5547L65.8275 37.5824L65.7998 37.6099L65.7716 37.6374L65.7573 37.651L65.743 37.6646L65.7284 37.6783L65.7121 37.6935L65.6842 37.7191L65.6544 37.746L65.6242 37.7728L65.5934 37.7994L65.5621 37.826L65.5392 37.8452L65.5072 37.8717L65.4747 37.8979L65.442 37.9241L65.4087 37.95L65.375 37.9759L65.3409 38.0016L65.3236 38.0145L65.3062 38.0273L65.2854 38.0425L65.2537 38.0654L65.2179 38.0906L65.1819 38.1157L65.1454 38.1407L65.1084 38.1655L65.081 38.1837L65.0521 38.2025L65.0241 38.2206L64.9859 38.245L64.947 38.2692L64.9078 38.2933L64.8681 38.3172L64.8281 38.341L64.8079 38.3528L64.7875 38.3645C63.041 39.373 60.5461 39.6887 58.3313 39.3118L37.6823 51.2332C38.3351 52.5119 37.7882 53.9523 36.0415 54.9608L36.0141 54.9765L35.9796 54.996L35.9382 55.0192L35.8963 55.0421L35.8654 55.0588L35.8328 55.076L35.8016 55.0926L35.7689 55.1095L35.7374 55.1256L35.6942 55.1474L35.6508 55.169L35.6072 55.19L35.5634 55.2111L35.5414 55.2214L35.5193 55.2318L35.4912 55.2447L35.4527 55.2622L35.408 55.2823L35.3632 55.3022L35.318 55.3216L35.2726 55.3409L35.2389 55.355L35.1932 55.3739L35.1472 55.3926L35.101 55.4109L35.0546 55.429L35.008 55.4468L34.9611 55.4645L34.9333 55.4747L34.8906 55.4904L34.8433 55.5073L34.7958 55.524L34.7482 55.5404L34.7003 55.5565L34.6522 55.5725L34.6162 55.5842L34.5678 55.5997L34.5191 55.6149L34.4704 55.6299L34.4215 55.6446L34.3724 55.6591L34.3236 55.6732L34.2741 55.6871L34.2247 55.7007L34.1749 55.7142L34.125 55.7274L34.0751 55.7403L34.025 55.753L33.9748 55.7653L33.9245 55.7775L33.8857 55.7867L33.8349 55.7984L33.784 55.8099L33.733 55.8211C33.7249 55.8229 33.7164 55.8247 33.7081 55.8265L33.6575 55.8372L33.6062 55.8477L33.5549 55.8581L33.5035 55.8681L33.452 55.878L33.4004 55.8875L33.3486 55.8967L33.297 55.9057L33.2455 55.9144L33.1943 55.9229L33.1443 55.9308L33.1211 55.9345C33.0808 55.9406 33.0404 55.9466 33.0002 55.9523L32.9697 55.9566L32.9171 55.9638L32.8645 55.9707L32.8119 55.9774L32.7593 55.9838L32.7066 55.99L32.654 55.9958L32.6018 56.0015L32.55 56.0067L32.4998 56.0116L32.4767 56.0138C32.425 56.0186 32.3733 56.023 32.3215 56.0272L32.2669 56.0314L32.2137 56.0351L32.1604 56.0387L32.1072 56.042L32.054 56.045L32.001 56.0478L31.9482 56.0503L31.8962 56.0525L31.8459 56.0544C31.7681 56.0572 31.6902 56.0593 31.6123 56.0605L31.5832 56.061L31.5295 56.0615L31.4762 56.0618L31.4227 56.062L31.3694 56.0617L31.3164 56.0614L31.2639 56.0606L31.2123 56.0597L31.1872 56.0592C31.1085 56.0575 31.0299 56.055 30.9513 56.0517L30.8978 56.0492L30.8444 56.0467L30.7909 56.0437L30.7379 56.0405L30.6848 56.0372L30.6321 56.0336L30.5798 56.0296L30.5288 56.0256L30.5042 56.0237C30.4347 56.0179 30.3656 56.0115 30.2965 56.0045L30.243 55.999L30.19 55.9932L30.1373 55.9871L30.0845 55.9808L30.0318 55.9744L29.9795 55.9676L29.9274 55.9606L29.8758 55.9534L29.8255 55.9462L29.8019 55.9427C29.7685 55.9378 29.7351 55.9327 29.7016 55.9273L29.6452 55.9184L29.5952 55.9099L29.5458 55.9014L29.5225 55.8973L29.4787 55.8895L29.435 55.8815L29.2771 55.5417L32.4557 53.7066L32.4669 53.7C33.4092 53.1489 33.4055 52.2599 32.4557 51.7115C31.5021 51.161 29.9539 51.161 29.0003 51.7115L25.8656 53.5215L25.2139 53.4207L25.2052 53.4045C25.196 53.3871 25.187 53.3696 25.1781 53.352L25.1652 53.3261L25.1514 53.2973L25.1447 53.283C24.8531 52.6573 24.8456 51.9961 25.1225 51.3684L25.1295 51.3528L25.1366 51.3373L25.1437 51.3219L25.1508 51.3066L25.1581 51.2914L25.1655 51.2761L25.1729 51.2609L25.1805 51.2458L25.1882 51.2306L25.196 51.2156L25.2038 51.2007L25.2117 51.1857C25.2414 51.1302 25.2734 51.0751 25.3075 51.0204L25.3179 51.0039L25.3375 50.9734L25.3574 50.9435L25.3774 50.9139L25.3979 50.8844L25.4186 50.8552L25.4398 50.8261L25.4613 50.7972L25.4835 50.7683L25.4945 50.754L25.5058 50.7395C25.525 50.7154 25.5444 50.6913 25.5644 50.6672L25.5788 50.6503L25.6042 50.6206L25.6293 50.5918L25.6548 50.5633L25.6806 50.535L25.7067 50.507L25.733 50.4791L25.7601 50.4513L25.7874 50.4237L25.8152 50.3962L25.8432 50.3688L25.8576 50.355L25.8719 50.3415L25.8865 50.3278L25.9028 50.3125L25.9306 50.2869L25.9606 50.2601L25.9908 50.2332L26.0215 50.2066L26.0528 50.1799L26.0757 50.1607L26.1077 50.1343L26.1401 50.1081L26.1729 50.0819L26.2062 50.0559L26.2399 50.03L26.274 50.0043L26.2912 49.9914L26.3086 49.9788L26.3294 49.9635L26.3612 49.9406L26.3968 49.9154L26.4329 49.8903L26.4694 49.8653L26.5063 49.8405L26.5339 49.8222L26.5625 49.8034L26.5906 49.7853L26.6289 49.761L26.6678 49.7368L26.707 49.7127L26.7466 49.6887L26.7867 49.665L26.8069 49.6532L26.8273 49.6415C28.5739 48.6331 31.0687 48.3173 33.2836 48.6942L53.9326 36.7724ZM37.3617 50.7375L58.0871 38.7717C60.1248 39.2311 62.5308 38.986 64.1757 38.0364C65.542 37.2476 66.0663 36.1557 65.7487 35.1344L63.1252 36.6492C61.8611 37.379 59.8085 37.379 58.5443 36.6492C57.2802 35.9193 57.2802 34.7342 58.5443 34.0043L61.168 32.4897C59.399 32.3064 57.5078 32.6091 56.1415 33.3979C54.4967 34.3475 54.0721 35.7367 54.8679 36.9132L33.5278 49.234C31.4899 48.7746 29.0839 49.0196 27.4389 49.9693C26.0728 50.758 25.5485 51.85 25.8659 52.8713L28.4896 51.3565C29.7537 50.6267 31.8063 50.6267 33.0704 51.3565C34.3345 52.0863 34.3345 53.2715 33.0704 54.0013L30.4467 55.5161C32.2157 55.6993 34.107 55.3966 35.4733 54.6078C37.1181 53.6582 37.5426 52.2691 36.7468 51.0925L37.3617 50.7375Z" fill="#EAEAF0"/>
<path d="M53.9326 36.7724C53.2798 35.4937 53.8267 34.0533 55.5732 33.0449L55.6007 33.0291L55.6351 33.0096L55.6767 32.9864L55.7186 32.9634L55.7495 32.9468L55.7819 32.9295L55.8134 32.913L55.846 32.896L55.8775 32.8799L55.9206 32.8581L55.9641 32.8367L56.0077 32.8155L56.0516 32.7946L56.0736 32.7841L56.0957 32.7738L56.1237 32.7608L56.1623 32.7432L56.2068 32.7232L56.2518 32.7034L56.2969 32.6838L56.3424 32.6645L56.3759 32.6504L56.4218 32.6316L56.4677 32.6129L56.514 32.5945L56.5604 32.5765L56.607 32.5586L56.6537 32.541L56.6815 32.5307L56.7242 32.5152L56.7714 32.4982L56.8191 32.4815L56.8668 32.4652L56.9145 32.449L56.9626 32.433L56.9987 32.4214L57.0471 32.4059L57.0957 32.3907L57.1445 32.3757L57.1934 32.3609L57.2425 32.3464L57.2913 32.3323L57.3407 32.3184L57.3902 32.3048L57.4399 32.2914L57.4897 32.2782L57.5397 32.2652L57.5897 32.2526L57.64 32.2402L57.6903 32.228L57.7291 32.2189L57.78 32.2072L57.8307 32.1957L57.8817 32.1845C57.8901 32.1827 57.8984 32.1809 57.9067 32.1791L57.9575 32.1684L58.0087 32.1579L58.06 32.1475L58.1114 32.1375L58.163 32.1277L58.2146 32.1181L58.2662 32.1089L58.3178 32.0998L58.3694 32.0912L58.4207 32.0828L58.4706 32.0749L58.4939 32.0713C58.5341 32.0651 58.5745 32.059 58.6148 32.0533L58.6453 32.0491L58.6978 32.0419L58.7504 32.035L58.8031 32.0283L58.8558 32.0219L58.9083 32.0158L58.961 32.0099L59.0132 32.0043L59.0649 31.9991L59.1152 31.9942L59.1384 31.9919C59.19 31.9871 59.2417 31.9827 59.2935 31.9786L59.348 31.9744L59.4012 31.9706L59.4544 31.9671L59.5077 31.9638L59.561 31.9608L59.6139 31.958L59.6667 31.9555L59.7188 31.9532L59.7692 31.9513C59.8469 31.9485 59.9248 31.9465 60.0027 31.9453L60.0318 31.9449L60.0853 31.9443L60.1387 31.944L60.1922 31.9438L60.2454 31.9441L60.2986 31.9445L60.3512 31.9451L60.4028 31.946L60.4278 31.9465C60.5066 31.9483 60.585 31.9508 60.6637 31.9542L60.7173 31.9566L60.7705 31.9592L60.824 31.9621L60.8771 31.9653L60.9302 31.9687L60.9828 31.9723L61.0351 31.9761L61.0862 31.9801L61.1108 31.9822C61.1801 31.9879 61.2492 31.9943 61.3183 32.0013L61.3718 32.0069L61.4249 32.0127L61.4777 32.0187L61.5305 32.025L61.583 32.0316L61.6354 32.0383L61.6875 32.0453L61.739 32.0524L61.7895 32.0597L61.8131 32.0632C61.8463 32.0682 61.8799 32.0733 61.9134 32.0787L61.9698 32.0877L62.0196 32.0961L62.0692 32.1046L62.0925 32.1087L62.1362 32.1164L62.18 32.1245L62.3379 32.4645L59.1592 34.2996L59.1481 34.3061C58.2058 34.857 58.2093 35.7462 59.1592 36.2945C60.1127 36.845 61.6611 36.845 62.6145 36.2945L65.7494 34.4846L66.401 34.5855L66.4097 34.6015C66.419 34.619 66.4279 34.6364 66.4368 34.654L66.4497 34.6799L66.4634 34.7087L66.4701 34.723C66.7618 35.3489 66.7692 36.0098 66.4924 36.6375L66.4853 36.6532L66.4784 36.6687L66.4712 36.6841L66.464 36.6994L66.4568 36.7147L66.4494 36.73L66.442 36.7451L66.4343 36.7602L66.4266 36.7753L66.419 36.7904L66.4111 36.8054L66.403 36.8204C66.3734 36.8759 66.3414 36.9309 66.3072 36.9856L66.297 37.0021L66.2772 37.0326L66.2575 37.0625L66.2375 37.0922L66.217 37.1216L66.1962 37.1508L66.1752 37.1799L66.1535 37.2089L66.1314 37.2377L66.1203 37.252L66.1092 37.2664C66.0899 37.2906 66.0705 37.3147 66.0505 37.3387L66.0361 37.3556L66.0108 37.3854L65.9855 37.4143L65.96 37.4428L65.9344 37.4709L65.9082 37.4991L65.8818 37.527L65.8549 37.5547L65.8275 37.5824L65.7998 37.6099L65.7716 37.6374L65.7573 37.651L65.743 37.6646L65.7284 37.6783L65.7121 37.6935L65.6842 37.7191L65.6544 37.746L65.6242 37.7728L65.5934 37.7994L65.5621 37.826L65.5392 37.8452L65.5072 37.8717L65.4747 37.8979L65.442 37.9241L65.4087 37.95L65.375 37.9759L65.3409 38.0016L65.3236 38.0145L65.3062 38.0273L65.2854 38.0425L65.2537 38.0654L65.2179 38.0906L65.1819 38.1157L65.1454 38.1407L65.1084 38.1655L65.081 38.1837L65.0521 38.2025L65.0241 38.2206L64.9859 38.245L64.947 38.2692L64.9078 38.2933L64.8681 38.3172L64.8281 38.341L64.8079 38.3528L64.7875 38.3645C63.041 39.373 60.5461 39.6887 58.3313 39.3118L37.6823 51.2332C38.3351 52.5119 37.7882 53.9523 36.0415 54.9608L36.0141 54.9765L35.9796 54.996L35.9382 55.0192L35.8963 55.0421L35.8654 55.0588L35.8328 55.076L35.8016 55.0926L35.7689 55.1095L35.7374 55.1256L35.6942 55.1474L35.6508 55.169L35.6072 55.19L35.5634 55.2111L35.5414 55.2214L35.5193 55.2318L35.4912 55.2447L35.4527 55.2622L35.408 55.2823L35.3632 55.3022L35.318 55.3216L35.2726 55.3409L35.2389 55.355L35.1932 55.3739L35.1472 55.3926L35.101 55.4109L35.0546 55.429L35.008 55.4468L34.9611 55.4645L34.9333 55.4747L34.8906 55.4904L34.8433 55.5073L34.7958 55.524L34.7482 55.5404L34.7003 55.5565L34.6522 55.5725L34.6162 55.5842L34.5678 55.5997L34.5191 55.6149L34.4704 55.6299L34.4215 55.6446L34.3724 55.6591L34.3236 55.6732L34.2741 55.6871L34.2247 55.7007L34.1749 55.7142L34.125 55.7274L34.0751 55.7403L34.025 55.753L33.9748 55.7653L33.9245 55.7775L33.8857 55.7867L33.8349 55.7984L33.784 55.8099L33.733 55.8211C33.7249 55.8229 33.7164 55.8247 33.7081 55.8265L33.6575 55.8372L33.6062 55.8477L33.5549 55.8581L33.5035 55.8681L33.452 55.878L33.4004 55.8875L33.3486 55.8967L33.297 55.9057L33.2455 55.9144L33.1943 55.9229L33.1443 55.9308L33.1211 55.9345C33.0808 55.9406 33.0404 55.9466 33.0002 55.9523L32.9697 55.9566L32.9171 55.9638L32.8645 55.9707L32.8119 55.9774L32.7593 55.9838L32.7066 55.99L32.654 55.9958L32.6018 56.0015L32.55 56.0067L32.4998 56.0116L32.4767 56.0138C32.425 56.0186 32.3733 56.023 32.3215 56.0272L32.2669 56.0314L32.2137 56.0351L32.1604 56.0387L32.1072 56.042L32.054 56.045L32.001 56.0478L31.9482 56.0503L31.8962 56.0525L31.8459 56.0544C31.7681 56.0572 31.6902 56.0593 31.6123 56.0605L31.5832 56.061L31.5295 56.0615L31.4762 56.0618L31.4227 56.062L31.3694 56.0617L31.3164 56.0614L31.2639 56.0606L31.2123 56.0597L31.1872 56.0592C31.1085 56.0575 31.0299 56.055 30.9513 56.0517L30.8978 56.0492L30.8444 56.0467L30.7909 56.0437L30.7379 56.0405L30.6848 56.0372L30.6321 56.0336L30.5798 56.0296L30.5288 56.0256L30.5042 56.0237C30.4347 56.0179 30.3656 56.0115 30.2965 56.0045L30.243 55.999L30.19 55.9932L30.1373 55.9871L30.0845 55.9808L30.0318 55.9744L29.9795 55.9676L29.9274 55.9606L29.8758 55.9534L29.8255 55.9462L29.8019 55.9427C29.7685 55.9378 29.7351 55.9327 29.7016 55.9273L29.6452 55.9184L29.5952 55.9099L29.5458 55.9014L29.5225 55.8973L29.4787 55.8895L29.435 55.8815L29.2771 55.5417L32.4557 53.7066L32.4669 53.7C33.4092 53.1489 33.4055 52.2599 32.4557 51.7115C31.5021 51.161 29.9539 51.161 29.0003 51.7115L25.8656 53.5215L25.2139 53.4207L25.2052 53.4045C25.196 53.3871 25.187 53.3696 25.1781 53.352L25.1652 53.3261L25.1514 53.2973L25.1447 53.283C24.8531 52.6573 24.8456 51.9961 25.1225 51.3684L25.1295 51.3528L25.1366 51.3373L25.1437 51.3219L25.1508 51.3066L25.1581 51.2914L25.1655 51.2761L25.1729 51.2609L25.1805 51.2458L25.1882 51.2306L25.196 51.2156L25.2038 51.2007L25.2117 51.1857C25.2414 51.1302 25.2734 51.0751 25.3075 51.0204L25.3179 51.0039L25.3375 50.9734L25.3574 50.9435L25.3774 50.9139L25.3979 50.8844L25.4186 50.8552L25.4398 50.8261L25.4613 50.7972L25.4835 50.7683L25.4945 50.754L25.5058 50.7395C25.525 50.7154 25.5444 50.6913 25.5644 50.6672L25.5788 50.6503L25.6042 50.6206L25.6293 50.5918L25.6548 50.5633L25.6806 50.535L25.7067 50.507L25.733 50.4791L25.7601 50.4513L25.7874 50.4237L25.8152 50.3962L25.8432 50.3688L25.8576 50.355L25.8719 50.3415L25.8865 50.3278L25.9028 50.3125L25.9306 50.2869L25.9606 50.2601L25.9908 50.2332L26.0215 50.2066L26.0528 50.1799L26.0757 50.1607L26.1077 50.1343L26.1401 50.1081L26.1729 50.0819L26.2062 50.0559L26.2399 50.03L26.274 50.0043L26.2912 49.9914L26.3086 49.9788L26.3294 49.9635L26.3612 49.9406L26.3968 49.9154L26.4329 49.8903L26.4694 49.8653L26.5063 49.8405L26.5339 49.8222L26.5625 49.8034L26.5906 49.7853L26.6289 49.761L26.6678 49.7368L26.707 49.7127L26.7466 49.6887L26.7867 49.665L26.8069 49.6532L26.8273 49.6415C28.5739 48.6331 31.0687 48.3173 33.2836 48.6942L53.9326 36.7724ZM37.3617 50.7375L58.0871 38.7717C60.1248 39.2311 62.5308 38.986 64.1757 38.0364C65.542 37.2476 66.0663 36.1557 65.7487 35.1344L63.1252 36.6492C61.8611 37.379 59.8085 37.379 58.5443 36.6492C57.2802 35.9193 57.2802 34.7342 58.5443 34.0043L61.168 32.4897C59.399 32.3064 57.5078 32.6091 56.1415 33.3979C54.4967 34.3475 54.0721 35.7367 54.8679 36.9132L33.5278 49.234C31.4899 48.7746 29.0839 49.0196 27.4389 49.9693C26.0728 50.758 25.5485 51.85 25.8659 52.8713L28.4896 51.3565C29.7537 50.6267 31.8063 50.6267 33.0704 51.3565C34.3345 52.0863 34.3345 53.2715 33.0704 54.0013L30.4467 55.5161C32.2157 55.6993 34.107 55.3966 35.4733 54.6078C37.1181 53.6582 37.5426 52.2691 36.7468 51.0925L37.3617 50.7375Z" fill="#EAEAF0"/>
<path d="M25.8654 55.3427L25.2136 55.2419C25.0248 54.8907 24.927 54.5265 24.9207 54.1616H24.9203V52.3079C24.9213 52.6836 25.0192 53.059 25.2136 53.4209L25.8654 53.5219V55.3427Z" fill="#CCCBDB"/>
<path d="M59.6525 34.0142V35.8351L59.1582 36.1204C59.1096 36.1486 59.0633 36.1776 59.0196 36.2074C58.2072 35.6534 58.2535 34.8219 59.1582 34.2995L59.6525 34.0142Z" fill="#A7A7B5"/>
<path d="M34.0117 52.8044C33.9615 53.2408 33.6478 53.6688 33.0708 54.002L30.4472 55.5168C30.5724 55.5297 30.6982 55.5403 30.8247 55.5484L33.0708 54.2517C33.7578 53.8549 34.0713 53.3238 34.0117 52.8044ZM54.8683 36.9139L33.5279 49.2347C31.4902 48.7753 29.0842 49.0203 27.4393 49.9699C26.2757 50.6417 25.7228 51.5335 25.7806 52.4142C25.8329 51.6165 26.3857 50.8279 27.4393 50.2196C29.0841 49.2699 31.4903 49.0248 33.5279 49.4843L54.8683 37.1635V36.9139ZM36.8607 51.2772L36.7472 51.0931V51.3428C36.9801 51.6872 37.1084 52.0498 37.1322 52.414C37.1574 52.0307 37.0668 51.6455 36.8607 51.2772ZM57.6038 35.4522C57.544 35.9715 57.8577 36.5027 58.5447 36.8993C59.8089 37.6293 61.8615 37.6293 63.1255 36.8993L65.749 35.3846C65.7962 35.5361 65.8247 35.6891 65.8349 35.8425C65.8503 35.6061 65.8218 35.3687 65.749 35.135L63.1255 36.6498C61.8615 37.3796 59.8089 37.3796 58.5447 36.6498C57.9676 36.3166 57.654 35.8886 57.6038 35.4522ZM54.4831 35.8426C54.5355 35.0449 55.0884 34.2564 56.1419 33.6481C57.4114 32.9152 59.1342 32.6019 60.7908 32.7082L61.1683 32.4903C59.3993 32.307 57.5082 32.6097 56.1419 33.3985C54.9785 34.0703 54.4256 34.9618 54.4831 35.8426Z" fill="#BDC8D3"/>
<defs>
<filter id="filter0_f_187_2" x="14.4304" y="23.8474" width="33.9928" height="21.6656" filterUnits="userSpaceOnUse" color-interpolation-filters="sRGB">
<feFlood flood-opacity="0" result="BackgroundImageFix"/>
<feBlend mode="normal" in="SourceGraphic" in2="BackgroundImageFix" result="shape"/>
<feGaussianBlur stdDeviation="0.1" result="effect1_foregroundBlur_187_2"/>
</filter>
<filter id="filter1_f_187_2" x="28.887" y="36.6408" width="40.2783" height="22.9078" filterUnits="userSpaceOnUse" color-interpolation-filters="sRGB">
<feFlood flood-opacity="0" result="BackgroundImageFix"/>
<feBlend mode="normal" in="SourceGraphic" in2="BackgroundImageFix" result="shape"/>
<feGaussianBlur stdDeviation="0.1" result="effect1_foregroundBlur_187_2"/>
</filter>
<linearGradient id="paint0_linear_187_2" x1="39.6955" y1="19.9599" x2="27.5061" y2="45.6367" gradientUnits="userSpaceOnUse">
<stop stop-opacity="0.25"/>
<stop offset="0.5"/>
<stop offset="1" stop-opacity="0.25"/>
</linearGradient>
<linearGradient id="paint1_linear_187_2" x1="32.885" y1="28.6598" x2="22.063" y2="28.6598" gradientUnits="userSpaceOnUse">
<stop stop-color="#B9BFEA"/>
<stop offset="0.25" stop-color="#E5E9FF"/>
<stop offset="0.7" stop-color="#AFB6E5"/>
<stop offset="0.95" stop-color="#B9C0EA"/>
<stop offset="1" stop-color="#BDC3EC"/>
</linearGradient>
<linearGradient id="paint2_linear_187_2" x1="25.9586" y1="-1.44131" x2="28.5104" y2="46.1122" gradientUnits="userSpaceOnUse">
<stop offset="0.02" stop-color="#CCCBDB"/>
<stop offset="0.66" stop-color="#CCCBDB"/>
<stop offset="1" stop-color="#CCCBDB"/>
</linearGradient>
<radialGradient id="paint3_radial_187_2" cx="0" cy="0" r="1" gradientUnits="userSpaceOnUse" gradientTransform="translate(18.9722 21.6172) scale(0.968579)">
<stop stop-color="white"/>
<stop offset="1"/>
</radialGradient>
<radialGradient id="paint4_radial_187_2" cx="0" cy="0" r="1" gradientUnits="userSpaceOnUse" gradientTransform="translate(41.1567 29.9054) scale(0.37253)">
<stop stop-color="white"/>
<stop offset="1"/>
</radialGradient>
<radialGradient id="paint5_radial_187_2" cx="0" cy="0" r="1" gradientUnits="userSpaceOnUse" gradientTransform="translate(27.6144 27.6885) scale(4.04195)">
<stop stop-color="white"/>
<stop offset="1"/>
</radialGradient>
<radialGradient id="paint6_radial_187_2" cx="0" cy="0" r="1" gradientUnits="userSpaceOnUse" gradientTransform="translate(36.1833 21.6356) scale(0.96858)">
<stop stop-color="white"/>
<stop offset="1"/>
</radialGradient>
<radialGradient id="paint7_radial_187_2" cx="0" cy="0" r="1" gradientUnits="userSpaceOnUse" gradientTransform="translate(43.1317 27.4288) scale(1.58326 1.58325)">
<stop stop-color="white"/>
<stop offset="1"/>
</radialGradient>
<radialGradient id="paint8_radial_187_2" cx="0" cy="0" r="1" gradientUnits="userSpaceOnUse" gradientTransform="translate(12.0821 27.3749) scale(1.60188)">
<stop stop-color="white"/>
<stop offset="1"/>
</radialGradient>
<radialGradient id="paint9_radial_187_2" cx="0" cy="0" r="1" gradientUnits="userSpaceOnUse" gradientTransform="translate(27.673 38.3063) scale(6.55653 6.55653)">
<stop stop-color="white"/>
<stop offset="1"/>
</radialGradient>
<radialGradient id="paint10_radial_187_2" cx="0" cy="0" r="1" gradientUnits="userSpaceOnUse" gradientTransform="translate(14.0939 29.8336) scale(0.391159 0.391157)">
<stop stop-color="white"/>
<stop offset="1"/>
</radialGradient>
<radialGradient id="paint11_radial_187_2" cx="0" cy="0" r="1" gradientUnits="userSpaceOnUse" gradientTransform="translate(40.4673 33.9858) scale(3.61354)">
<stop stop-color="white"/>
<stop offset="1"/>
</radialGradient>
<radialGradient id="paint12_radial_187_2" cx="0" cy="0" r="1" gradientUnits="userSpaceOnUse" gradientTransform="translate(14.8202 33.9307) scale(3.63217)">
<stop stop-color="white"/>
<stop offset="1"/>
</radialGradient>
<linearGradient id="paint13_linear_187_2" x1="47.3877" y1="46.421" x2="53.1759" y2="55.4249" gradientUnits="userSpaceOnUse">
<stop/>
<stop offset="1" stop-opacity="0"/>
</linearGradient>
</defs>
</svg>
