<svg width="72" height="72" viewBox="0 0 72 72" fill="none" xmlns="http://www.w3.org/2000/svg">
<g opacity="0.2" filter="url(#filter0_f_187_5025)">
<path d="M27.3945 51.3467L23.0115 54.1438L14.8887 49.4326L19.2021 46.9375L27.3945 51.3467Z" fill="url(#paint0_linear_187_5025)"/>
</g>
<path d="M40.2071 12.1577L33.5927 17.2215L35.4583 18.5056L30.4915 28.6815L26.3484 25.9195L14.743 49.3485L19.2495 46.7318L27.0995 30.959L31.1941 33.7453L37.8327 20.1531L39.5045 21.2676L40.2071 12.1577Z" fill="#5BD6B3"/>
<path d="M41.2704 12.7871L34.656 17.8509L36.5216 19.135L31.579 29.3109L27.436 26.5489L15.8305 49.9779L20.337 47.3612L28.187 31.5884L32.2817 34.3747L38.9203 20.7825L40.5678 21.897L41.2704 12.7871Z" fill="#2CA885"/>
<path d="M15.8333 49.9771L14.743 49.3472L26.3484 25.9182L27.4387 26.5482L15.8333 49.9771Z" fill="#5BD6B3"/>
<path d="M32.2833 34.3742L31.193 33.7442L28.1403 31.6606L28.1887 31.5879L32.2833 34.3742Z" fill="#147C77"/>
<path d="M41.2708 12.7874L40.2047 12.1575L33.5903 17.2212L34.6564 17.8512L41.2708 12.7874Z" fill="#5BD6B3"/>
<path d="M33.5903 17.2205L34.6564 17.8504L36.522 19.1345L35.4559 18.5046L33.5903 17.2205Z" fill="#147C77"/>
<path d="M39.5074 21.2663L40.5734 21.8962L38.9259 20.7817L38.8774 20.8544L39.5074 21.2663Z" fill="#147C77"/>
<g opacity="0.2" filter="url(#filter1_f_187_5025)">
<path fill-rule="evenodd" clip-rule="evenodd" d="M24.1912 54.7431L34.0096 49.1748V49.7128L34.1979 49.8473V51.1116L34.0096 51.2192V52.2145L40.3548 56.161L29.719 58.0691L24.1912 54.7431Z" fill="url(#paint1_linear_187_5025)"/>
</g>
<g opacity="0.2" filter="url(#filter2_f_187_5025)">
<path d="M54.7372 55.8672C55.5593 56.2734 55.4472 57.4794 54.5643 57.7266L47.1532 59.7979C46.8962 59.8697 46.6214 59.8361 46.3895 59.7041L42.0262 57.2178L49.0331 53.0488L54.7372 55.8672Z" fill="url(#paint2_linear_187_5025)"/>
</g>
<path fill-rule="evenodd" clip-rule="evenodd" d="M34.5607 50.8292L32.8391 49.8339V46.9019L34.5607 47.8971V50.8292Z" fill="#B5CEFF"/>
<path fill-rule="evenodd" clip-rule="evenodd" d="M34.5607 50.8292L32.8391 49.8339V46.9019L34.5607 47.8971V50.8292ZM32.8929 49.807L34.48 50.7216V47.924L32.8929 47.0095V49.807Z" fill="#5B9BC2"/>
<path fill-rule="evenodd" clip-rule="evenodd" d="M43.1435 34.7429L50.0298 30.7617V32.3219L49.8415 32.4295V33.7207L50.0298 33.8283V35.1733L49.8415 35.2809V36.5452L50.0298 36.6797V37.9978L49.8415 38.1054V39.3965L50.0298 39.5041V40.8491L49.8415 40.9567V42.221L50.0298 42.3555V43.6736L49.8415 43.7812V45.0724L50.0298 45.18V46.525L49.8415 46.6326V47.8969L50.0298 48.0314V49.3495L49.8415 49.4571V50.7482L50.0298 50.8558V53.8148L43.1435 57.796L41.2605 45.9601L43.1435 34.7429Z" fill="#172952"/>
<path fill-rule="evenodd" clip-rule="evenodd" d="M43.143 34.744L29.3972 26.8086V28.3688L29.5855 28.4764V29.7407L29.3972 29.8752V31.1933L29.5855 31.3009V32.592L29.3972 32.6996V34.0446V34.0177L29.5855 34.1522V35.4165L29.3972 35.5241V36.8691L29.5855 36.9767V38.2679L29.3972 38.3755V39.6936L29.5855 39.8281V41.0924L29.3972 41.2V49.8348L32.8404 48.7588L34.3468 49.7541V52.6862L43.143 57.7971V34.744Z" fill="#2A467E"/>
<path fill-rule="evenodd" clip-rule="evenodd" d="M29.3972 26.8073L36.2836 22.8262L50.0293 30.7616L43.143 34.7428L29.3972 26.8073ZM30.527 26.8073L43.143 34.0972L48.8995 30.7885L36.2836 23.4987L30.527 26.8073Z" fill="#E5E8FF"/>
<path fill-rule="evenodd" clip-rule="evenodd" d="M30.5269 26.8082L36.2834 23.4727L48.8994 30.7625L43.1428 34.0981L30.5269 26.8082Z" fill="white"/>
<path fill-rule="evenodd" clip-rule="evenodd" d="M41.4188 50.7726L43.1404 51.7679V50.4767L41.4188 49.4814V50.7726Z" fill="#7DA9FF"/>
<path fill-rule="evenodd" clip-rule="evenodd" d="M41.4995 50.7457L43.0866 51.6603V50.5036L41.4995 49.589V50.7457ZM41.4188 50.7726L43.1404 51.7679V50.4767L41.4188 49.4814V50.7726Z" fill="#5D82CA"/>
<path fill-rule="evenodd" clip-rule="evenodd" d="M39.7015 49.78L41.4231 50.7753V49.4841L39.7015 48.4888V49.78Z" fill="#7DA9FF"/>
<path fill-rule="evenodd" clip-rule="evenodd" d="M39.7822 49.7531L41.3693 50.6676V49.511L39.7822 48.5964V49.7531ZM39.7015 49.78L41.4231 50.7753V49.4841L39.7015 48.4888V49.78Z" fill="#5D82CA"/>
<path fill-rule="evenodd" clip-rule="evenodd" d="M38.0028 48.7839L39.6975 49.7792V48.488L38.0028 47.4927V48.7839Z" fill="#7DA9FF"/>
<path fill-rule="evenodd" clip-rule="evenodd" d="M38.0566 48.757L39.6437 49.6716V48.5149L38.0566 47.6003V48.757ZM38.0028 48.7839L39.7244 49.7792V48.488L38.0028 47.4927V48.7839Z" fill="#5D82CA"/>
<path fill-rule="evenodd" clip-rule="evenodd" d="M36.2809 47.7887L38.0025 48.784V47.4928L36.2809 46.4976V47.7887Z" fill="#7DA9FF"/>
<path fill-rule="evenodd" clip-rule="evenodd" d="M36.3347 47.7618L37.9218 48.6764V47.5197L36.3347 46.6052V47.7618ZM36.2809 47.7887L38.0025 48.784V47.4928L36.2809 46.4976V47.7887Z" fill="#5D82CA"/>
<path fill-rule="evenodd" clip-rule="evenodd" d="M34.5616 46.7927L36.2832 47.7879V46.4968L34.5616 45.5015V46.7927Z" fill="#7DA9FF"/>
<path fill-rule="evenodd" clip-rule="evenodd" d="M34.6154 46.7658L36.2025 47.6803V46.5237L34.6154 45.6091V46.7658ZM34.5616 46.7927L36.2832 47.7879V46.4968L34.5616 45.5015V46.7927Z" fill="#5D82CA"/>
<path fill-rule="evenodd" clip-rule="evenodd" d="M32.8397 45.7975L34.5613 46.7928V45.5016L32.8397 44.5063V45.7975Z" fill="#7DA9FF"/>
<path fill-rule="evenodd" clip-rule="evenodd" d="M32.8935 45.7706L34.4806 46.6852V45.5285L32.8935 44.6139V45.7706ZM32.8397 45.7975L34.5613 46.7928V45.5016L32.8397 44.5063V45.7975Z" fill="#5D82CA"/>
<path fill-rule="evenodd" clip-rule="evenodd" d="M24.2329 54.8116L25.9545 53.8164V50.8843L24.2329 51.8796V54.8116Z" fill="#37599C"/>
<path fill-rule="evenodd" clip-rule="evenodd" d="M24.2855 54.7014L25.8995 53.7868V50.9893L24.2855 51.9039V54.7014Z" fill="#6892E6"/>
<path fill-rule="evenodd" clip-rule="evenodd" d="M25.9562 53.816L27.6778 52.8207V49.8887L25.9562 50.884V53.816Z" fill="#2D4C8A"/>
<path fill-rule="evenodd" clip-rule="evenodd" d="M26.0088 53.7085L27.6228 52.7939V49.9963L26.0088 50.9109V53.7085Z" fill="#5375B8"/>
<path fill-rule="evenodd" clip-rule="evenodd" d="M27.6742 52.8204L29.3958 51.8251V48.8931L27.6742 49.8884V52.8204Z" fill="#2D4C8A"/>
<path fill-rule="evenodd" clip-rule="evenodd" d="M27.7321 52.7129L29.346 51.7983V49.0007L27.7321 49.9153V52.7129Z" fill="#5375B8"/>
<path fill-rule="evenodd" clip-rule="evenodd" d="M29.3975 51.8248L31.119 50.8295V47.8975L29.3975 48.8928V51.8248Z" fill="#2D4C8A"/>
<path fill-rule="evenodd" clip-rule="evenodd" d="M29.45 51.7173L31.0639 50.8027V48.0051L29.45 48.9197V51.7173Z" fill="#5375B8"/>
<path fill-rule="evenodd" clip-rule="evenodd" d="M31.1207 50.8292L32.8423 49.8339V46.9019L31.1207 47.8971V50.8292Z" fill="#2D4C8A"/>
<path fill-rule="evenodd" clip-rule="evenodd" d="M31.1732 50.7217L32.7872 49.8071V47.0095L31.1732 47.9241V50.7217Z" fill="#5375B8"/>
<path fill-rule="evenodd" clip-rule="evenodd" d="M19.5778 44.7235L29.3962 39.1553V39.6933L29.5845 39.8278V41.0921L29.3962 41.1997V42.1949L32.6779 44.6159L25.953 48.8392L19.5778 44.7235Z" fill="white"/>
<path fill-rule="evenodd" clip-rule="evenodd" d="M25.9536 48.1398L32.8399 44.1855V48.893L25.9536 52.8742L24.9314 51.7175L25.9536 48.1398Z" fill="#172952"/>
<path fill-rule="evenodd" clip-rule="evenodd" d="M41.4188 53.5995L43.1404 54.5948V53.3036L41.4188 52.3083V53.5995Z" fill="#7DA9FF"/>
<path fill-rule="evenodd" clip-rule="evenodd" d="M41.4995 53.5726L43.0866 54.4872V53.3305L41.4995 52.4159V53.5726ZM41.4188 53.5995L43.1404 54.5948V53.3036L41.4188 52.3083V53.5995Z" fill="#5D82CA"/>
<path fill-rule="evenodd" clip-rule="evenodd" d="M39.7015 52.6034L41.4231 53.5987V52.3075L39.7015 51.3123V52.6034Z" fill="#7DA9FF"/>
<path fill-rule="evenodd" clip-rule="evenodd" d="M39.7822 52.5765L41.3693 53.4911V52.3345L39.7822 51.4199V52.5765ZM39.7015 52.6034L41.4231 53.5987V52.3075L39.7015 51.3123V52.6034Z" fill="#5D82CA"/>
<path fill-rule="evenodd" clip-rule="evenodd" d="M38.0028 51.6352L39.6975 52.6036V51.3124L38.0028 50.3171V51.6352Z" fill="#7DA9FF"/>
<path fill-rule="evenodd" clip-rule="evenodd" d="M38.0566 51.5809L39.6437 52.4955V51.3388L38.0566 50.4242V51.5809ZM38.0028 51.6347L39.7244 52.63V51.3388L38.0028 50.3435V51.6347Z" fill="#5D82CA"/>
<path fill-rule="evenodd" clip-rule="evenodd" d="M36.2809 50.6418L38.0025 51.6371V50.319L36.2809 49.3237V50.6418Z" fill="#7DA9FF"/>
<path fill-rule="evenodd" clip-rule="evenodd" d="M36.3347 50.5872L37.9218 51.5018V50.3451L36.3347 49.4306V50.5872ZM36.2809 50.641L38.0025 51.6363V50.3451L36.2809 49.3499V50.641Z" fill="#5D82CA"/>
<path fill-rule="evenodd" clip-rule="evenodd" d="M34.5616 49.6465L36.2832 50.6417V49.3237L34.5616 48.3284V49.6465Z" fill="#7DA9FF"/>
<path fill-rule="evenodd" clip-rule="evenodd" d="M34.6154 49.5921L36.2025 50.5067V49.35L34.6154 48.4354V49.5921ZM34.5616 49.6459L36.2832 50.6412V49.35L34.5616 48.3547V49.6459Z" fill="#5D82CA"/>
<path fill-rule="evenodd" clip-rule="evenodd" d="M32.8397 48.6496L34.5613 49.6449V48.3268L32.8397 47.3584V48.6496Z" fill="#7DA9FF"/>
<path fill-rule="evenodd" clip-rule="evenodd" d="M32.8935 48.6227L34.4806 49.5373V48.3806L32.8935 47.466V48.6227ZM32.8397 48.6496L34.5613 49.6449V48.3537L32.8397 47.3584V48.6496Z" fill="#5D82CA"/>
<path fill-rule="evenodd" clip-rule="evenodd" d="M25.9547 48.1396L19.2836 44.293V44.6158L19.4719 44.7503V46.0684L19.2836 46.176V47.4671L19.4719 47.5747V48.8928L19.2836 49.0004V51.9325L24.2331 54.8108V51.8787L25.9547 52.874V48.1396Z" fill="#2A467E"/>
<path fill-rule="evenodd" clip-rule="evenodd" d="M32.8385 48.8636V48.6484L43.1411 54.5933V54.8354L32.8385 48.8636Z" fill="#5983D6"/>
<path fill-rule="evenodd" clip-rule="evenodd" d="M19.2836 44.2914L29.3979 38.4541V38.8038L19.9292 44.2914L25.9547 47.7614L32.1955 44.1838L28.7523 42.1932L29.3979 41.8166V42.1932L32.8411 44.1838L25.9547 48.138L19.2836 44.2914Z" fill="#E5E8FF"/>
<path fill-rule="evenodd" clip-rule="evenodd" d="M28.751 42.544V42.1943L32.1941 44.1849L31.8983 44.3463L28.751 42.544Z" fill="#8BACF6"/>
<path fill-rule="evenodd" clip-rule="evenodd" d="M19.9298 44.2932L29.3985 38.8057V39.1554L20.1988 44.4546L19.9298 44.2932Z" fill="#708DD0"/>
<path fill-rule="evenodd" clip-rule="evenodd" d="M30.9304 27.0234L36.2834 23.93V23.4727L30.5269 26.8082L30.9304 27.0234Z" fill="#708DD0"/>
<path fill-rule="evenodd" clip-rule="evenodd" d="M36.285 23.93V23.4727L48.901 30.7625L48.4975 31.0046L36.285 23.93Z" fill="#8BACF6"/>
<path fill-rule="evenodd" clip-rule="evenodd" d="M28.6722 53.6801L29.1564 53.9491L29.3985 52.3351L29.1564 51.017L28.6722 50.748V53.6801Z" fill="#152440"/>
<path fill-rule="evenodd" clip-rule="evenodd" d="M29.6397 53.6801L29.1555 53.9491V51.017L29.6397 50.748V53.6801Z" fill="#5375B8"/>
<path fill-rule="evenodd" clip-rule="evenodd" d="M41.4503 36.5976L43.145 37.566V36.3017L41.4503 35.3064V36.5976Z" fill="#7DA9FF"/>
<path fill-rule="evenodd" clip-rule="evenodd" d="M41.531 36.5707L43.1181 37.4853V36.3555L41.531 35.4409V36.5707ZM41.4503 36.5976L43.145 37.566V36.2748L41.4503 35.3064V36.5976Z" fill="#5D82CA"/>
<path fill-rule="evenodd" clip-rule="evenodd" d="M39.7535 35.631L41.4482 36.5994V35.3082L39.7535 34.3398V35.631Z" fill="#7DA9FF"/>
<path fill-rule="evenodd" clip-rule="evenodd" d="M39.8342 35.5772L41.4213 36.4918V35.362L39.8342 34.4474V35.5772ZM39.7535 35.631L41.4482 36.5994V35.3082L39.7535 34.3398V35.631Z" fill="#5D82CA"/>
<path fill-rule="evenodd" clip-rule="evenodd" d="M38.0614 34.6344L39.7561 35.6297V34.3385L38.0614 33.3701V34.6344Z" fill="#7DA9FF"/>
<path fill-rule="evenodd" clip-rule="evenodd" d="M38.1421 34.608L39.7292 35.5226V34.3928L38.1421 33.4782V34.608ZM38.0614 34.6349L39.7561 35.6033V34.3121L38.0614 33.3438V34.6349Z" fill="#5D82CA"/>
<path fill-rule="evenodd" clip-rule="evenodd" d="M36.3649 33.6659L38.0596 34.6343V33.37L36.3649 32.3748V33.6659Z" fill="#7DA9FF"/>
<path fill-rule="evenodd" clip-rule="evenodd" d="M36.4456 33.639L38.0327 34.5536V33.4238L36.4456 32.5093V33.639ZM36.3649 33.6659L38.0596 34.6343V33.3431L36.3649 32.3748V33.6659Z" fill="#5D82CA"/>
<path fill-rule="evenodd" clip-rule="evenodd" d="M34.6727 32.6703L36.3674 33.6656V32.3744L34.6727 31.406V32.6703Z" fill="#7DA9FF"/>
<path fill-rule="evenodd" clip-rule="evenodd" d="M34.7265 32.6439L36.3136 33.5585V32.4287L34.7265 31.5141V32.6439ZM34.6727 32.6708L36.3674 33.6392V32.348L34.6727 31.3796V32.6708Z" fill="#5D82CA"/>
<path fill-rule="evenodd" clip-rule="evenodd" d="M32.976 31.7033L34.6706 32.6717V31.4074L32.976 30.4121V31.7033Z" fill="#7DA9FF"/>
<path fill-rule="evenodd" clip-rule="evenodd" d="M33.0298 31.6764L34.6168 32.591V31.4612L33.0298 30.5466V31.6764ZM32.976 31.7033L34.6706 32.6717V31.3805L32.976 30.4121V31.7033Z" fill="#5D82CA"/>
<path fill-rule="evenodd" clip-rule="evenodd" d="M31.2838 30.7343L32.9785 31.7027V30.4115L31.2838 29.4431V30.7343Z" fill="#7DA9FF"/>
<path fill-rule="evenodd" clip-rule="evenodd" d="M31.3376 30.6805L32.9247 31.5951V30.4653L31.3376 29.5507V30.6805ZM31.2838 30.7343L32.9785 31.7027V30.4115L31.2838 29.4431V30.7343Z" fill="#5D82CA"/>
<path fill-rule="evenodd" clip-rule="evenodd" d="M29.5873 29.7387L31.282 30.7339V29.4428L29.5873 28.4744V29.7387Z" fill="#7DA9FF"/>
<path fill-rule="evenodd" clip-rule="evenodd" d="M29.6411 29.7123L31.2282 30.6269V29.4971L29.6411 28.5825V29.7123ZM29.5873 29.7392L31.282 30.7076V29.4164L29.5873 28.448V29.7392Z" fill="#5D82CA"/>
<path fill-rule="evenodd" clip-rule="evenodd" d="M29.3972 29.8747L29.5855 29.7402L43.143 37.5681V37.8102L29.3972 29.8747Z" fill="#5983D6"/>
<path fill-rule="evenodd" clip-rule="evenodd" d="M41.4503 39.4242L43.145 40.4195V39.1283L41.4503 38.1599V39.4242Z" fill="#7DA9FF"/>
<path fill-rule="evenodd" clip-rule="evenodd" d="M41.531 39.3978L43.1181 40.3124V39.1826L41.531 38.268V39.3978ZM41.4503 39.4247L43.145 40.3931V39.1019L41.4503 38.1335V39.4247Z" fill="#5D82CA"/>
<path fill-rule="evenodd" clip-rule="evenodd" d="M39.7535 38.4548L41.4482 39.4232V38.1589L39.7535 37.1636V38.4548Z" fill="#7DA9FF"/>
<path fill-rule="evenodd" clip-rule="evenodd" d="M39.8342 38.4279L41.4213 39.3425V38.2127L39.8342 37.2981V38.4279ZM39.7535 38.4548L41.4482 39.4232V38.132L39.7535 37.1636V38.4548Z" fill="#5D82CA"/>
<path fill-rule="evenodd" clip-rule="evenodd" d="M38.0614 37.4882L39.7561 38.4566V37.1654L38.0614 36.197V37.4882Z" fill="#7DA9FF"/>
<path fill-rule="evenodd" clip-rule="evenodd" d="M38.1421 37.4344L39.7292 38.349V37.2192L38.1421 36.3046V37.4344ZM38.0614 37.4882L39.7561 38.4566V37.1654L38.0614 36.197V37.4882Z" fill="#5D82CA"/>
<path fill-rule="evenodd" clip-rule="evenodd" d="M36.3649 36.4926L38.0596 37.4879V36.1967L36.3649 35.2283V36.4926Z" fill="#7DA9FF"/>
<path fill-rule="evenodd" clip-rule="evenodd" d="M36.4456 36.4662L38.0327 37.3808V36.251L36.4456 35.3364V36.4662ZM36.3649 36.4931L38.0596 37.4615V36.1703L36.3649 35.2019V36.4931Z" fill="#5D82CA"/>
<path fill-rule="evenodd" clip-rule="evenodd" d="M34.6727 35.5231L36.3674 36.4915V35.2272L34.6727 34.2319V35.5231Z" fill="#7DA9FF"/>
<path fill-rule="evenodd" clip-rule="evenodd" d="M34.7265 35.4962L36.3136 36.4108V35.281L34.7265 34.3664V35.4962ZM34.6727 35.5231L36.3674 36.4915V35.2003L34.6727 34.2319V35.5231Z" fill="#5D82CA"/>
<path fill-rule="evenodd" clip-rule="evenodd" d="M32.976 34.5566L34.6706 35.525V34.2338L32.976 33.2654V34.5566Z" fill="#7DA9FF"/>
<path fill-rule="evenodd" clip-rule="evenodd" d="M33.0298 34.5028L34.6168 35.4174V34.2876L33.0298 33.373V34.5028ZM32.976 34.5566L34.6706 35.525V34.2338L32.976 33.2654V34.5566Z" fill="#5D82CA"/>
<path fill-rule="evenodd" clip-rule="evenodd" d="M31.2838 33.5609L32.9785 34.5562V33.265L31.2838 32.2966V33.5609Z" fill="#7DA9FF"/>
<path fill-rule="evenodd" clip-rule="evenodd" d="M31.3376 33.5343L32.9247 34.4489V33.3191L31.3376 32.4045V33.5343ZM31.2838 33.5612L32.9785 34.5296V33.2384L31.2838 32.27V33.5612Z" fill="#5D82CA"/>
<path fill-rule="evenodd" clip-rule="evenodd" d="M29.5873 32.5915L31.282 33.5599V32.2956L29.5873 31.3003V32.5915Z" fill="#7DA9FF"/>
<path fill-rule="evenodd" clip-rule="evenodd" d="M29.6411 32.5646L31.2282 33.4792V32.3494L29.6411 31.4348V32.5646ZM29.5873 32.5915L31.282 33.5599V32.2687L29.5873 31.3003V32.5915Z" fill="#5D82CA"/>
<path fill-rule="evenodd" clip-rule="evenodd" d="M29.3972 32.6974L29.5855 32.5898L43.143 40.4177V40.6329L29.3972 32.6974Z" fill="#5983D6"/>
<path fill-rule="evenodd" clip-rule="evenodd" d="M41.4503 42.2746L43.145 43.243V41.9787L41.4503 40.9834V42.2746Z" fill="#7DA9FF"/>
<path fill-rule="evenodd" clip-rule="evenodd" d="M41.531 42.2477L43.1181 43.1623V42.0325L41.531 41.1179V42.2477ZM41.4503 42.2746L43.145 43.243V41.9518L41.4503 40.9834V42.2746Z" fill="#5D82CA"/>
<path fill-rule="evenodd" clip-rule="evenodd" d="M39.7535 41.308L41.4482 42.2764V40.9852L39.7535 40.0168V41.308Z" fill="#7DA9FF"/>
<path fill-rule="evenodd" clip-rule="evenodd" d="M39.8342 41.2542L41.4213 42.1688V41.039L39.8342 40.1244V41.2542ZM39.7535 41.308L41.4482 42.2764V40.9852L39.7535 40.0168V41.308Z" fill="#5D82CA"/>
<path fill-rule="evenodd" clip-rule="evenodd" d="M38.0614 40.3114L39.7561 41.3067V40.0155L38.0614 39.0471V40.3114Z" fill="#7DA9FF"/>
<path fill-rule="evenodd" clip-rule="evenodd" d="M38.1421 40.285L39.7292 41.1996V40.0698L38.1421 39.1553V40.285ZM38.0614 40.3119L39.7561 41.2803V39.9891L38.0614 39.0208V40.3119Z" fill="#5D82CA"/>
<path fill-rule="evenodd" clip-rule="evenodd" d="M36.3649 39.3429L38.0596 40.3113V39.047L36.3649 38.0518V39.3429Z" fill="#7DA9FF"/>
<path fill-rule="evenodd" clip-rule="evenodd" d="M36.4456 39.316L38.0327 40.2306V39.1008L36.4456 38.1863V39.316ZM36.3649 39.3429L38.0596 40.3113V39.0201L36.3649 38.0518V39.3429Z" fill="#5D82CA"/>
<path fill-rule="evenodd" clip-rule="evenodd" d="M34.6727 38.3473L36.3674 39.3426V38.0514L34.6727 37.083V38.3473Z" fill="#7DA9FF"/>
<path fill-rule="evenodd" clip-rule="evenodd" d="M34.7265 38.3209L36.3136 39.2355V38.1057L34.7265 37.1911V38.3209ZM34.6727 38.3478L36.3674 39.3162V38.025L34.6727 37.0566V38.3478Z" fill="#5D82CA"/>
<path fill-rule="evenodd" clip-rule="evenodd" d="M32.976 37.3803L34.6706 38.3487V37.0844L32.976 36.0891V37.3803Z" fill="#7DA9FF"/>
<path fill-rule="evenodd" clip-rule="evenodd" d="M33.0298 37.3534L34.6168 38.268V37.1382L33.0298 36.2236V37.3534ZM32.976 37.3803L34.6706 38.3487V37.0575L32.976 36.0891V37.3803Z" fill="#5D82CA"/>
<path fill-rule="evenodd" clip-rule="evenodd" d="M31.2838 36.4113L32.9785 37.3797V36.0885L31.2838 35.1201V36.4113Z" fill="#7DA9FF"/>
<path fill-rule="evenodd" clip-rule="evenodd" d="M31.3376 36.3575L32.9247 37.2721V36.1423L31.3376 35.2277V36.3575ZM31.2838 36.4113L32.9785 37.3797V36.0885L31.2838 35.1201V36.4113Z" fill="#5D82CA"/>
<path fill-rule="evenodd" clip-rule="evenodd" d="M29.5873 35.4157L31.282 36.4109V35.1198L29.5873 34.1514V35.4157Z" fill="#7DA9FF"/>
<path fill-rule="evenodd" clip-rule="evenodd" d="M29.6411 35.3893L31.2282 36.3039V35.1741L29.6411 34.2595V35.3893ZM29.5873 35.4162L31.282 36.3846V35.0934L29.5873 34.125V35.4162Z" fill="#5D82CA"/>
<path fill-rule="evenodd" clip-rule="evenodd" d="M29.3972 35.5217L29.5855 35.4141L43.143 43.2419V43.484L29.3972 35.5217Z" fill="#5983D6"/>
<path fill-rule="evenodd" clip-rule="evenodd" d="M41.4503 45.0975L43.145 46.0928V44.8016L41.4503 43.8333V45.0975Z" fill="#7DA9FF"/>
<path fill-rule="evenodd" clip-rule="evenodd" d="M41.531 45.0712L43.1181 45.9858V44.856L41.531 43.9414V45.0712ZM41.4503 45.0981L43.145 46.0665V44.7753L41.4503 43.8069V45.0981Z" fill="#5D82CA"/>
<path fill-rule="evenodd" clip-rule="evenodd" d="M39.7535 44.1291L41.4482 45.0975V43.8332L39.7535 42.8379V44.1291Z" fill="#7DA9FF"/>
<path fill-rule="evenodd" clip-rule="evenodd" d="M39.8342 44.1022L41.4213 45.0168V43.887L39.8342 42.9724V44.1022ZM39.7535 44.1291L41.4482 45.0975V43.8063L39.7535 42.8379V44.1291Z" fill="#5D82CA"/>
<path fill-rule="evenodd" clip-rule="evenodd" d="M38.0614 43.1625L39.7561 44.1309V42.8397L38.0614 41.8713V43.1625Z" fill="#7DA9FF"/>
<path fill-rule="evenodd" clip-rule="evenodd" d="M38.1421 43.1087L39.7292 44.0233V42.8935L38.1421 41.9789V43.1087ZM38.0614 43.1625L39.7561 44.1309V42.8397L38.0614 41.8713V43.1625Z" fill="#5D82CA"/>
<path fill-rule="evenodd" clip-rule="evenodd" d="M36.3649 42.1659L38.0596 43.1612V41.87L36.3649 40.9016V42.1659Z" fill="#7DA9FF"/>
<path fill-rule="evenodd" clip-rule="evenodd" d="M36.4456 42.1395L38.0327 43.0541V41.9243L36.4456 41.0097V42.1395ZM36.3649 42.1664L38.0596 43.1348V41.8436L36.3649 40.8752V42.1664Z" fill="#5D82CA"/>
<path fill-rule="evenodd" clip-rule="evenodd" d="M34.6727 41.1974L36.3674 42.1658V40.9015L34.6727 39.9062V41.1974Z" fill="#7DA9FF"/>
<path fill-rule="evenodd" clip-rule="evenodd" d="M34.7265 41.1705L36.3136 42.0851V40.9553L34.7265 40.0407V41.1705ZM34.6727 41.1974L36.3674 42.1658V40.8746L34.6727 39.9062V41.1974Z" fill="#5D82CA"/>
<path fill-rule="evenodd" clip-rule="evenodd" d="M32.976 40.2309L34.6706 41.1993V39.9081L32.976 38.9397V40.2309Z" fill="#7DA9FF"/>
<path fill-rule="evenodd" clip-rule="evenodd" d="M33.0298 40.1771L34.6168 41.0917V39.9619L33.0298 39.0473V40.1771ZM32.976 40.2309L34.6706 41.1993V39.9081L32.976 38.9397V40.2309Z" fill="#5D82CA"/>
<path fill-rule="evenodd" clip-rule="evenodd" d="M31.2838 39.234L32.9785 40.2293V38.9381L31.2838 37.9697V39.234Z" fill="#7DA9FF"/>
<path fill-rule="evenodd" clip-rule="evenodd" d="M31.3376 39.2079L32.9247 40.1225V38.9927L31.3376 38.0781V39.2079ZM31.2838 39.2348L32.9785 40.2032V38.912L31.2838 37.9436V39.2348Z" fill="#5D82CA"/>
<path fill-rule="evenodd" clip-rule="evenodd" d="M29.5873 38.2658L31.282 39.2342V37.9699L29.5873 36.9746V38.2658Z" fill="#7DA9FF"/>
<path fill-rule="evenodd" clip-rule="evenodd" d="M29.6411 38.212L31.2282 39.1266V37.9968L29.6411 37.0822V38.212ZM29.5873 38.2658L31.282 39.2342V37.943L29.5873 36.9746V38.2658Z" fill="#5D82CA"/>
<path fill-rule="evenodd" clip-rule="evenodd" d="M29.3972 38.3752L29.5855 38.2676L43.143 46.0954V46.3106L29.3972 38.3752Z" fill="#5983D6"/>
<path fill-rule="evenodd" clip-rule="evenodd" d="M29.3972 41.1984L29.5855 41.0908L43.143 48.9187V49.1608L29.3972 41.1984Z" fill="#5983D6"/>
<path fill-rule="evenodd" clip-rule="evenodd" d="M41.4503 47.9489L43.145 48.9173V47.653L41.4503 46.6577V47.9489Z" fill="#7DA9FF"/>
<path fill-rule="evenodd" clip-rule="evenodd" d="M41.531 47.922L43.1181 48.8366V47.7068L41.531 46.7922V47.922ZM41.4503 47.9489L43.145 48.9173V47.6261L41.4503 46.6577V47.9489Z" fill="#5D82CA"/>
<path fill-rule="evenodd" clip-rule="evenodd" d="M39.7535 46.9823L41.4482 47.9507V46.6596L39.7535 45.6912V46.9823Z" fill="#7DA9FF"/>
<path fill-rule="evenodd" clip-rule="evenodd" d="M39.8342 46.9286L41.4213 47.8431V46.7134L39.8342 45.7988V46.9286ZM39.7535 46.9823L41.4482 47.9507V46.6596L39.7535 45.6912V46.9823Z" fill="#5D82CA"/>
<path fill-rule="evenodd" clip-rule="evenodd" d="M38.0614 45.9857L39.7561 46.981V45.6898L38.0614 44.7214V45.9857Z" fill="#7DA9FF"/>
<path fill-rule="evenodd" clip-rule="evenodd" d="M38.1421 45.9594L39.7292 46.8739V45.7442L38.1421 44.8296V45.9594ZM38.0614 45.9863L39.7561 46.9546V45.6635L38.0614 44.6951V45.9863Z" fill="#5D82CA"/>
<path fill-rule="evenodd" clip-rule="evenodd" d="M36.3649 45.0173L38.0596 45.9857V44.7214L36.3649 43.7261V45.0173Z" fill="#7DA9FF"/>
<path fill-rule="evenodd" clip-rule="evenodd" d="M36.4456 44.9635L38.0327 45.8781V44.7483L36.4456 43.8337V44.9635ZM36.3649 45.0173L38.0596 45.9857V44.6945L36.3649 43.7261V45.0173Z" fill="#5D82CA"/>
<path fill-rule="evenodd" clip-rule="evenodd" d="M34.6727 44.0206L36.3674 45.0159V43.7247L34.6727 42.7563V44.0206Z" fill="#7DA9FF"/>
<path fill-rule="evenodd" clip-rule="evenodd" d="M34.7265 43.9943L36.3136 44.9089V43.7791L34.7265 42.8645V43.9943ZM34.6727 44.0212L36.3674 44.9896V43.6984L34.6727 42.73V44.0212Z" fill="#5D82CA"/>
<path fill-rule="evenodd" clip-rule="evenodd" d="M32.976 43.0546L34.6706 44.023V42.7587L32.976 41.7634V43.0546Z" fill="#7DA9FF"/>
<path fill-rule="evenodd" clip-rule="evenodd" d="M33.0298 43.0277L34.6168 43.9423V42.8125L33.0298 41.8979V43.0277ZM32.976 43.0546L34.6706 44.023V42.7318L32.976 41.7634V43.0546Z" fill="#5D82CA"/>
<path fill-rule="evenodd" clip-rule="evenodd" d="M31.2838 42.0856L32.9785 43.054V41.7628L31.2838 40.7944V42.0856Z" fill="#7DA9FF"/>
<path fill-rule="evenodd" clip-rule="evenodd" d="M31.3376 42.0318L32.9247 42.9464V41.8166L31.3376 40.902V42.0318ZM31.2838 42.0856L32.9785 43.054V41.7628L31.2838 40.7944V42.0856Z" fill="#5D82CA"/>
<path fill-rule="evenodd" clip-rule="evenodd" d="M29.5873 41.089L31.282 42.0843V40.7931L29.5873 39.8247V41.089Z" fill="#7DA9FF"/>
<path fill-rule="evenodd" clip-rule="evenodd" d="M29.6411 41.0626L31.2282 41.9772V40.8474L29.6411 39.9328V41.0626ZM29.5873 41.0895L31.282 42.0579V40.7667L29.5873 39.7983V41.0895Z" fill="#5D82CA"/>
<path fill-rule="evenodd" clip-rule="evenodd" d="M32.8385 46.0409V45.7988L43.1411 51.7706V51.9858L32.8385 46.0409Z" fill="#5983D6"/>
<path fill-rule="evenodd" clip-rule="evenodd" d="M31.8718 51.8247L32.356 52.0937L32.5981 50.5066L32.356 49.1616L31.8718 48.8926V51.8247Z" fill="#152440"/>
<path fill-rule="evenodd" clip-rule="evenodd" d="M32.8393 51.8247L32.3551 52.0937V49.1616L32.8393 48.8926V51.8247Z" fill="#5375B8"/>
<path fill-rule="evenodd" clip-rule="evenodd" d="M25.9576 52.6298L27.6792 51.6345V50.3164L25.9576 51.3117V52.6298Z" fill="#5375B8"/>
<path fill-rule="evenodd" clip-rule="evenodd" d="M27.6809 51.6366L29.4025 50.6413V49.3232L27.6809 50.3185V51.6366Z" fill="#5375B8"/>
<path fill-rule="evenodd" clip-rule="evenodd" d="M29.3989 50.641L31.1205 49.6457V48.3276L29.3989 49.3229V50.641Z" fill="#5375B8"/>
<path fill-rule="evenodd" clip-rule="evenodd" d="M31.1222 49.6449L32.8438 48.6765V47.3584L31.1222 48.3268V49.6449Z" fill="#5375B8"/>
<path d="M27.6254 50.424V51.6076L26.0114 52.5491V51.3655L27.6254 50.424ZM27.6792 50.3164L25.9576 51.3117V52.6298L27.6792 51.6345V50.3164Z" fill="#2D4C8A"/>
<path d="M29.3487 49.4308V50.6144L27.7347 51.5559V50.3723L29.3487 49.4308ZM29.4025 49.3232L27.6809 50.3185V51.6366L29.4025 50.6413V49.3232Z" fill="#2D4C8A"/>
<path d="M31.0667 48.4352V49.6188L29.4527 50.5603V49.3767L31.0667 48.4352ZM31.1205 48.3276L29.3989 49.3229V50.641L31.1205 49.6457V48.3276Z" fill="#2D4C8A"/>
<path d="M32.79 47.4391V48.6227L31.176 49.5642V48.3806L32.79 47.4391ZM32.8438 47.3584L31.1222 48.3537V49.6718L32.8438 48.6765V47.3584Z" fill="#2D4C8A"/>
<path fill-rule="evenodd" clip-rule="evenodd" d="M19.2836 46.174L19.4719 46.0664L25.9547 49.8055V50.0207L19.2836 46.174Z" fill="#5983D6"/>
<path fill-rule="evenodd" clip-rule="evenodd" d="M19.2836 49.0002L19.4719 48.8926L25.9547 52.6316V52.8737L19.2836 49.0002Z" fill="#5983D6"/>
<path fill-rule="evenodd" clip-rule="evenodd" d="M25.9576 49.8061L27.6792 48.8108V47.4927L25.9576 48.488V49.8061Z" fill="#2D4C8A"/>
<path fill-rule="evenodd" clip-rule="evenodd" d="M26.0103 49.6985L27.6242 48.7839V47.6003L26.0103 48.5149V49.6985Z" fill="#5375B8"/>
<path fill-rule="evenodd" clip-rule="evenodd" d="M27.6796 48.8109L29.4012 47.8156V46.4976L27.6796 47.4928V48.8109Z" fill="#2D4C8A"/>
<path fill-rule="evenodd" clip-rule="evenodd" d="M27.7322 48.7034L29.3462 47.7888V46.6052L27.7322 47.5198V48.7034Z" fill="#5375B8"/>
<path fill-rule="evenodd" clip-rule="evenodd" d="M29.3988 47.8148L31.1204 46.8196V45.5015L29.3988 46.4968V47.8148Z" fill="#2D4C8A"/>
<path fill-rule="evenodd" clip-rule="evenodd" d="M29.4513 47.7073L31.0653 46.7927V45.6091L29.4513 46.5237V47.7073Z" fill="#5375B8"/>
<path fill-rule="evenodd" clip-rule="evenodd" d="M31.121 46.8197L32.8426 45.8244V44.5063L31.121 45.5016V46.8197Z" fill="#2D4C8A"/>
<path fill-rule="evenodd" clip-rule="evenodd" d="M31.1732 46.7122L32.7872 45.7976V44.614L31.1732 45.5286V46.7122Z" fill="#5375B8"/>
<path fill-rule="evenodd" clip-rule="evenodd" d="M32.8431 46.0399V45.8247L25.9568 49.8059V50.0211L32.8431 46.0399Z" fill="#3862B4"/>
<path fill-rule="evenodd" clip-rule="evenodd" d="M32.8423 48.8929V48.6777L25.9559 52.632V52.8741L32.8423 48.8929Z" fill="#3862B4"/>
<path fill-rule="evenodd" clip-rule="evenodd" d="M44.8106 36.5995L43.1428 37.5679V36.3036L44.8106 35.3352V36.5995Z" fill="#5375B8"/>
<path fill-rule="evenodd" clip-rule="evenodd" d="M44.8106 36.6L43.1428 37.5684V36.2772L44.8106 35.3088V36.6ZM43.2235 37.4608L44.7837 36.5731V35.4433L43.2235 36.331V37.4608Z" fill="#2D4C8A"/>
<path fill-rule="evenodd" clip-rule="evenodd" d="M46.5023 35.6572L44.8076 36.5986V35.3344L46.5023 34.366V35.6572Z" fill="#5375B8"/>
<path fill-rule="evenodd" clip-rule="evenodd" d="M46.5018 35.6572L44.834 36.6255V35.3344L46.5018 34.366V35.6572ZM44.8878 36.5179L46.448 35.6303V34.5005L44.8878 35.3882V36.5179Z" fill="#2D4C8A"/>
<path fill-rule="evenodd" clip-rule="evenodd" d="M48.1722 34.6906L46.5044 35.659V34.3678L48.1722 33.3994V34.6906Z" fill="#5375B8"/>
<path fill-rule="evenodd" clip-rule="evenodd" d="M48.1722 34.6906L46.5044 35.659V34.3678L48.1722 33.3994V34.6906ZM46.5582 35.5514L48.1184 34.6637V33.5339L46.5582 34.4216V35.5514Z" fill="#2D4C8A"/>
<path fill-rule="evenodd" clip-rule="evenodd" d="M49.8372 33.7216L48.1694 34.69V33.3988L49.8372 32.4304V33.7216Z" fill="#5375B8"/>
<path fill-rule="evenodd" clip-rule="evenodd" d="M49.8372 33.7216L48.1694 34.69V33.3988L49.8372 32.4304V33.7216ZM48.2232 34.5824L49.7834 33.6947V32.5649L48.2232 33.4526V34.5824Z" fill="#2D4C8A"/>
<path fill-rule="evenodd" clip-rule="evenodd" d="M50.0277 33.8273L49.8394 33.7197L43.1414 37.5664V37.8085L50.0277 33.8273Z" fill="#2E4E90"/>
<path fill-rule="evenodd" clip-rule="evenodd" d="M44.8106 39.4509L43.1428 40.4192V39.1281L44.8106 38.1597V39.4509Z" fill="#5375B8"/>
<path fill-rule="evenodd" clip-rule="evenodd" d="M44.8106 39.4509L43.1428 40.4192V39.1281L44.8106 38.1597V39.4509ZM43.2235 40.3117L44.7837 39.424V38.2942L43.2235 39.1819V40.3117Z" fill="#2D4C8A"/>
<path fill-rule="evenodd" clip-rule="evenodd" d="M46.5023 38.4804L44.8076 39.4487V38.1576L46.5023 37.2161V38.4804Z" fill="#5375B8"/>
<path fill-rule="evenodd" clip-rule="evenodd" d="M46.5018 38.4809L44.834 39.4493V38.1581L46.5018 37.1897V38.4809ZM44.8878 39.3417L46.448 38.454V37.3242L44.8878 38.2119V39.3417Z" fill="#2D4C8A"/>
<path fill-rule="evenodd" clip-rule="evenodd" d="M48.1722 37.5138L46.5044 38.4822V37.2179L48.1722 36.2495V37.5138Z" fill="#5375B8"/>
<path fill-rule="evenodd" clip-rule="evenodd" d="M48.1722 37.5143L46.5044 38.4827V37.1915L48.1722 36.2231V37.5143ZM46.5582 38.3751L48.1184 37.4874V36.3576L46.5582 37.2453V38.3751Z" fill="#2D4C8A"/>
<path fill-rule="evenodd" clip-rule="evenodd" d="M49.8372 36.5448L48.1694 37.5132V36.2489L49.8372 35.2805V36.5448Z" fill="#5375B8"/>
<path fill-rule="evenodd" clip-rule="evenodd" d="M49.8372 36.5453L48.1694 37.5137V36.2225L49.8372 35.2542V36.5453ZM48.2232 37.4061L49.7834 36.5184V35.3886L48.2232 36.2763V37.4061Z" fill="#2D4C8A"/>
<path fill-rule="evenodd" clip-rule="evenodd" d="M50.0277 36.6784L49.8394 36.5439L43.1414 40.4175V40.6327L50.0277 36.6784Z" fill="#2E4E90"/>
<path fill-rule="evenodd" clip-rule="evenodd" d="M44.8106 42.2741L43.1428 43.2424V41.9782L44.8106 41.0098V42.2741Z" fill="#5375B8"/>
<path fill-rule="evenodd" clip-rule="evenodd" d="M44.8109 42.2746L43.1431 43.243V41.9518L44.8109 40.9834V42.2746ZM43.2238 43.1354L44.784 42.2477V41.1179L43.2238 42.0056V43.1354Z" fill="#2D4C8A"/>
<path fill-rule="evenodd" clip-rule="evenodd" d="M46.5025 41.3315L44.8079 42.273V41.0087L46.5025 40.0403V41.3315Z" fill="#5375B8"/>
<path fill-rule="evenodd" clip-rule="evenodd" d="M46.5018 41.3317L44.834 42.3001V41.0089L46.5018 40.0405V41.3317ZM44.8878 42.1925L46.448 41.3048V40.175L44.8878 41.0627V42.1925Z" fill="#2D4C8A"/>
<path fill-rule="evenodd" clip-rule="evenodd" d="M48.1722 40.3652L46.5044 41.3336V40.0424L48.1722 39.074V40.3652Z" fill="#5375B8"/>
<path fill-rule="evenodd" clip-rule="evenodd" d="M48.1722 40.3652L46.5044 41.3336V40.0424L48.1722 39.074V40.3652ZM46.5582 41.226L48.1184 40.3383V39.2085L46.5582 40.0962V41.226Z" fill="#2D4C8A"/>
<path fill-rule="evenodd" clip-rule="evenodd" d="M49.8372 39.3952L48.1694 40.3636V39.0724L49.8372 38.104V39.3952Z" fill="#5375B8"/>
<path fill-rule="evenodd" clip-rule="evenodd" d="M49.8372 39.3952L48.1694 40.3636V39.0724L49.8372 38.104V39.3952ZM48.2232 40.256L49.7834 39.3683V38.2385L48.2232 39.1262V40.256Z" fill="#2D4C8A"/>
<path fill-rule="evenodd" clip-rule="evenodd" d="M50.0277 39.5041L49.8394 39.3965L43.1414 43.2432V43.4852L50.0277 39.5041Z" fill="#2E4E90"/>
<path fill-rule="evenodd" clip-rule="evenodd" d="M44.8109 45.1276L43.1431 46.096V44.8048L44.8109 43.8364V45.1276Z" fill="#5375B8"/>
<path fill-rule="evenodd" clip-rule="evenodd" d="M44.8109 45.1276L43.1431 46.096V44.8048L44.8109 43.8364V45.1276ZM43.2238 45.9884L44.784 45.1007V43.9709L43.2238 44.8586V45.9884Z" fill="#2D4C8A"/>
<path fill-rule="evenodd" clip-rule="evenodd" d="M46.5023 44.1571L44.8076 45.1255V43.8343L46.5023 42.8928V44.1571Z" fill="#5375B8"/>
<path fill-rule="evenodd" clip-rule="evenodd" d="M46.5018 44.1576L44.834 45.126V43.8348L46.5018 42.8665V44.1576ZM44.8878 45.0184L46.448 44.1307V43.001L44.8878 43.8886V45.0184Z" fill="#2D4C8A"/>
<path fill-rule="evenodd" clip-rule="evenodd" d="M48.1722 43.1906L46.5044 44.159V42.8947L48.1722 41.9263V43.1906Z" fill="#5375B8"/>
<path fill-rule="evenodd" clip-rule="evenodd" d="M48.1722 43.1911L46.5044 44.1595V42.8683L48.1722 41.8999V43.1911ZM46.5582 44.0519L48.1184 43.1642V42.0344L46.5582 42.9221V44.0519Z" fill="#2D4C8A"/>
<path fill-rule="evenodd" clip-rule="evenodd" d="M49.8372 42.2216L48.1694 43.19V41.9257L49.8372 40.9573V42.2216Z" fill="#5375B8"/>
<path fill-rule="evenodd" clip-rule="evenodd" d="M49.8372 42.2221L48.1694 43.1905V41.8993L49.8372 40.9309V42.2221ZM48.2232 43.0829L49.7834 42.1952V41.0654L48.2232 41.9531V43.0829Z" fill="#2D4C8A"/>
<path fill-rule="evenodd" clip-rule="evenodd" d="M50.0277 42.3552L49.8394 42.2207L43.1414 46.0943V46.3095L50.0277 42.3552Z" fill="#2E4E90"/>
<path fill-rule="evenodd" clip-rule="evenodd" d="M44.8106 47.9508L43.1428 48.9192V47.6549L44.8106 46.6865V47.9508Z" fill="#5375B8"/>
<path fill-rule="evenodd" clip-rule="evenodd" d="M44.8106 47.9513L43.1428 48.9197V47.6285L44.8106 46.6602V47.9513ZM43.2235 48.8121L44.7837 47.9244V46.7947L43.2235 47.6823V48.8121Z" fill="#2D4C8A"/>
<path fill-rule="evenodd" clip-rule="evenodd" d="M46.5023 47.0085L44.8076 47.95V46.6857L46.5023 45.7173V47.0085Z" fill="#5375B8"/>
<path fill-rule="evenodd" clip-rule="evenodd" d="M46.5018 47.0085L44.834 47.9769V46.6857L46.5018 45.7173V47.0085ZM44.8878 47.8693L46.448 46.9816V45.8518L44.8878 46.7395V47.8693Z" fill="#2D4C8A"/>
<path fill-rule="evenodd" clip-rule="evenodd" d="M48.1722 46.0419L46.5044 47.0103V45.7191L48.1722 44.7507V46.0419Z" fill="#5375B8"/>
<path fill-rule="evenodd" clip-rule="evenodd" d="M48.1722 46.0419L46.5044 47.0103V45.7191L48.1722 44.7507V46.0419ZM46.5582 46.9027L48.1184 46.015V44.8852L46.5582 45.7729V46.9027Z" fill="#2D4C8A"/>
<path fill-rule="evenodd" clip-rule="evenodd" d="M49.8372 45.0719L48.1694 46.0403V44.7492L49.8372 43.7808V45.0719Z" fill="#5375B8"/>
<path fill-rule="evenodd" clip-rule="evenodd" d="M49.8372 45.0719L48.1694 46.0403V44.7492L49.8372 43.7808V45.0719ZM48.2232 45.9327L49.7834 45.0451V43.9153L48.2232 44.803V45.9327Z" fill="#2D4C8A"/>
<path fill-rule="evenodd" clip-rule="evenodd" d="M50.0277 45.1789L49.8394 45.0713L43.1414 48.918V49.1601L50.0277 45.1789Z" fill="#3862B4"/>
<path fill-rule="evenodd" clip-rule="evenodd" d="M44.8109 50.8014L43.1431 51.7698V50.4786L44.8109 49.5103V50.8014Z" fill="#5375B8"/>
<path fill-rule="evenodd" clip-rule="evenodd" d="M44.8109 50.8014L43.1431 51.7698V50.4786L44.8109 49.5103V50.8014ZM43.2238 51.6622L44.784 50.7745V49.6448L43.2238 50.5324V51.6622Z" fill="#2D4C8A"/>
<path fill-rule="evenodd" clip-rule="evenodd" d="M46.5025 49.8317L44.8079 50.8001V49.5089L46.5025 48.5674V49.8317Z" fill="#5375B8"/>
<path fill-rule="evenodd" clip-rule="evenodd" d="M46.5018 49.8322L44.834 50.8006V49.5094L46.5018 48.541V49.8322ZM44.8878 50.693L46.448 49.8053V48.6755L44.8878 49.5632V50.693Z" fill="#2D4C8A"/>
<path fill-rule="evenodd" clip-rule="evenodd" d="M48.1722 48.8649L46.5044 49.8333V48.569L48.1722 47.6006V48.8649Z" fill="#5375B8"/>
<path fill-rule="evenodd" clip-rule="evenodd" d="M48.1722 48.8654L46.5044 49.8338V48.5426L48.1722 47.5742V48.8654ZM46.5582 49.7262L48.1184 48.8385V47.7087L46.5582 48.5964V49.7262Z" fill="#2D4C8A"/>
<path fill-rule="evenodd" clip-rule="evenodd" d="M49.8372 47.8951L48.1694 48.8635V47.5993L49.8372 46.6309V47.8951Z" fill="#5375B8"/>
<path fill-rule="evenodd" clip-rule="evenodd" d="M49.8372 47.8957L48.1694 48.8641V47.5729L49.8372 46.6045V47.8957ZM48.2232 48.7565L49.7834 47.8688V46.739L48.2232 47.6267V48.7565Z" fill="#2D4C8A"/>
<path fill-rule="evenodd" clip-rule="evenodd" d="M50.0277 48.032L49.8394 47.8975L43.1414 51.771V51.9862L50.0277 48.032Z" fill="#3862B4"/>
<path fill-rule="evenodd" clip-rule="evenodd" d="M44.8109 53.6278L43.1431 54.5962V53.3319L44.8109 52.3635V53.6278Z" fill="#5375B8"/>
<path fill-rule="evenodd" clip-rule="evenodd" d="M44.8109 53.6281L43.1431 54.5965V53.3053L44.8109 52.3369V53.6281ZM43.2238 54.4889L44.784 53.6012V52.4714L43.2238 53.3591V54.4889Z" fill="#2D4C8A"/>
<path fill-rule="evenodd" clip-rule="evenodd" d="M46.5023 52.6855L44.8076 53.627V52.3627L46.5023 51.3943V52.6855Z" fill="#5375B8"/>
<path fill-rule="evenodd" clip-rule="evenodd" d="M46.5018 52.6855L44.834 53.6539V52.3627L46.5018 51.3943V52.6855ZM44.8878 53.5463L46.448 52.6586V51.5288L44.8878 52.4165V53.5463Z" fill="#2D4C8A"/>
<path fill-rule="evenodd" clip-rule="evenodd" d="M48.1722 51.7189L46.5044 52.6873V51.3961L48.1722 50.4277V51.7189Z" fill="#5375B8"/>
<path fill-rule="evenodd" clip-rule="evenodd" d="M48.1722 51.7189L46.5044 52.6873V51.3961L48.1722 50.4277V51.7189ZM46.5582 52.5797L48.1184 51.692V50.5622L46.5582 51.4499V52.5797Z" fill="#2D4C8A"/>
<path fill-rule="evenodd" clip-rule="evenodd" d="M49.8372 50.749L48.1694 51.7173V50.4262L49.8372 49.4578V50.749Z" fill="#5375B8"/>
<path fill-rule="evenodd" clip-rule="evenodd" d="M49.8372 50.749L48.1694 51.7173V50.4262L49.8372 49.4578V50.749ZM48.2232 51.6097L49.7834 50.7221V49.5923L48.2232 50.48V51.6097Z" fill="#2D4C8A"/>
<path fill-rule="evenodd" clip-rule="evenodd" d="M50.0277 50.8556L49.8394 50.748L43.1414 54.5947V54.8368L50.0277 50.8556Z" fill="#3862B4"/>
<g opacity="0.5" style="mix-blend-mode:multiply">
<path fill-rule="evenodd" clip-rule="evenodd" d="M40.9421 31.3557H41.2649L42.3678 30.7101L40.4579 29.5803L40.9421 31.3557Z" fill="#708DD0"/>
</g>
<path fill-rule="evenodd" clip-rule="evenodd" d="M39.3807 30.1183L40.5374 29.4727L42.0976 30.3603L40.9409 31.0328L39.3807 30.1183Z" fill="#E5E8FF"/>
<path fill-rule="evenodd" clip-rule="evenodd" d="M39.9482 30.1454L40.54 29.7957L41.5084 30.3605L40.9166 30.6833L39.9482 30.1454Z" fill="white"/>
<path fill-rule="evenodd" clip-rule="evenodd" d="M40.5366 30.0378V29.7957L41.505 30.3605L41.2898 30.4681L40.5366 30.0378Z" fill="#8BACF6"/>
<path fill-rule="evenodd" clip-rule="evenodd" d="M40.54 30.0378V29.7957L39.9482 30.1454L40.1634 30.253L40.54 30.0378Z" fill="#708DD0"/>
<path fill-rule="evenodd" clip-rule="evenodd" d="M39.3807 30.1189V30.4686L40.9409 31.3563V31.0335L39.3807 30.1189Z" fill="#8BACF6"/>
<path fill-rule="evenodd" clip-rule="evenodd" d="M42.0979 30.3606V30.6834L40.9412 31.3559V31.0331L42.0979 30.3606Z" fill="#708DD0"/>
<g opacity="0.3" style="mix-blend-mode:multiply">
<path fill-rule="evenodd" clip-rule="evenodd" d="M40.6425 30.1185L40.5349 29.7957V30.0378L40.1583 30.253L40.2659 30.3336L40.6425 30.1185Z" fill="#8BACF6"/>
</g>
<g opacity="0.5" style="mix-blend-mode:multiply">
<path fill-rule="evenodd" clip-rule="evenodd" d="M43.0642 32.5637H43.3869L44.4898 31.945L42.58 30.7883L43.0642 32.5637Z" fill="#708DD0"/>
</g>
<path fill-rule="evenodd" clip-rule="evenodd" d="M41.5028 31.3532L42.6326 30.6807L44.1928 31.5953L43.063 32.2409L41.5028 31.3532Z" fill="#E5E8FF"/>
<path fill-rule="evenodd" clip-rule="evenodd" d="M42.0387 31.3534L42.6574 31.0037L43.5989 31.5686L43.0071 31.9183L42.0387 31.3534Z" fill="white"/>
<path fill-rule="evenodd" clip-rule="evenodd" d="M42.6587 31.2458V31.0037L43.6002 31.5686L43.385 31.7031L42.6587 31.2458Z" fill="#8BACF6"/>
<path fill-rule="evenodd" clip-rule="evenodd" d="M42.6574 31.2458V31.0037L42.0387 31.3534L42.2539 31.4879L42.6574 31.2458Z" fill="#708DD0"/>
<path fill-rule="evenodd" clip-rule="evenodd" d="M41.5028 31.353V31.6758L43.063 32.5635V32.2407L41.5028 31.353Z" fill="#8BACF6"/>
<path fill-rule="evenodd" clip-rule="evenodd" d="M44.193 31.5947V31.9175L43.0632 32.5631V32.2403L44.193 31.5947Z" fill="#708DD0"/>
<g opacity="0.3" style="mix-blend-mode:multiply">
<path fill-rule="evenodd" clip-rule="evenodd" d="M42.7652 31.3265L42.6576 31.0037V31.2458L42.2542 31.4879L42.3886 31.5417L42.7652 31.3265Z" fill="#8BACF6"/>
</g>
<g opacity="0.5" style="mix-blend-mode:multiply">
<path fill-rule="evenodd" clip-rule="evenodd" d="M42.607 30.386H42.9298L44.0596 29.7404L42.1228 28.6106L42.607 30.386Z" fill="#708DD0"/>
</g>
<path fill-rule="evenodd" clip-rule="evenodd" d="M41.0458 29.1754L42.2025 28.5029L43.7627 29.3906L42.606 30.0631L41.0458 29.1754Z" fill="#E5E8FF"/>
<path fill-rule="evenodd" clip-rule="evenodd" d="M41.6132 29.1756L42.205 28.8259L43.1733 29.3908L42.5816 29.7405L41.6132 29.1756Z" fill="white"/>
<path fill-rule="evenodd" clip-rule="evenodd" d="M42.2017 29.068V28.8259L43.1701 29.3908L42.9549 29.4984L42.2017 29.068Z" fill="#8BACF6"/>
<path fill-rule="evenodd" clip-rule="evenodd" d="M42.205 29.068V28.8259L41.6132 29.1756L41.8284 29.2832L42.205 29.068Z" fill="#708DD0"/>
<path fill-rule="evenodd" clip-rule="evenodd" d="M41.0458 29.1753V29.4981L42.606 30.3858V30.063L41.0458 29.1753Z" fill="#8BACF6"/>
<path fill-rule="evenodd" clip-rule="evenodd" d="M43.7629 29.3906V29.7403L42.6062 30.3859V30.0631L43.7629 29.3906Z" fill="#708DD0"/>
<g opacity="0.3" style="mix-blend-mode:multiply">
<path fill-rule="evenodd" clip-rule="evenodd" d="M42.3076 29.1487L42.2 28.8259V29.068L41.8234 29.2832L41.931 29.3639L42.3076 29.1487Z" fill="#8BACF6"/>
</g>
<g opacity="0.5" style="mix-blend-mode:multiply">
<path fill-rule="evenodd" clip-rule="evenodd" d="M44.7357 31.6238H45.0585L46.1613 30.9782L44.2515 29.8215L44.7357 31.6238Z" fill="#708DD0"/>
</g>
<path fill-rule="evenodd" clip-rule="evenodd" d="M43.1744 30.3864L44.3042 29.7139L45.8913 30.6285L44.7346 31.301L43.1744 30.3864Z" fill="#E5E8FF"/>
<path fill-rule="evenodd" clip-rule="evenodd" d="M43.7103 30.3866L44.329 30.0369L45.2974 30.6018L44.6787 30.9515L43.7103 30.3866Z" fill="white"/>
<path fill-rule="evenodd" clip-rule="evenodd" d="M44.3303 30.3059V30.0369L45.2987 30.6018L45.0835 30.7363L44.3303 30.3059Z" fill="#8BACF6"/>
<path fill-rule="evenodd" clip-rule="evenodd" d="M44.329 30.3059V30.0369L43.7103 30.3866L43.9255 30.5211L44.329 30.3059Z" fill="#708DD0"/>
<path fill-rule="evenodd" clip-rule="evenodd" d="M43.1744 30.3865V30.7093L44.7346 31.6239V31.3011L43.1744 30.3865Z" fill="#8BACF6"/>
<path fill-rule="evenodd" clip-rule="evenodd" d="M45.8916 30.6279V30.9507L44.7349 31.6232V31.3004L45.8916 30.6279Z" fill="#708DD0"/>
<g opacity="0.3" style="mix-blend-mode:multiply">
<path fill-rule="evenodd" clip-rule="evenodd" d="M44.4369 30.3597L44.3293 30.0369V30.3059L43.9258 30.5211L44.0603 30.5749L44.4369 30.3597Z" fill="#8BACF6"/>
</g>
<g opacity="0.5" style="mix-blend-mode:multiply">
<path fill-rule="evenodd" clip-rule="evenodd" d="M26.3013 46.9029H26.5703L27.5118 46.3649L25.8978 45.3965L26.3013 46.9029Z" fill="#708DD0"/>
</g>
<path fill-rule="evenodd" clip-rule="evenodd" d="M24.9835 45.8798L25.9519 45.3149L27.27 46.0681L26.3016 46.633L24.9835 45.8798Z" fill="#E5E8FF"/>
<path fill-rule="evenodd" clip-rule="evenodd" d="M25.4407 45.8789L25.9518 45.583L26.7588 46.0672L26.2746 46.3362L25.4407 45.8789Z" fill="white"/>
<path fill-rule="evenodd" clip-rule="evenodd" d="M25.9503 45.7982V45.583L26.7573 46.0672L26.5959 46.1479L25.9503 45.7982Z" fill="#8BACF6"/>
<path fill-rule="evenodd" clip-rule="evenodd" d="M25.9518 45.7982V45.583L25.4407 45.8789L25.629 45.9865L25.9518 45.7982Z" fill="#708DD0"/>
<path fill-rule="evenodd" clip-rule="evenodd" d="M24.9836 45.8799V46.1489L26.3017 46.9021V46.6331L24.9836 45.8799Z" fill="#8BACF6"/>
<path fill-rule="evenodd" clip-rule="evenodd" d="M27.2708 46.0691V46.3381L26.3024 46.903V46.634L27.2708 46.0691Z" fill="#708DD0"/>
<g opacity="0.3" style="mix-blend-mode:multiply">
<path fill-rule="evenodd" clip-rule="evenodd" d="M26.0603 45.852L25.9527 45.583V45.7982L25.6299 45.9865L25.7375 46.0403L26.0603 45.852Z" fill="#8BACF6"/>
</g>
<path fill-rule="evenodd" clip-rule="evenodd" d="M25.4725 55.5082L25.9567 55.8041L26.1988 54.1902L25.9567 52.8721L25.4725 52.5762V55.5082Z" fill="#2A467E"/>
<path fill-rule="evenodd" clip-rule="evenodd" d="M26.4401 55.5082L25.9559 55.8041V52.8721L26.4401 52.5762V55.5082Z" fill="#5375B8"/>
<g opacity="0.7" style="mix-blend-mode:multiply">
<path fill-rule="evenodd" clip-rule="evenodd" d="M32.8385 49.8345L34.3449 50.7222V52.6859L36.5238 53.9502L32.8385 44.1855V49.8345Z" fill="#91828C"/>
</g>
<path fill-rule="evenodd" clip-rule="evenodd" d="M24.3419 48.8667L25.9559 49.8082V48.4901L24.3419 47.5486V48.8667Z" fill="#7DA9FF"/>
<path fill-rule="evenodd" clip-rule="evenodd" d="M24.3957 48.8398L25.9021 49.7006V48.517L24.3957 47.6562V48.8398ZM24.3419 48.8667L25.9559 49.8082V48.4901L24.3419 47.5486V48.8667Z" fill="#5D82CA"/>
<path fill-rule="evenodd" clip-rule="evenodd" d="M22.7294 47.9262L24.3434 48.8677V47.5496L22.7294 46.6082V47.9262Z" fill="#7DA9FF"/>
<path fill-rule="evenodd" clip-rule="evenodd" d="M22.7832 47.8993L24.2896 48.7601V47.5765L22.7832 46.7158V47.8993ZM22.7294 47.9262L24.3434 48.8677V47.5496L22.7294 46.6082V47.9262Z" fill="#5D82CA"/>
<path fill-rule="evenodd" clip-rule="evenodd" d="M21.0852 46.9826L22.7261 47.9241V46.606L21.0852 45.6646V46.9826Z" fill="#7DA9FF"/>
<path fill-rule="evenodd" clip-rule="evenodd" d="M21.1659 46.9557L22.6723 47.8165V46.6329L21.1659 45.7721V46.9557ZM21.0852 46.9826L22.6992 47.9241V46.606L21.0852 45.6646V46.9826Z" fill="#5D82CA"/>
<path fill-rule="evenodd" clip-rule="evenodd" d="M19.4727 46.0693L21.0866 46.9839V45.6658L19.4727 44.7512V46.0693Z" fill="#7DA9FF"/>
<path fill-rule="evenodd" clip-rule="evenodd" d="M19.5265 46.0155L21.0328 46.8763V45.6927L19.5265 44.8319V46.0155ZM19.4727 46.0693L21.0866 47.0108V45.6927L19.4727 44.7512V46.0693Z" fill="#5D82CA"/>
<path fill-rule="evenodd" clip-rule="evenodd" d="M24.3419 51.6899L25.9559 52.6314V51.3133L24.3419 50.3718V51.6899Z" fill="#7DA9FF"/>
<path fill-rule="evenodd" clip-rule="evenodd" d="M24.3957 51.663L25.9021 52.5238V51.3402L24.3957 50.4794V51.663ZM24.3419 51.6899L25.9559 52.6314V51.3133L24.3419 50.3718V51.6899Z" fill="#5D82CA"/>
<path fill-rule="evenodd" clip-rule="evenodd" d="M22.7294 50.7756L24.3434 51.6902V50.3721L22.7294 49.4575V50.7756Z" fill="#7DA9FF"/>
<path fill-rule="evenodd" clip-rule="evenodd" d="M22.7832 50.7218L24.2896 51.5826V50.399L22.7832 49.5382V50.7218ZM22.7294 50.7756L24.3434 51.7171V50.399L22.7294 49.4575V50.7756Z" fill="#5D82CA"/>
<path fill-rule="evenodd" clip-rule="evenodd" d="M21.0852 49.833L22.7261 50.7745V49.4564L21.0852 48.5149V49.833Z" fill="#7DA9FF"/>
<path fill-rule="evenodd" clip-rule="evenodd" d="M21.1659 49.7792L22.6723 50.64V49.4564L21.1659 48.5956V49.7792ZM21.0852 49.833L22.6992 50.7745V49.4564L21.0852 48.5149V49.833Z" fill="#5D82CA"/>
<path fill-rule="evenodd" clip-rule="evenodd" d="M19.4727 48.8923L21.0866 49.8338V48.5157L19.4727 47.5742V48.8923Z" fill="#7DA9FF"/>
<path fill-rule="evenodd" clip-rule="evenodd" d="M19.5265 48.8654L21.0328 49.7262V48.5426L19.5265 47.6818V48.8654ZM19.4727 48.8923L21.0866 49.8338V48.5157L19.4727 47.5742V48.8923Z" fill="#5D82CA"/>
<g opacity="0.5" style="mix-blend-mode:multiply">
<path fill-rule="evenodd" clip-rule="evenodd" d="M27.8091 46.0415H28.0781L29.0196 45.5035L27.4056 44.5352L27.8091 46.0415Z" fill="#708DD0"/>
</g>
<path fill-rule="evenodd" clip-rule="evenodd" d="M26.4915 45.0185L27.4598 44.4536L28.7779 45.2068L27.8095 45.7717L26.4915 45.0185Z" fill="#E5E8FF"/>
<path fill-rule="evenodd" clip-rule="evenodd" d="M26.9486 45.0173L27.4597 44.7214L28.2667 45.1787L27.7825 45.4746L26.9486 45.0173Z" fill="white"/>
<path fill-rule="evenodd" clip-rule="evenodd" d="M27.4581 44.9366V44.7214L28.2651 45.1787L28.1037 45.2863L27.4581 44.9366Z" fill="#8BACF6"/>
<path fill-rule="evenodd" clip-rule="evenodd" d="M27.4597 44.9366V44.7214L26.9486 45.0173L27.1369 45.098L27.4597 44.9366Z" fill="#708DD0"/>
<path fill-rule="evenodd" clip-rule="evenodd" d="M26.4915 45.0183V45.2873L27.8095 46.0405V45.7715L26.4915 45.0183Z" fill="#8BACF6"/>
<path fill-rule="evenodd" clip-rule="evenodd" d="M28.7786 45.2075V45.4765L27.8102 46.0414V45.7724L28.7786 45.2075Z" fill="#708DD0"/>
<g opacity="0.3" style="mix-blend-mode:multiply">
<path fill-rule="evenodd" clip-rule="evenodd" d="M27.5681 44.9904L27.4605 44.7214V44.9366L27.1377 45.098L27.2453 45.1787L27.5681 44.9904Z" fill="#8BACF6"/>
</g>
<g opacity="0.5" style="mix-blend-mode:multiply">
<path fill-rule="evenodd" clip-rule="evenodd" d="M29.3171 45.1797H29.5861L30.5276 44.6148L28.9136 43.6733L29.3171 45.1797Z" fill="#708DD0"/>
</g>
<path fill-rule="evenodd" clip-rule="evenodd" d="M27.9995 44.1306L28.9679 43.5657L30.286 44.3458L29.3176 44.8838L27.9995 44.1306Z" fill="#E5E8FF"/>
<path fill-rule="evenodd" clip-rule="evenodd" d="M28.4565 44.1296L28.9676 43.8337L29.7746 44.3179L29.2904 44.6138L28.4565 44.1296Z" fill="white"/>
<path fill-rule="evenodd" clip-rule="evenodd" d="M28.9662 44.0489V43.8337L29.7732 44.3179L29.6118 44.4255L28.9662 44.0489Z" fill="#8BACF6"/>
<path fill-rule="evenodd" clip-rule="evenodd" d="M28.9676 44.0489V43.8337L28.4565 44.1296L28.6448 44.2372L28.9676 44.0489Z" fill="#708DD0"/>
<path fill-rule="evenodd" clip-rule="evenodd" d="M27.9995 44.1304V44.3994L29.3176 45.1795V44.8836L27.9995 44.1304Z" fill="#8BACF6"/>
<path fill-rule="evenodd" clip-rule="evenodd" d="M30.2865 44.3459V44.6149L29.3181 45.1798V44.8839L30.2865 44.3459Z" fill="#708DD0"/>
<g opacity="0.3" style="mix-blend-mode:multiply">
<path fill-rule="evenodd" clip-rule="evenodd" d="M29.076 44.1027L28.9684 43.8337V44.0489L28.6456 44.2372L28.7532 44.291L29.076 44.1027Z" fill="#8BACF6"/>
</g>
<g opacity="0.3" style="mix-blend-mode:multiply">
<path fill-rule="evenodd" clip-rule="evenodd" d="M36.2845 23.4727L36.5265 24.0914L31.1735 27.1848L30.9314 27.0234L36.2845 23.93V23.4727Z" fill="#8BACF6"/>
</g>
<g opacity="0.3" style="mix-blend-mode:multiply">
<path fill-rule="evenodd" clip-rule="evenodd" d="M29.3975 39.4243L20.4668 44.589L20.1978 44.4545L29.3975 39.1553V39.4243Z" fill="#8BACF6"/>
</g>
<g opacity="0.5" style="mix-blend-mode:multiply">
<path fill-rule="evenodd" clip-rule="evenodd" d="M36.0696 28.6372H36.6076L39.8893 26.7543L37.4953 25.3555L36.0696 28.6372Z" fill="#708DD0"/>
</g>
<path fill-rule="evenodd" clip-rule="evenodd" d="M32.7877 26.2142L33.8906 25.5686L37.1724 27.4785L36.0695 28.1241L32.7877 26.2142Z" fill="white"/>
<path fill-rule="evenodd" clip-rule="evenodd" d="M32.7877 26.2142L33.8906 25.5686L37.1724 27.4785L36.0695 28.1241L32.7877 26.2142ZM33.8906 25.6493L32.9222 26.2142L36.0964 28.0434L37.0648 27.4785L33.8906 25.6493Z" fill="#E5E8FF"/>
<path fill-rule="evenodd" clip-rule="evenodd" d="M33.8907 25.5701L34.9936 24.9514L38.2754 26.8344L37.1725 27.48L33.8907 25.5701Z" fill="white"/>
<path fill-rule="evenodd" clip-rule="evenodd" d="M33.8907 25.5706L34.9936 24.925L38.2754 26.8349L37.1725 27.4805L33.8907 25.5706ZM34.9667 25.0057L33.9983 25.5706L37.1725 27.3998L38.1409 26.8349L34.9667 25.0057Z" fill="#E5E8FF"/>
<path fill-rule="evenodd" clip-rule="evenodd" d="M34.9938 24.9508L36.0698 24.3052L39.3784 26.2151L38.2755 26.8338L34.9938 24.9508Z" fill="white"/>
<path fill-rule="evenodd" clip-rule="evenodd" d="M34.9938 24.9508L36.0967 24.3052L39.3784 26.2151L38.2755 26.8607L34.9938 24.9508ZM36.0698 24.3859L35.1014 24.9508L38.2755 26.78L39.2439 26.2151L36.0698 24.3859Z" fill="#E5E8FF"/>
<path fill-rule="evenodd" clip-rule="evenodd" d="M34.3456 26.2698C34.5608 26.2698 34.7222 26.3774 34.7222 26.485C34.7222 26.5926 34.5608 26.7002 34.3456 26.7002C34.1304 26.7002 33.969 26.5926 33.969 26.485C33.969 26.3774 34.1304 26.2698 34.3456 26.2698ZM35.6099 26.9961C35.8251 26.9961 35.9865 27.1037 35.9865 27.2113C35.9865 27.3189 35.8251 27.4265 35.6099 27.4265C35.3947 27.4265 35.2333 27.3189 35.2333 27.2113C35.2333 27.1037 35.3947 26.9961 35.6099 26.9961Z" fill="#2F58EE" fill-opacity="0.4"/>
<path fill-rule="evenodd" clip-rule="evenodd" d="M35.4489 25.6235C35.6641 25.6235 35.8255 25.7311 35.8255 25.8387C35.8255 25.9463 35.6641 26.0539 35.4489 26.0539C35.2337 26.0539 35.0723 25.9463 35.0723 25.8387C35.0723 25.7311 35.2337 25.6235 35.4489 25.6235ZM36.6863 26.3498C36.9015 26.3498 37.0629 26.4574 37.0629 26.565C37.0629 26.6726 36.9015 26.7802 36.6863 26.7802C36.4711 26.7802 36.3097 26.6726 36.3097 26.565C36.3097 26.4574 36.4711 26.3498 36.6863 26.3498Z" fill="#2F58EE" fill-opacity="0.4"/>
<path fill-rule="evenodd" clip-rule="evenodd" d="M36.5521 25.0037C36.7673 25.0037 36.9287 25.1113 36.9287 25.2189C36.9287 25.3265 36.7673 25.4341 36.5521 25.4341C36.3369 25.4341 36.1755 25.3265 36.1755 25.2189C36.1755 25.1113 36.3369 25.0037 36.5521 25.0037ZM37.7895 25.7031C38.0047 25.7031 38.1661 25.8107 38.1661 25.9183C38.1661 26.0259 38.0047 26.1335 37.7895 26.1335C37.5743 26.1335 37.4129 26.0259 37.4129 25.9183C37.4129 25.8107 37.5743 25.7031 37.7895 25.7031Z" fill="#2F58EE" fill-opacity="0.4"/>
<path fill-rule="evenodd" clip-rule="evenodd" d="M32.786 26.2148V26.7528L36.0678 28.6358V28.1247L32.786 26.2148Z" fill="#8BACF6"/>
<path fill-rule="evenodd" clip-rule="evenodd" d="M37.1725 27.4805V28.0185L36.0696 28.6372V28.1261L37.1725 27.4805Z" fill="#708DD0"/>
<path fill-rule="evenodd" clip-rule="evenodd" d="M38.2759 26.835V27.373L37.173 28.0186V27.4806L38.2759 26.835Z" fill="#708DD0"/>
<path fill-rule="evenodd" clip-rule="evenodd" d="M39.3791 26.2148V26.7528L38.2762 27.3715V26.8335L39.3791 26.2148Z" fill="#708DD0"/>
<defs>
<filter id="filter0_f_187_5025" x="14.3887" y="46.4375" width="13.5059" height="8.2063" filterUnits="userSpaceOnUse" color-interpolation-filters="sRGB">
<feFlood flood-opacity="0" result="BackgroundImageFix"/>
<feBlend mode="normal" in="SourceGraphic" in2="BackgroundImageFix" result="shape"/>
<feGaussianBlur stdDeviation="0.25" result="effect1_foregroundBlur_187_5025"/>
</filter>
<filter id="filter1_f_187_5025" x="23.1912" y="48.1748" width="18.1636" height="10.8943" filterUnits="userSpaceOnUse" color-interpolation-filters="sRGB">
<feFlood flood-opacity="0" result="BackgroundImageFix"/>
<feBlend mode="normal" in="SourceGraphic" in2="BackgroundImageFix" result="shape"/>
<feGaussianBlur stdDeviation="0.5" result="effect1_foregroundBlur_187_5025"/>
</filter>
<filter id="filter2_f_187_5025" x="41.5262" y="52.5488" width="14.2683" height="7.78613" filterUnits="userSpaceOnUse" color-interpolation-filters="sRGB">
<feFlood flood-opacity="0" result="BackgroundImageFix"/>
<feBlend mode="normal" in="SourceGraphic" in2="BackgroundImageFix" result="shape"/>
<feGaussianBlur stdDeviation="0.25" result="effect1_foregroundBlur_187_5025"/>
</filter>
<linearGradient id="paint0_linear_187_5025" x1="18.2439" y1="49.3429" x2="20.199" y2="54.2078" gradientUnits="userSpaceOnUse">
<stop/>
<stop offset="1" stop-opacity="0"/>
</linearGradient>
<linearGradient id="paint1_linear_187_5025" x1="29.9663" y1="51.2847" x2="37.8107" y2="59.1644" gradientUnits="userSpaceOnUse">
<stop/>
<stop offset="1" stop-opacity="0"/>
</linearGradient>
<linearGradient id="paint2_linear_187_5025" x1="44.8275" y1="53.652" x2="47.3444" y2="60.4905" gradientUnits="userSpaceOnUse">
<stop/>
<stop offset="1" stop-opacity="0"/>
</linearGradient>
</defs>
</svg>
